<?xml version="1.0" encoding="utf-8" standalone="no"?>
<!DOCTYPE svg PUBLIC "-//W3C//DTD SVG 1.1//EN"
  "http://www.w3.org/Graphics/SVG/1.1/DTD/svg11.dtd">
<svg xmlns:xlink="http://www.w3.org/1999/xlink" width="313.2pt" height="234pt" viewBox="0 0 313.2 234" xmlns="http://www.w3.org/2000/svg" version="1.1">
 <metadata>
  <rdf:RDF xmlns:dc="http://purl.org/dc/elements/1.1/" xmlns:cc="http://creativecommons.org/ns#" xmlns:rdf="http://www.w3.org/1999/02/22-rdf-syntax-ns#">
   <cc:Work>
    <dc:type rdf:resource="http://purl.org/dc/dcmitype/StillImage"/>
    <dc:date>2023-03-02T19:30:58.596908</dc:date>
    <dc:format>image/svg+xml</dc:format>
    <dc:creator>
     <cc:Agent>
      <dc:title>Matplotlib v3.7.0, https://matplotlib.org/</dc:title>
     </cc:Agent>
    </dc:creator>
   </cc:Work>
  </rdf:RDF>
 </metadata>
 <defs>
  <style type="text/css">*{stroke-linejoin: round; stroke-linecap: butt}</style>
 </defs>
 <g id="figure_1">
  <g id="patch_1">
   <path d="M 0 234 
L 313.2 234 
L 313.2 0 
L 0 0 
z
" style="fill: #ffffff"/>
  </g>
  <g id="axes_1">
   <g id="patch_2">
    <path d="M 70.83 186.15375 
L 301.32 186.15375 
L 301.32 11.88 
L 70.83 11.88 
z
" style="fill: #ffffff"/>
   </g>
   <g id="matplotlib.axis_1">
    <g id="xtick_1">
     <g id="line2d_1">
      <defs>
       <path id="mf425e0343d" d="M 0 0 
L 0 6 
" style="stroke: #000000; stroke-width: 1.5"/>
      </defs>
      <g>
       <use xlink:href="#mf425e0343d" x="81.306818" y="186.15375" style="stroke: #000000; stroke-width: 1.5"/>
      </g>
     </g>
     <g id="text_1">
      <text style="font: 11px 'DejaVu Sans', 'Bitstream Vera Sans', 'Computer Modern Sans Serif', 'Lucida Grande', 'Verdana', 'Geneva', 'Lucid', 'Arial', 'Helvetica', 'Avant Garde', sans-serif; text-anchor: middle" x="81.306818" y="204.012031" transform="rotate(-0 81.306818 204.012031)">10</text>
     </g>
    </g>
    <g id="xtick_2">
     <g id="line2d_2">
      <g>
       <use xlink:href="#mf425e0343d" x="133.690909" y="186.15375" style="stroke: #000000; stroke-width: 1.5"/>
      </g>
     </g>
     <g id="text_2">
      <text style="font: 11px 'DejaVu Sans', 'Bitstream Vera Sans', 'Computer Modern Sans Serif', 'Lucida Grande', 'Verdana', 'Geneva', 'Lucid', 'Arial', 'Helvetica', 'Avant Garde', sans-serif; text-anchor: middle" x="133.690909" y="204.012031" transform="rotate(-0 133.690909 204.012031)">20</text>
     </g>
    </g>
    <g id="xtick_3">
     <g id="line2d_3">
      <g>
       <use xlink:href="#mf425e0343d" x="186.075" y="186.15375" style="stroke: #000000; stroke-width: 1.5"/>
      </g>
     </g>
     <g id="text_3">
      <text style="font: 11px 'DejaVu Sans', 'Bitstream Vera Sans', 'Computer Modern Sans Serif', 'Lucida Grande', 'Verdana', 'Geneva', 'Lucid', 'Arial', 'Helvetica', 'Avant Garde', sans-serif; text-anchor: middle" x="186.075" y="204.012031" transform="rotate(-0 186.075 204.012031)">30</text>
     </g>
    </g>
    <g id="xtick_4">
     <g id="line2d_4">
      <g>
       <use xlink:href="#mf425e0343d" x="238.459091" y="186.15375" style="stroke: #000000; stroke-width: 1.5"/>
      </g>
     </g>
     <g id="text_4">
      <text style="font: 11px 'DejaVu Sans', 'Bitstream Vera Sans', 'Computer Modern Sans Serif', 'Lucida Grande', 'Verdana', 'Geneva', 'Lucid', 'Arial', 'Helvetica', 'Avant Garde', sans-serif; text-anchor: middle" x="238.459091" y="204.012031" transform="rotate(-0 238.459091 204.012031)">40</text>
     </g>
    </g>
    <g id="xtick_5">
     <g id="line2d_5">
      <g>
       <use xlink:href="#mf425e0343d" x="290.843182" y="186.15375" style="stroke: #000000; stroke-width: 1.5"/>
      </g>
     </g>
     <g id="text_5">
      <text style="font: 11px 'DejaVu Sans', 'Bitstream Vera Sans', 'Computer Modern Sans Serif', 'Lucida Grande', 'Verdana', 'Geneva', 'Lucid', 'Arial', 'Helvetica', 'Avant Garde', sans-serif; text-anchor: middle" x="290.843182" y="204.012031" transform="rotate(-0 290.843182 204.012031)">50</text>
     </g>
    </g>
    <g id="text_6">
     <text style="font: 11px 'DejaVu Sans', 'Bitstream Vera Sans', 'Computer Modern Sans Serif', 'Lucida Grande', 'Verdana', 'Geneva', 'Lucid', 'Arial', 'Helvetica', 'Avant Garde', sans-serif; text-anchor: middle" x="186.075" y="218.657969" transform="rotate(-0 186.075 218.657969)">tot_flow [sccm]</text>
    </g>
   </g>
   <g id="matplotlib.axis_2">
    <g id="ytick_1">
     <g id="line2d_6">
      <defs>
       <path id="m30cd20aab0" d="M 0 0 
L -6 0 
" style="stroke: #000000; stroke-width: 1.5"/>
      </defs>
      <g>
       <use xlink:href="#m30cd20aab0" x="70.83" y="181.498553" style="stroke: #000000; stroke-width: 1.5"/>
      </g>
     </g>
     <g id="text_7">
      <text style="font: 11px 'DejaVu Sans', 'Bitstream Vera Sans', 'Computer Modern Sans Serif', 'Lucida Grande', 'Verdana', 'Geneva', 'Lucid', 'Arial', 'Helvetica', 'Avant Garde', sans-serif; text-anchor: end" x="61.33" y="185.677693" transform="rotate(-0 61.33 185.677693)">0</text>
     </g>
    </g>
    <g id="ytick_2">
     <g id="line2d_7">
      <g>
       <use xlink:href="#m30cd20aab0" x="70.83" y="137.298453" style="stroke: #000000; stroke-width: 1.5"/>
      </g>
     </g>
     <g id="text_8">
      <text style="font: 11px 'DejaVu Sans', 'Bitstream Vera Sans', 'Computer Modern Sans Serif', 'Lucida Grande', 'Verdana', 'Geneva', 'Lucid', 'Arial', 'Helvetica', 'Avant Garde', sans-serif; text-anchor: end" x="61.33" y="141.477594" transform="rotate(-0 61.33 141.477594)">5000</text>
     </g>
    </g>
    <g id="ytick_3">
     <g id="line2d_8">
      <g>
       <use xlink:href="#m30cd20aab0" x="70.83" y="93.098354" style="stroke: #000000; stroke-width: 1.5"/>
      </g>
     </g>
     <g id="text_9">
      <text style="font: 11px 'DejaVu Sans', 'Bitstream Vera Sans', 'Computer Modern Sans Serif', 'Lucida Grande', 'Verdana', 'Geneva', 'Lucid', 'Arial', 'Helvetica', 'Avant Garde', sans-serif; text-anchor: end" x="61.33" y="97.277494" transform="rotate(-0 61.33 97.277494)">10000</text>
     </g>
    </g>
    <g id="ytick_4">
     <g id="line2d_9">
      <g>
       <use xlink:href="#m30cd20aab0" x="70.83" y="48.898254" style="stroke: #000000; stroke-width: 1.5"/>
      </g>
     </g>
     <g id="text_10">
      <text style="font: 11px 'DejaVu Sans', 'Bitstream Vera Sans', 'Computer Modern Sans Serif', 'Lucida Grande', 'Verdana', 'Geneva', 'Lucid', 'Arial', 'Helvetica', 'Avant Garde', sans-serif; text-anchor: end" x="61.33" y="53.077395" transform="rotate(-0 61.33 53.077395)">15000</text>
     </g>
    </g>
    <g id="text_11">
     <text style="font: 11px 'DejaVu Sans', 'Bitstream Vera Sans', 'Computer Modern Sans Serif', 'Lucida Grande', 'Verdana', 'Geneva', 'Lucid', 'Arial', 'Helvetica', 'Avant Garde', sans-serif; text-anchor: middle" x="20.048594" y="99.016875" transform="rotate(-90 20.048594 99.016875)">Conc (ppm)</text>
    </g>
   </g>
   <g id="LineCollection_1">
    <path d="M 81.306818 145.081033 
L 81.306818 139.352203 
" clip-path="url(#pe735758a3b)" style="fill: none; stroke: #1f77b4; stroke-width: 1.5"/>
    <path d="M 133.690909 116.619821 
L 133.690909 115.938921 
" clip-path="url(#pe735758a3b)" style="fill: none; stroke: #1f77b4; stroke-width: 1.5"/>
    <path d="M 186.075 109.811176 
L 186.075 109.639264 
" clip-path="url(#pe735758a3b)" style="fill: none; stroke: #1f77b4; stroke-width: 1.5"/>
    <path d="M 238.459091 106.431642 
L 238.459091 106.357201 
" clip-path="url(#pe735758a3b)" style="fill: none; stroke: #1f77b4; stroke-width: 1.5"/>
    <path d="M 290.843182 104.058922 
L 290.843182 103.91638 
" clip-path="url(#pe735758a3b)" style="fill: none; stroke: #1f77b4; stroke-width: 1.5"/>
   </g>
   <g id="LineCollection_2">
    <path d="M 81.306818 156.829803 
L 81.306818 151.155399 
" clip-path="url(#pe735758a3b)" style="fill: none; stroke: #ff7f0e; stroke-width: 1.5"/>
    <path d="M 133.690909 173.009616 
L 133.690909 172.40946 
" clip-path="url(#pe735758a3b)" style="fill: none; stroke: #ff7f0e; stroke-width: 1.5"/>
    <path d="M 186.075 176.222394 
L 186.075 176.03019 
" clip-path="url(#pe735758a3b)" style="fill: none; stroke: #ff7f0e; stroke-width: 1.5"/>
    <path d="M 238.459091 177.544567 
L 238.459091 177.458611 
" clip-path="url(#pe735758a3b)" style="fill: none; stroke: #ff7f0e; stroke-width: 1.5"/>
    <path d="M 290.843182 178.232216 
L 290.843182 178.232216 
" clip-path="url(#pe735758a3b)" style="fill: none; stroke: #ff7f0e; stroke-width: 1.5"/>
   </g>
   <g id="LineCollection_3">
    <path d="M 81.306818 59.326013 
L 81.306818 36.519548 
" clip-path="url(#pe735758a3b)" style="fill: none; stroke: #2ca02c; stroke-width: 1.5"/>
    <path d="M 133.690909 34.763215 
L 133.690909 32.201103 
" clip-path="url(#pe735758a3b)" style="fill: none; stroke: #2ca02c; stroke-width: 1.5"/>
    <path d="M 186.075 27.571481 
L 186.075 26.843249 
" clip-path="url(#pe735758a3b)" style="fill: none; stroke: #2ca02c; stroke-width: 1.5"/>
    <path d="M 238.459091 23.45676 
L 238.459091 23.135967 
" clip-path="url(#pe735758a3b)" style="fill: none; stroke: #2ca02c; stroke-width: 1.5"/>
    <path d="M 290.843182 20.086618 
L 290.843182 19.801534 
" clip-path="url(#pe735758a3b)" style="fill: none; stroke: #2ca02c; stroke-width: 1.5"/>
   </g>
   <g id="line2d_10">
    <path d="M 81.306818 142.216618 
L 133.690909 116.279371 
L 186.075 109.72522 
L 238.459091 106.394421 
L 290.843182 103.987651 
" clip-path="url(#pe735758a3b)" style="fill: none; stroke: #1f77b4; stroke-width: 1.5; stroke-linecap: square"/>
    <defs>
     <path id="me9e1d46a9e" d="M 0 3 
C 0.795609 3 1.55874 2.683901 2.12132 2.12132 
C 2.683901 1.55874 3 0.795609 3 0 
C 3 -0.795609 2.683901 -1.55874 2.12132 -2.12132 
C 1.55874 -2.683901 0.795609 -3 0 -3 
C -0.795609 -3 -1.55874 -2.683901 -2.12132 -2.12132 
C -2.683901 -1.55874 -3 -0.795609 -3 0 
C -3 0.795609 -2.683901 1.55874 -2.12132 2.12132 
C -1.55874 2.683901 -0.795609 3 0 3 
z
" style="stroke: #1f77b4"/>
    </defs>
    <g clip-path="url(#pe735758a3b)">
     <use xlink:href="#me9e1d46a9e" x="81.306818" y="142.216618" style="fill: #1f77b4; stroke: #1f77b4"/>
     <use xlink:href="#me9e1d46a9e" x="133.690909" y="116.279371" style="fill: #1f77b4; stroke: #1f77b4"/>
     <use xlink:href="#me9e1d46a9e" x="186.075" y="109.72522" style="fill: #1f77b4; stroke: #1f77b4"/>
     <use xlink:href="#me9e1d46a9e" x="238.459091" y="106.394421" style="fill: #1f77b4; stroke: #1f77b4"/>
     <use xlink:href="#me9e1d46a9e" x="290.843182" y="103.987651" style="fill: #1f77b4; stroke: #1f77b4"/>
    </g>
   </g>
   <g id="line2d_11">
    <path d="M 81.306818 153.992601 
L 133.690909 172.709538 
L 186.075 176.126292 
L 238.459091 177.501589 
L 290.843182 178.232216 
" clip-path="url(#pe735758a3b)" style="fill: none; stroke: #ff7f0e; stroke-width: 1.5; stroke-linecap: square"/>
    <defs>
     <path id="m7c10de4d23" d="M 0 3 
C 0.795609 3 1.55874 2.683901 2.12132 2.12132 
C 2.683901 1.55874 3 0.795609 3 0 
C 3 -0.795609 2.683901 -1.55874 2.12132 -2.12132 
C 1.55874 -2.683901 0.795609 -3 0 -3 
C -0.795609 -3 -1.55874 -2.683901 -2.12132 -2.12132 
C -2.683901 -1.55874 -3 -0.795609 -3 0 
C -3 0.795609 -2.683901 1.55874 -2.12132 2.12132 
C -1.55874 2.683901 -0.795609 3 0 3 
z
" style="stroke: #ff7f0e"/>
    </defs>
    <g clip-path="url(#pe735758a3b)">
     <use xlink:href="#m7c10de4d23" x="81.306818" y="153.992601" style="fill: #ff7f0e; stroke: #ff7f0e"/>
     <use xlink:href="#m7c10de4d23" x="133.690909" y="172.709538" style="fill: #ff7f0e; stroke: #ff7f0e"/>
     <use xlink:href="#m7c10de4d23" x="186.075" y="176.126292" style="fill: #ff7f0e; stroke: #ff7f0e"/>
     <use xlink:href="#m7c10de4d23" x="238.459091" y="177.501589" style="fill: #ff7f0e; stroke: #ff7f0e"/>
     <use xlink:href="#m7c10de4d23" x="290.843182" y="178.232216" style="fill: #ff7f0e; stroke: #ff7f0e"/>
    </g>
   </g>
   <g id="line2d_12">
    <path d="M 81.306818 47.92278 
L 133.690909 33.482159 
L 186.075 27.207365 
L 238.459091 23.296363 
L 290.843182 19.944076 
" clip-path="url(#pe735758a3b)" style="fill: none; stroke: #2ca02c; stroke-width: 1.5; stroke-linecap: square"/>
    <defs>
     <path id="mb113581f5b" d="M 0 3 
C 0.795609 3 1.55874 2.683901 2.12132 2.12132 
C 2.683901 1.55874 3 0.795609 3 0 
C 3 -0.795609 2.683901 -1.55874 2.12132 -2.12132 
C 1.55874 -2.683901 0.795609 -3 0 -3 
C -0.795609 -3 -1.55874 -2.683901 -2.12132 -2.12132 
C -2.683901 -1.55874 -3 -0.795609 -3 0 
C -3 0.795609 -2.683901 1.55874 -2.12132 2.12132 
C -1.55874 2.683901 -0.795609 3 0 3 
z
" style="stroke: #2ca02c"/>
    </defs>
    <g clip-path="url(#pe735758a3b)">
     <use xlink:href="#mb113581f5b" x="81.306818" y="47.92278" style="fill: #2ca02c; stroke: #2ca02c"/>
     <use xlink:href="#mb113581f5b" x="133.690909" y="33.482159" style="fill: #2ca02c; stroke: #2ca02c"/>
     <use xlink:href="#mb113581f5b" x="186.075" y="27.207365" style="fill: #2ca02c; stroke: #2ca02c"/>
     <use xlink:href="#mb113581f5b" x="238.459091" y="23.296363" style="fill: #2ca02c; stroke: #2ca02c"/>
     <use xlink:href="#mb113581f5b" x="290.843182" y="19.944076" style="fill: #2ca02c; stroke: #2ca02c"/>
    </g>
   </g>
   <g id="patch_3">
    <path d="M 70.83 186.15375 
L 70.83 11.88 
" style="fill: none; stroke: #000000; stroke-width: 2; stroke-linejoin: miter; stroke-linecap: square"/>
   </g>
   <g id="patch_4">
    <path d="M 301.32 186.15375 
L 301.32 11.88 
" style="fill: none; stroke: #000000; stroke-width: 2; stroke-linejoin: miter; stroke-linecap: square"/>
   </g>
   <g id="patch_5">
    <path d="M 70.83 186.15375 
L 301.32 186.15375 
" style="fill: none; stroke: #000000; stroke-width: 2; stroke-linejoin: miter; stroke-linecap: square"/>
   </g>
   <g id="patch_6">
    <path d="M 70.83 11.88 
L 301.32 11.88 
" style="fill: none; stroke: #000000; stroke-width: 2; stroke-linejoin: miter; stroke-linecap: square"/>
   </g>
   <g id="legend_1">
    <g id="patch_7">
     <path d="M 78.53 116.812812 
L 140.747031 116.812812 
Q 142.947031 116.812812 142.947031 114.612812 
L 142.947031 83.420937 
Q 142.947031 81.220937 140.747031 81.220937 
L 78.53 81.220937 
Q 76.33 81.220937 76.33 83.420937 
L 76.33 114.612812 
Q 76.33 116.812812 78.53 116.812812 
z
" style="fill: #ffffff; opacity: 0.8; stroke: #cccccc; stroke-linejoin: miter"/>
    </g>
    <g id="line2d_13">
     <path d="M 80.73 90.129219 
L 91.73 90.129219 
L 102.73 90.129219 
" style="fill: none; stroke: #1f77b4; stroke-width: 1.5; stroke-linecap: square"/>
     <g>
      <use xlink:href="#me9e1d46a9e" x="91.73" y="90.129219" style="fill: #1f77b4; stroke: #1f77b4"/>
     </g>
    </g>
    <g id="text_12">
     <text style="font: 11px 'DejaVu Sans', 'Bitstream Vera Sans', 'Computer Modern Sans Serif', 'Lucida Grande', 'Verdana', 'Geneva', 'Lucid', 'Arial', 'Helvetica', 'Avant Garde', sans-serif; text-anchor: start" x="111.53" y="93.979219" transform="rotate(-0 111.53 93.979219)">c2h2</text>
    </g>
    <g id="line2d_14">
     <path d="M 80.73 106.275156 
L 91.73 106.275156 
L 102.73 106.275156 
" style="fill: none; stroke: #ff7f0e; stroke-width: 1.5; stroke-linecap: square"/>
     <g>
      <use xlink:href="#m7c10de4d23" x="91.73" y="106.275156" style="fill: #ff7f0e; stroke: #ff7f0e"/>
     </g>
    </g>
    <g id="text_13">
     <text style="font: 11px 'DejaVu Sans', 'Bitstream Vera Sans', 'Computer Modern Sans Serif', 'Lucida Grande', 'Verdana', 'Geneva', 'Lucid', 'Arial', 'Helvetica', 'Avant Garde', sans-serif; text-anchor: start" x="111.53" y="110.125156" transform="rotate(-0 111.53 110.125156)">c2h4</text>
    </g>
   </g>
  </g>
 </g>
 <defs>
  <clipPath id="pe735758a3b">
   <rect x="70.83" y="11.88" width="230.49" height="174.27375"/>
  </clipPath>
 </defs>
</svg>
