<?xml version="1.0" encoding="utf-8" standalone="no"?>
<!DOCTYPE svg PUBLIC "-//W3C//DTD SVG 1.1//EN"
  "http://www.w3.org/Graphics/SVG/1.1/DTD/svg11.dtd">
<svg xmlns:xlink="http://www.w3.org/1999/xlink" width="460.8pt" height="345.6pt" viewBox="0 0 460.8 345.6" xmlns="http://www.w3.org/2000/svg" version="1.1">
 <metadata>
  <rdf:RDF xmlns:dc="http://purl.org/dc/elements/1.1/" xmlns:cc="http://creativecommons.org/ns#" xmlns:rdf="http://www.w3.org/1999/02/22-rdf-syntax-ns#">
   <cc:Work>
    <dc:type rdf:resource="http://purl.org/dc/dcmitype/StillImage"/>
    <dc:date>2024-06-04T21:24:26.282591</dc:date>
    <dc:format>image/svg+xml</dc:format>
    <dc:creator>
     <cc:Agent>
      <dc:title>Matplotlib v3.7.1, https://matplotlib.org/</dc:title>
     </cc:Agent>
    </dc:creator>
   </cc:Work>
  </rdf:RDF>
 </metadata>
 <defs>
  <style type="text/css">*{stroke-linejoin: round; stroke-linecap: butt}</style>
 </defs>
 <g id="figure_1">
  <g id="patch_1">
   <path d="M 0 345.6 
L 460.8 345.6 
L 460.8 0 
L 0 0 
z
" style="fill: #ffffff"/>
  </g>
  <g id="axes_1">
   <g id="patch_2">
    <path d="M 54.92 296.44 
L 450 296.44 
L 450 10.8 
L 54.92 10.8 
z
" style="fill: #ffffff"/>
   </g>
   <g id="matplotlib.axis_1">
    <g id="xtick_1">
     <g id="line2d_1">
      <defs>
       <path id="m9c94e82e8f" d="M 0 0 
L 0 3.5 
" style="stroke: #000000; stroke-width: 0.8"/>
      </defs>
      <g>
       <use xlink:href="#m9c94e82e8f" x="68.27352" y="296.44" style="stroke: #000000; stroke-width: 0.8"/>
      </g>
     </g>
     <g id="text_1">
      <!-- 400 -->
      <g transform="translate(58.72977 311.038437) scale(0.1 -0.1)">
       <defs>
        <path id="DejaVuSans-34" d="M 2419 4116 
L 825 1625 
L 2419 1625 
L 2419 4116 
z
M 2253 4666 
L 3047 4666 
L 3047 1625 
L 3713 1625 
L 3713 1100 
L 3047 1100 
L 3047 0 
L 2419 0 
L 2419 1100 
L 313 1100 
L 313 1709 
L 2253 4666 
z
" transform="scale(0.015625)"/>
        <path id="DejaVuSans-30" d="M 2034 4250 
Q 1547 4250 1301 3770 
Q 1056 3291 1056 2328 
Q 1056 1369 1301 889 
Q 1547 409 2034 409 
Q 2525 409 2770 889 
Q 3016 1369 3016 2328 
Q 3016 3291 2770 3770 
Q 2525 4250 2034 4250 
z
M 2034 4750 
Q 2819 4750 3233 4129 
Q 3647 3509 3647 2328 
Q 3647 1150 3233 529 
Q 2819 -91 2034 -91 
Q 1250 -91 836 529 
Q 422 1150 422 2328 
Q 422 3509 836 4129 
Q 1250 4750 2034 4750 
z
" transform="scale(0.015625)"/>
       </defs>
       <use xlink:href="#DejaVuSans-34"/>
       <use xlink:href="#DejaVuSans-30" x="63.623047"/>
       <use xlink:href="#DejaVuSans-30" x="127.246094"/>
      </g>
     </g>
    </g>
    <g id="xtick_2">
     <g id="line2d_2">
      <g>
       <use xlink:href="#m9c94e82e8f" x="114.32014" y="296.44" style="stroke: #000000; stroke-width: 0.8"/>
      </g>
     </g>
     <g id="text_2">
      <!-- 450 -->
      <g transform="translate(104.77639 311.038437) scale(0.1 -0.1)">
       <defs>
        <path id="DejaVuSans-35" d="M 691 4666 
L 3169 4666 
L 3169 4134 
L 1269 4134 
L 1269 2991 
Q 1406 3038 1543 3061 
Q 1681 3084 1819 3084 
Q 2600 3084 3056 2656 
Q 3513 2228 3513 1497 
Q 3513 744 3044 326 
Q 2575 -91 1722 -91 
Q 1428 -91 1123 -41 
Q 819 9 494 109 
L 494 744 
Q 775 591 1075 516 
Q 1375 441 1709 441 
Q 2250 441 2565 725 
Q 2881 1009 2881 1497 
Q 2881 1984 2565 2268 
Q 2250 2553 1709 2553 
Q 1456 2553 1204 2497 
Q 953 2441 691 2322 
L 691 4666 
z
" transform="scale(0.015625)"/>
       </defs>
       <use xlink:href="#DejaVuSans-34"/>
       <use xlink:href="#DejaVuSans-35" x="63.623047"/>
       <use xlink:href="#DejaVuSans-30" x="127.246094"/>
      </g>
     </g>
    </g>
    <g id="xtick_3">
     <g id="line2d_3">
      <g>
       <use xlink:href="#m9c94e82e8f" x="160.36676" y="296.44" style="stroke: #000000; stroke-width: 0.8"/>
      </g>
     </g>
     <g id="text_3">
      <!-- 500 -->
      <g transform="translate(150.82301 311.038437) scale(0.1 -0.1)">
       <use xlink:href="#DejaVuSans-35"/>
       <use xlink:href="#DejaVuSans-30" x="63.623047"/>
       <use xlink:href="#DejaVuSans-30" x="127.246094"/>
      </g>
     </g>
    </g>
    <g id="xtick_4">
     <g id="line2d_4">
      <g>
       <use xlink:href="#m9c94e82e8f" x="206.41338" y="296.44" style="stroke: #000000; stroke-width: 0.8"/>
      </g>
     </g>
     <g id="text_4">
      <!-- 550 -->
      <g transform="translate(196.86963 311.038437) scale(0.1 -0.1)">
       <use xlink:href="#DejaVuSans-35"/>
       <use xlink:href="#DejaVuSans-35" x="63.623047"/>
       <use xlink:href="#DejaVuSans-30" x="127.246094"/>
      </g>
     </g>
    </g>
    <g id="xtick_5">
     <g id="line2d_5">
      <g>
       <use xlink:href="#m9c94e82e8f" x="252.46" y="296.44" style="stroke: #000000; stroke-width: 0.8"/>
      </g>
     </g>
     <g id="text_5">
      <!-- 600 -->
      <g transform="translate(242.91625 311.038437) scale(0.1 -0.1)">
       <defs>
        <path id="DejaVuSans-36" d="M 2113 2584 
Q 1688 2584 1439 2293 
Q 1191 2003 1191 1497 
Q 1191 994 1439 701 
Q 1688 409 2113 409 
Q 2538 409 2786 701 
Q 3034 994 3034 1497 
Q 3034 2003 2786 2293 
Q 2538 2584 2113 2584 
z
M 3366 4563 
L 3366 3988 
Q 3128 4100 2886 4159 
Q 2644 4219 2406 4219 
Q 1781 4219 1451 3797 
Q 1122 3375 1075 2522 
Q 1259 2794 1537 2939 
Q 1816 3084 2150 3084 
Q 2853 3084 3261 2657 
Q 3669 2231 3669 1497 
Q 3669 778 3244 343 
Q 2819 -91 2113 -91 
Q 1303 -91 875 529 
Q 447 1150 447 2328 
Q 447 3434 972 4092 
Q 1497 4750 2381 4750 
Q 2619 4750 2861 4703 
Q 3103 4656 3366 4563 
z
" transform="scale(0.015625)"/>
       </defs>
       <use xlink:href="#DejaVuSans-36"/>
       <use xlink:href="#DejaVuSans-30" x="63.623047"/>
       <use xlink:href="#DejaVuSans-30" x="127.246094"/>
      </g>
     </g>
    </g>
    <g id="xtick_6">
     <g id="line2d_6">
      <g>
       <use xlink:href="#m9c94e82e8f" x="298.50662" y="296.44" style="stroke: #000000; stroke-width: 0.8"/>
      </g>
     </g>
     <g id="text_6">
      <!-- 650 -->
      <g transform="translate(288.96287 311.038437) scale(0.1 -0.1)">
       <use xlink:href="#DejaVuSans-36"/>
       <use xlink:href="#DejaVuSans-35" x="63.623047"/>
       <use xlink:href="#DejaVuSans-30" x="127.246094"/>
      </g>
     </g>
    </g>
    <g id="xtick_7">
     <g id="line2d_7">
      <g>
       <use xlink:href="#m9c94e82e8f" x="344.55324" y="296.44" style="stroke: #000000; stroke-width: 0.8"/>
      </g>
     </g>
     <g id="text_7">
      <!-- 700 -->
      <g transform="translate(335.00949 311.038437) scale(0.1 -0.1)">
       <defs>
        <path id="DejaVuSans-37" d="M 525 4666 
L 3525 4666 
L 3525 4397 
L 1831 0 
L 1172 0 
L 2766 4134 
L 525 4134 
L 525 4666 
z
" transform="scale(0.015625)"/>
       </defs>
       <use xlink:href="#DejaVuSans-37"/>
       <use xlink:href="#DejaVuSans-30" x="63.623047"/>
       <use xlink:href="#DejaVuSans-30" x="127.246094"/>
      </g>
     </g>
    </g>
    <g id="xtick_8">
     <g id="line2d_8">
      <g>
       <use xlink:href="#m9c94e82e8f" x="390.59986" y="296.44" style="stroke: #000000; stroke-width: 0.8"/>
      </g>
     </g>
     <g id="text_8">
      <!-- 750 -->
      <g transform="translate(381.05611 311.038437) scale(0.1 -0.1)">
       <use xlink:href="#DejaVuSans-37"/>
       <use xlink:href="#DejaVuSans-35" x="63.623047"/>
       <use xlink:href="#DejaVuSans-30" x="127.246094"/>
      </g>
     </g>
    </g>
    <g id="xtick_9">
     <g id="line2d_9">
      <g>
       <use xlink:href="#m9c94e82e8f" x="436.64648" y="296.44" style="stroke: #000000; stroke-width: 0.8"/>
      </g>
     </g>
     <g id="text_9">
      <!-- 800 -->
      <g transform="translate(427.10273 311.038437) scale(0.1 -0.1)">
       <defs>
        <path id="DejaVuSans-38" d="M 2034 2216 
Q 1584 2216 1326 1975 
Q 1069 1734 1069 1313 
Q 1069 891 1326 650 
Q 1584 409 2034 409 
Q 2484 409 2743 651 
Q 3003 894 3003 1313 
Q 3003 1734 2745 1975 
Q 2488 2216 2034 2216 
z
M 1403 2484 
Q 997 2584 770 2862 
Q 544 3141 544 3541 
Q 544 4100 942 4425 
Q 1341 4750 2034 4750 
Q 2731 4750 3128 4425 
Q 3525 4100 3525 3541 
Q 3525 3141 3298 2862 
Q 3072 2584 2669 2484 
Q 3125 2378 3379 2068 
Q 3634 1759 3634 1313 
Q 3634 634 3220 271 
Q 2806 -91 2034 -91 
Q 1263 -91 848 271 
Q 434 634 434 1313 
Q 434 1759 690 2068 
Q 947 2378 1403 2484 
z
M 1172 3481 
Q 1172 3119 1398 2916 
Q 1625 2713 2034 2713 
Q 2441 2713 2670 2916 
Q 2900 3119 2900 3481 
Q 2900 3844 2670 4047 
Q 2441 4250 2034 4250 
Q 1625 4250 1398 4047 
Q 1172 3844 1172 3481 
z
" transform="scale(0.015625)"/>
       </defs>
       <use xlink:href="#DejaVuSans-38"/>
       <use xlink:href="#DejaVuSans-30" x="63.623047"/>
       <use xlink:href="#DejaVuSans-30" x="127.246094"/>
      </g>
     </g>
    </g>
    <g id="text_10">
     <!-- Wavelength [nm] -->
     <g transform="translate(174.714063 330.795312) scale(0.18 -0.18)">
      <defs>
       <path id="DejaVuSans-57" d="M 213 4666 
L 850 4666 
L 1831 722 
L 2809 4666 
L 3519 4666 
L 4500 722 
L 5478 4666 
L 6119 4666 
L 4947 0 
L 4153 0 
L 3169 4050 
L 2175 0 
L 1381 0 
L 213 4666 
z
" transform="scale(0.015625)"/>
       <path id="DejaVuSans-61" d="M 2194 1759 
Q 1497 1759 1228 1600 
Q 959 1441 959 1056 
Q 959 750 1161 570 
Q 1363 391 1709 391 
Q 2188 391 2477 730 
Q 2766 1069 2766 1631 
L 2766 1759 
L 2194 1759 
z
M 3341 1997 
L 3341 0 
L 2766 0 
L 2766 531 
Q 2569 213 2275 61 
Q 1981 -91 1556 -91 
Q 1019 -91 701 211 
Q 384 513 384 1019 
Q 384 1609 779 1909 
Q 1175 2209 1959 2209 
L 2766 2209 
L 2766 2266 
Q 2766 2663 2505 2880 
Q 2244 3097 1772 3097 
Q 1472 3097 1187 3025 
Q 903 2953 641 2809 
L 641 3341 
Q 956 3463 1253 3523 
Q 1550 3584 1831 3584 
Q 2591 3584 2966 3190 
Q 3341 2797 3341 1997 
z
" transform="scale(0.015625)"/>
       <path id="DejaVuSans-76" d="M 191 3500 
L 800 3500 
L 1894 563 
L 2988 3500 
L 3597 3500 
L 2284 0 
L 1503 0 
L 191 3500 
z
" transform="scale(0.015625)"/>
       <path id="DejaVuSans-65" d="M 3597 1894 
L 3597 1613 
L 953 1613 
Q 991 1019 1311 708 
Q 1631 397 2203 397 
Q 2534 397 2845 478 
Q 3156 559 3463 722 
L 3463 178 
Q 3153 47 2828 -22 
Q 2503 -91 2169 -91 
Q 1331 -91 842 396 
Q 353 884 353 1716 
Q 353 2575 817 3079 
Q 1281 3584 2069 3584 
Q 2775 3584 3186 3129 
Q 3597 2675 3597 1894 
z
M 3022 2063 
Q 3016 2534 2758 2815 
Q 2500 3097 2075 3097 
Q 1594 3097 1305 2825 
Q 1016 2553 972 2059 
L 3022 2063 
z
" transform="scale(0.015625)"/>
       <path id="DejaVuSans-6c" d="M 603 4863 
L 1178 4863 
L 1178 0 
L 603 0 
L 603 4863 
z
" transform="scale(0.015625)"/>
       <path id="DejaVuSans-6e" d="M 3513 2113 
L 3513 0 
L 2938 0 
L 2938 2094 
Q 2938 2591 2744 2837 
Q 2550 3084 2163 3084 
Q 1697 3084 1428 2787 
Q 1159 2491 1159 1978 
L 1159 0 
L 581 0 
L 581 3500 
L 1159 3500 
L 1159 2956 
Q 1366 3272 1645 3428 
Q 1925 3584 2291 3584 
Q 2894 3584 3203 3211 
Q 3513 2838 3513 2113 
z
" transform="scale(0.015625)"/>
       <path id="DejaVuSans-67" d="M 2906 1791 
Q 2906 2416 2648 2759 
Q 2391 3103 1925 3103 
Q 1463 3103 1205 2759 
Q 947 2416 947 1791 
Q 947 1169 1205 825 
Q 1463 481 1925 481 
Q 2391 481 2648 825 
Q 2906 1169 2906 1791 
z
M 3481 434 
Q 3481 -459 3084 -895 
Q 2688 -1331 1869 -1331 
Q 1566 -1331 1297 -1286 
Q 1028 -1241 775 -1147 
L 775 -588 
Q 1028 -725 1275 -790 
Q 1522 -856 1778 -856 
Q 2344 -856 2625 -561 
Q 2906 -266 2906 331 
L 2906 616 
Q 2728 306 2450 153 
Q 2172 0 1784 0 
Q 1141 0 747 490 
Q 353 981 353 1791 
Q 353 2603 747 3093 
Q 1141 3584 1784 3584 
Q 2172 3584 2450 3431 
Q 2728 3278 2906 2969 
L 2906 3500 
L 3481 3500 
L 3481 434 
z
" transform="scale(0.015625)"/>
       <path id="DejaVuSans-74" d="M 1172 4494 
L 1172 3500 
L 2356 3500 
L 2356 3053 
L 1172 3053 
L 1172 1153 
Q 1172 725 1289 603 
Q 1406 481 1766 481 
L 2356 481 
L 2356 0 
L 1766 0 
Q 1100 0 847 248 
Q 594 497 594 1153 
L 594 3053 
L 172 3053 
L 172 3500 
L 594 3500 
L 594 4494 
L 1172 4494 
z
" transform="scale(0.015625)"/>
       <path id="DejaVuSans-68" d="M 3513 2113 
L 3513 0 
L 2938 0 
L 2938 2094 
Q 2938 2591 2744 2837 
Q 2550 3084 2163 3084 
Q 1697 3084 1428 2787 
Q 1159 2491 1159 1978 
L 1159 0 
L 581 0 
L 581 4863 
L 1159 4863 
L 1159 2956 
Q 1366 3272 1645 3428 
Q 1925 3584 2291 3584 
Q 2894 3584 3203 3211 
Q 3513 2838 3513 2113 
z
" transform="scale(0.015625)"/>
       <path id="DejaVuSans-20" transform="scale(0.015625)"/>
       <path id="DejaVuSans-5b" d="M 550 4863 
L 1875 4863 
L 1875 4416 
L 1125 4416 
L 1125 -397 
L 1875 -397 
L 1875 -844 
L 550 -844 
L 550 4863 
z
" transform="scale(0.015625)"/>
       <path id="DejaVuSans-6d" d="M 3328 2828 
Q 3544 3216 3844 3400 
Q 4144 3584 4550 3584 
Q 5097 3584 5394 3201 
Q 5691 2819 5691 2113 
L 5691 0 
L 5113 0 
L 5113 2094 
Q 5113 2597 4934 2840 
Q 4756 3084 4391 3084 
Q 3944 3084 3684 2787 
Q 3425 2491 3425 1978 
L 3425 0 
L 2847 0 
L 2847 2094 
Q 2847 2600 2669 2842 
Q 2491 3084 2119 3084 
Q 1678 3084 1418 2786 
Q 1159 2488 1159 1978 
L 1159 0 
L 581 0 
L 581 3500 
L 1159 3500 
L 1159 2956 
Q 1356 3278 1631 3431 
Q 1906 3584 2284 3584 
Q 2666 3584 2933 3390 
Q 3200 3197 3328 2828 
z
" transform="scale(0.015625)"/>
       <path id="DejaVuSans-5d" d="M 1947 4863 
L 1947 -844 
L 622 -844 
L 622 -397 
L 1369 -397 
L 1369 4416 
L 622 4416 
L 622 4863 
L 1947 4863 
z
" transform="scale(0.015625)"/>
      </defs>
      <use xlink:href="#DejaVuSans-57"/>
      <use xlink:href="#DejaVuSans-61" x="92.501953"/>
      <use xlink:href="#DejaVuSans-76" x="153.78125"/>
      <use xlink:href="#DejaVuSans-65" x="212.960938"/>
      <use xlink:href="#DejaVuSans-6c" x="274.484375"/>
      <use xlink:href="#DejaVuSans-65" x="302.267578"/>
      <use xlink:href="#DejaVuSans-6e" x="363.791016"/>
      <use xlink:href="#DejaVuSans-67" x="427.169922"/>
      <use xlink:href="#DejaVuSans-74" x="490.646484"/>
      <use xlink:href="#DejaVuSans-68" x="529.855469"/>
      <use xlink:href="#DejaVuSans-20" x="593.234375"/>
      <use xlink:href="#DejaVuSans-5b" x="625.021484"/>
      <use xlink:href="#DejaVuSans-6e" x="664.035156"/>
      <use xlink:href="#DejaVuSans-6d" x="727.414062"/>
      <use xlink:href="#DejaVuSans-5d" x="824.826172"/>
     </g>
    </g>
   </g>
   <g id="matplotlib.axis_2">
    <g id="ytick_1">
     <g id="line2d_10">
      <defs>
       <path id="m984c3e8d1e" d="M 0 0 
L -3.5 0 
" style="stroke: #000000; stroke-width: 0.8"/>
      </defs>
      <g>
       <use xlink:href="#m984c3e8d1e" x="54.92" y="284.291311" style="stroke: #000000; stroke-width: 0.8"/>
      </g>
     </g>
     <g id="text_11">
      <!-- 0.0 -->
      <g transform="translate(32.016875 288.09053) scale(0.1 -0.1)">
       <defs>
        <path id="DejaVuSans-2e" d="M 684 794 
L 1344 794 
L 1344 0 
L 684 0 
L 684 794 
z
" transform="scale(0.015625)"/>
       </defs>
       <use xlink:href="#DejaVuSans-30"/>
       <use xlink:href="#DejaVuSans-2e" x="63.623047"/>
       <use xlink:href="#DejaVuSans-30" x="95.410156"/>
      </g>
     </g>
    </g>
    <g id="ytick_2">
     <g id="line2d_11">
      <g>
       <use xlink:href="#m984c3e8d1e" x="54.92" y="249.923544" style="stroke: #000000; stroke-width: 0.8"/>
      </g>
     </g>
     <g id="text_12">
      <!-- 0.5 -->
      <g transform="translate(32.016875 253.722763) scale(0.1 -0.1)">
       <use xlink:href="#DejaVuSans-30"/>
       <use xlink:href="#DejaVuSans-2e" x="63.623047"/>
       <use xlink:href="#DejaVuSans-35" x="95.410156"/>
      </g>
     </g>
    </g>
    <g id="ytick_3">
     <g id="line2d_12">
      <g>
       <use xlink:href="#m984c3e8d1e" x="54.92" y="215.555777" style="stroke: #000000; stroke-width: 0.8"/>
      </g>
     </g>
     <g id="text_13">
      <!-- 1.0 -->
      <g transform="translate(32.016875 219.354996) scale(0.1 -0.1)">
       <defs>
        <path id="DejaVuSans-31" d="M 794 531 
L 1825 531 
L 1825 4091 
L 703 3866 
L 703 4441 
L 1819 4666 
L 2450 4666 
L 2450 531 
L 3481 531 
L 3481 0 
L 794 0 
L 794 531 
z
" transform="scale(0.015625)"/>
       </defs>
       <use xlink:href="#DejaVuSans-31"/>
       <use xlink:href="#DejaVuSans-2e" x="63.623047"/>
       <use xlink:href="#DejaVuSans-30" x="95.410156"/>
      </g>
     </g>
    </g>
    <g id="ytick_4">
     <g id="line2d_13">
      <g>
       <use xlink:href="#m984c3e8d1e" x="54.92" y="181.18801" style="stroke: #000000; stroke-width: 0.8"/>
      </g>
     </g>
     <g id="text_14">
      <!-- 1.5 -->
      <g transform="translate(32.016875 184.987229) scale(0.1 -0.1)">
       <use xlink:href="#DejaVuSans-31"/>
       <use xlink:href="#DejaVuSans-2e" x="63.623047"/>
       <use xlink:href="#DejaVuSans-35" x="95.410156"/>
      </g>
     </g>
    </g>
    <g id="ytick_5">
     <g id="line2d_14">
      <g>
       <use xlink:href="#m984c3e8d1e" x="54.92" y="146.820243" style="stroke: #000000; stroke-width: 0.8"/>
      </g>
     </g>
     <g id="text_15">
      <!-- 2.0 -->
      <g transform="translate(32.016875 150.619462) scale(0.1 -0.1)">
       <defs>
        <path id="DejaVuSans-32" d="M 1228 531 
L 3431 531 
L 3431 0 
L 469 0 
L 469 531 
Q 828 903 1448 1529 
Q 2069 2156 2228 2338 
Q 2531 2678 2651 2914 
Q 2772 3150 2772 3378 
Q 2772 3750 2511 3984 
Q 2250 4219 1831 4219 
Q 1534 4219 1204 4116 
Q 875 4013 500 3803 
L 500 4441 
Q 881 4594 1212 4672 
Q 1544 4750 1819 4750 
Q 2544 4750 2975 4387 
Q 3406 4025 3406 3419 
Q 3406 3131 3298 2873 
Q 3191 2616 2906 2266 
Q 2828 2175 2409 1742 
Q 1991 1309 1228 531 
z
" transform="scale(0.015625)"/>
       </defs>
       <use xlink:href="#DejaVuSans-32"/>
       <use xlink:href="#DejaVuSans-2e" x="63.623047"/>
       <use xlink:href="#DejaVuSans-30" x="95.410156"/>
      </g>
     </g>
    </g>
    <g id="ytick_6">
     <g id="line2d_15">
      <g>
       <use xlink:href="#m984c3e8d1e" x="54.92" y="112.452476" style="stroke: #000000; stroke-width: 0.8"/>
      </g>
     </g>
     <g id="text_16">
      <!-- 2.5 -->
      <g transform="translate(32.016875 116.251694) scale(0.1 -0.1)">
       <use xlink:href="#DejaVuSans-32"/>
       <use xlink:href="#DejaVuSans-2e" x="63.623047"/>
       <use xlink:href="#DejaVuSans-35" x="95.410156"/>
      </g>
     </g>
    </g>
    <g id="ytick_7">
     <g id="line2d_16">
      <g>
       <use xlink:href="#m984c3e8d1e" x="54.92" y="78.084708" style="stroke: #000000; stroke-width: 0.8"/>
      </g>
     </g>
     <g id="text_17">
      <!-- 3.0 -->
      <g transform="translate(32.016875 81.883927) scale(0.1 -0.1)">
       <defs>
        <path id="DejaVuSans-33" d="M 2597 2516 
Q 3050 2419 3304 2112 
Q 3559 1806 3559 1356 
Q 3559 666 3084 287 
Q 2609 -91 1734 -91 
Q 1441 -91 1130 -33 
Q 819 25 488 141 
L 488 750 
Q 750 597 1062 519 
Q 1375 441 1716 441 
Q 2309 441 2620 675 
Q 2931 909 2931 1356 
Q 2931 1769 2642 2001 
Q 2353 2234 1838 2234 
L 1294 2234 
L 1294 2753 
L 1863 2753 
Q 2328 2753 2575 2939 
Q 2822 3125 2822 3475 
Q 2822 3834 2567 4026 
Q 2313 4219 1838 4219 
Q 1578 4219 1281 4162 
Q 984 4106 628 3988 
L 628 4550 
Q 988 4650 1302 4700 
Q 1616 4750 1894 4750 
Q 2613 4750 3031 4423 
Q 3450 4097 3450 3541 
Q 3450 3153 3228 2886 
Q 3006 2619 2597 2516 
z
" transform="scale(0.015625)"/>
       </defs>
       <use xlink:href="#DejaVuSans-33"/>
       <use xlink:href="#DejaVuSans-2e" x="63.623047"/>
       <use xlink:href="#DejaVuSans-30" x="95.410156"/>
      </g>
     </g>
    </g>
    <g id="ytick_8">
     <g id="line2d_17">
      <g>
       <use xlink:href="#m984c3e8d1e" x="54.92" y="43.716941" style="stroke: #000000; stroke-width: 0.8"/>
      </g>
     </g>
     <g id="text_18">
      <!-- 3.5 -->
      <g transform="translate(32.016875 47.51616) scale(0.1 -0.1)">
       <use xlink:href="#DejaVuSans-33"/>
       <use xlink:href="#DejaVuSans-2e" x="63.623047"/>
       <use xlink:href="#DejaVuSans-35" x="95.410156"/>
      </g>
     </g>
    </g>
    <g id="text_19">
     <!-- Avg. Power [mW/nm] -->
     <g transform="translate(24.273438 248.264844) rotate(-90) scale(0.18 -0.18)">
      <defs>
       <path id="DejaVuSans-41" d="M 2188 4044 
L 1331 1722 
L 3047 1722 
L 2188 4044 
z
M 1831 4666 
L 2547 4666 
L 4325 0 
L 3669 0 
L 3244 1197 
L 1141 1197 
L 716 0 
L 50 0 
L 1831 4666 
z
" transform="scale(0.015625)"/>
       <path id="DejaVuSans-50" d="M 1259 4147 
L 1259 2394 
L 2053 2394 
Q 2494 2394 2734 2622 
Q 2975 2850 2975 3272 
Q 2975 3691 2734 3919 
Q 2494 4147 2053 4147 
L 1259 4147 
z
M 628 4666 
L 2053 4666 
Q 2838 4666 3239 4311 
Q 3641 3956 3641 3272 
Q 3641 2581 3239 2228 
Q 2838 1875 2053 1875 
L 1259 1875 
L 1259 0 
L 628 0 
L 628 4666 
z
" transform="scale(0.015625)"/>
       <path id="DejaVuSans-6f" d="M 1959 3097 
Q 1497 3097 1228 2736 
Q 959 2375 959 1747 
Q 959 1119 1226 758 
Q 1494 397 1959 397 
Q 2419 397 2687 759 
Q 2956 1122 2956 1747 
Q 2956 2369 2687 2733 
Q 2419 3097 1959 3097 
z
M 1959 3584 
Q 2709 3584 3137 3096 
Q 3566 2609 3566 1747 
Q 3566 888 3137 398 
Q 2709 -91 1959 -91 
Q 1206 -91 779 398 
Q 353 888 353 1747 
Q 353 2609 779 3096 
Q 1206 3584 1959 3584 
z
" transform="scale(0.015625)"/>
       <path id="DejaVuSans-77" d="M 269 3500 
L 844 3500 
L 1563 769 
L 2278 3500 
L 2956 3500 
L 3675 769 
L 4391 3500 
L 4966 3500 
L 4050 0 
L 3372 0 
L 2619 2869 
L 1863 0 
L 1184 0 
L 269 3500 
z
" transform="scale(0.015625)"/>
       <path id="DejaVuSans-72" d="M 2631 2963 
Q 2534 3019 2420 3045 
Q 2306 3072 2169 3072 
Q 1681 3072 1420 2755 
Q 1159 2438 1159 1844 
L 1159 0 
L 581 0 
L 581 3500 
L 1159 3500 
L 1159 2956 
Q 1341 3275 1631 3429 
Q 1922 3584 2338 3584 
Q 2397 3584 2469 3576 
Q 2541 3569 2628 3553 
L 2631 2963 
z
" transform="scale(0.015625)"/>
       <path id="DejaVuSans-2f" d="M 1625 4666 
L 2156 4666 
L 531 -594 
L 0 -594 
L 1625 4666 
z
" transform="scale(0.015625)"/>
      </defs>
      <use xlink:href="#DejaVuSans-41"/>
      <use xlink:href="#DejaVuSans-76" x="62.533203"/>
      <use xlink:href="#DejaVuSans-67" x="121.712891"/>
      <use xlink:href="#DejaVuSans-2e" x="185.189453"/>
      <use xlink:href="#DejaVuSans-20" x="216.976562"/>
      <use xlink:href="#DejaVuSans-50" x="248.763672"/>
      <use xlink:href="#DejaVuSans-6f" x="305.441406"/>
      <use xlink:href="#DejaVuSans-77" x="366.623047"/>
      <use xlink:href="#DejaVuSans-65" x="448.410156"/>
      <use xlink:href="#DejaVuSans-72" x="509.933594"/>
      <use xlink:href="#DejaVuSans-20" x="551.046875"/>
      <use xlink:href="#DejaVuSans-5b" x="582.833984"/>
      <use xlink:href="#DejaVuSans-6d" x="621.847656"/>
      <use xlink:href="#DejaVuSans-57" x="719.259766"/>
      <use xlink:href="#DejaVuSans-2f" x="818.136719"/>
      <use xlink:href="#DejaVuSans-6e" x="851.828125"/>
      <use xlink:href="#DejaVuSans-6d" x="915.207031"/>
      <use xlink:href="#DejaVuSans-5d" x="1012.619141"/>
     </g>
    </g>
   </g>
   <g id="line2d_18">
    <path d="M 72.878182 274.492545 
L 75.640979 277.191618 
L 76.561911 277.972454 
L 79.324709 279.686031 
L 81.166573 280.49711 
L 83.929371 281.317125 
L 85.771235 281.686235 
L 89.454965 282.050533 
L 104.189883 282.841679 
L 114.32014 283.207896 
L 122.608531 283.443785 
L 127.213193 283.414452 
L 132.738788 283.162708 
L 135.501585 282.949783 
L 138.264382 282.747076 
L 143.789977 282.130438 
L 144.710909 282.154667 
L 145.631841 281.988155 
L 147.473706 281.795524 
L 149.315571 281.582959 
L 151.157436 281.359225 
L 152.078368 281.102326 
L 152.999301 281.092531 
L 156.68303 280.16168 
L 158.524895 279.507318 
L 159.445828 279.353866 
L 162.208625 277.160515 
L 163.129557 276.66751 
L 164.05049 275.935362 
L 164.971422 275.423912 
L 165.892354 274.702532 
L 167.734219 271.364105 
L 168.655152 270.268403 
L 169.576084 267.653875 
L 170.497016 265.650234 
L 171.417949 263.069788 
L 172.338881 259.578023 
L 173.259814 257.281683 
L 174.180746 252.263989 
L 175.101678 252.01826 
L 176.943543 244.82394 
L 177.864476 242.362635 
L 178.785408 237.195442 
L 179.70634 235.815003 
L 180.627273 233.036942 
L 181.548205 233.808498 
L 182.469138 232.686391 
L 183.39007 232.200087 
L 186.152867 237.621602 
L 187.0738 239.551352 
L 187.994732 244.402935 
L 188.915664 246.486767 
L 189.836597 247.193025 
L 190.757529 249.99228 
L 192.599394 253.978941 
L 193.520326 254.740187 
L 194.441259 255.353651 
L 195.362191 257.896866 
L 196.283124 258.070423 
L 197.204056 258.859164 
L 198.124988 258.732003 
L 199.045921 259.618691 
L 199.966853 259.477783 
L 200.887786 259.202841 
L 202.72965 260.024231 
L 204.571515 259.937739 
L 205.492448 260.065472 
L 206.41338 259.06537 
L 207.334312 260.367909 
L 208.255245 260.78204 
L 209.176177 260.754546 
L 212.859907 259.067089 
L 213.780839 258.786991 
L 214.701772 259.099165 
L 215.622704 257.965602 
L 216.543636 258.790428 
L 218.385501 257.759395 
L 219.306434 257.954146 
L 220.227366 258.034337 
L 221.148298 257.704407 
L 222.069231 257.828131 
L 222.990163 257.281683 
L 223.911096 257.965602 
L 224.832028 256.865833 
L 225.75296 257.003304 
L 226.673893 257.638535 
L 227.594825 258.034337 
L 228.515758 257.69066 
L 229.43669 257.140775 
L 230.357622 257.484453 
L 231.278555 257.07204 
L 232.199487 255.972271 
L 233.12042 257.496482 
L 234.041352 256.590891 
L 234.962284 256.315949 
L 235.883217 256.659627 
L 236.804149 255.657806 
L 237.725082 255.284916 
L 238.646014 256.247213 
L 239.566946 255.766065 
L 240.487879 255.501433 
L 241.408811 254.597561 
L 242.329744 254.253883 
L 243.250676 254.666296 
L 244.171608 254.929209 
L 245.092541 255.075273 
L 246.013473 253.978941 
L 246.934406 254.446342 
L 247.855338 254.190302 
L 248.77627 254.666296 
L 249.697203 253.566528 
L 250.618135 253.942282 
L 251.539068 253.992115 
L 254.301865 253.154114 
L 255.222797 252.176351 
L 256.14373 252.466759 
L 257.064662 252.879172 
L 258.906527 251.987329 
L 260.748392 251.641933 
L 261.669324 250.731187 
L 262.590256 250.368607 
L 263.511189 251.50618 
L 264.432121 250.207078 
L 265.353054 249.935573 
L 266.273986 248.95781 
L 267.194918 248.823776 
L 268.115851 249.37366 
L 269.036783 249.191511 
L 269.957716 249.442395 
L 270.878648 249.029982 
L 271.79958 248.75504 
L 272.720513 248.617569 
L 273.641445 248.60554 
L 274.562378 247.626632 
L 275.48331 249.029982 
L 277.325175 248.13642 
L 278.246107 246.967916 
L 279.16704 246.967916 
L 280.087972 247.792743 
L 281.008904 247.655272 
L 281.929837 246.271969 
L 282.850769 247.586536 
L 283.771702 247.882099 
L 284.692634 245.730677 
L 285.613566 246.278842 
L 286.534499 247.105387 
L 287.455431 244.974586 
L 288.376364 246.14309 
L 289.297296 244.974586 
L 290.218228 244.149759 
L 291.139161 243.737346 
L 292.060093 245.249528 
L 292.981026 243.393668 
L 293.901958 244.837115 
L 294.82289 243.324933 
L 295.743823 244.634345 
L 296.664755 242.91252 
L 297.585688 243.390232 
L 298.50662 243.118726 
L 299.427552 242.98641 
L 300.348485 245.318263 
L 301.269417 242.775049 
L 302.19035 243.122163 
L 303.111282 242.087693 
L 304.032214 242.568842 
L 304.953147 242.087693 
L 305.874079 240.781718 
L 306.795012 240.094363 
L 307.715944 241.537809 
L 308.636876 239.613214 
L 309.557809 240.919189 
L 310.478741 240.163098 
L 311.399674 240.43804 
L 312.320606 240.085771 
L 313.241538 240.575512 
L 314.162471 239.956892 
L 315.083403 240.369305 
L 316.004336 238.571871 
L 317.8462 237.214344 
L 318.767133 237.82609 
L 319.688065 239.693978 
L 320.608998 238.307239 
L 321.52993 236.499494 
L 322.450862 237.001264 
L 323.371795 236.451379 
L 324.292727 235.626553 
L 325.21366 237.276206 
L 326.134592 236.932528 
L 327.055524 237.49616 
L 327.976457 238.238503 
L 328.897389 235.595622 
L 329.818322 234.801727 
L 330.739254 235.100726 
L 331.660186 235.617961 
L 332.581119 235.21414 
L 333.502051 236.107702 
L 334.422984 234.73471 
L 335.343916 234.621296 
L 336.264848 235.145404 
L 337.185781 237.823513 
L 338.106713 235.970231 
L 339.027646 236.657586 
L 339.948578 238.786669 
L 340.86951 237.757355 
L 341.790443 239.750685 
L 342.711375 235.989133 
L 343.632308 234.918577 
L 344.55324 236.659304 
L 345.474172 237.183413 
L 346.395105 237.001264 
L 347.316037 235.970231 
L 348.23697 238.238503 
L 349.157902 237.760791 
L 350.078834 237.069999 
L 350.999767 237.755636 
L 351.920699 237.001264 
L 352.841632 237.896544 
L 353.762564 238.169768 
L 354.683497 239.331398 
L 355.604429 238.272871 
L 356.525361 238.857123 
L 357.446294 237.318593 
L 358.367226 241.125396 
L 359.288159 238.650917 
L 360.209091 238.948198 
L 361.130023 241.194131 
L 362.050956 241.125396 
L 362.971888 239.932834 
L 363.892821 242.637578 
L 364.813753 239.888156 
L 365.734685 243.049991 
L 366.655618 241.744016 
L 367.57655 242.706313 
L 368.497483 242.845503 
L 369.418415 242.827173 
L 370.339347 242.314521 
L 372.181212 243.603999 
L 373.102145 243.393668 
L 374.023077 243.393668 
L 374.944009 242.594045 
L 375.864942 244.424701 
L 376.785874 245.249528 
L 377.706807 245.101746 
L 378.627739 245.67397 
L 379.548671 245.350913 
L 380.469604 246.549775 
L 381.390536 245.661941 
L 383.232401 245.734113 
L 384.153333 244.630908 
L 385.074266 245.180792 
L 385.995198 246.899181 
L 387.837063 248.892511 
L 388.757995 246.624239 
L 389.678928 248.411362 
L 390.59986 247.242858 
L 391.520793 248.892511 
L 392.441725 248.13642 
L 393.362657 245.982707 
L 394.28359 247.861478 
L 395.204522 249.029982 
L 396.125455 247.998949 
L 397.046387 248.686305 
L 397.967319 249.591895 
L 398.888252 249.786073 
L 399.809184 249.37366 
L 400.730117 249.742541 
L 402.571981 252.831057 
L 403.492914 252.60423 
L 404.413846 251.162502 
L 405.334779 251.573197 
L 406.255711 252.672966 
L 407.176643 252.697023 
L 408.097576 253.154114 
L 409.018508 253.016643 
L 409.939441 253.596886 
L 410.860373 253.147241 
L 411.781305 254.116412 
L 412.702238 254.059132 
L 413.62317 252.891201 
L 414.544103 254.803767 
L 415.465035 253.961757 
L 416.385967 254.870784 
L 417.3069 255.612269 
L 418.227832 254.803767 
L 419.148765 254.563193 
L 420.069697 256.181915 
L 420.990629 255.284916 
L 421.911562 256.178478 
L 422.832494 256.247213 
L 423.753427 254.872503 
L 424.674359 255.21618 
L 425.595291 256.247213 
L 426.516224 256.211127 
L 428.358089 255.21618 
L 429.279021 256.551368 
L 430.199953 256.797098 
L 431.120886 256.590891 
L 432.041818 255.345059 
L 432.041818 255.345059 
" clip-path="url(#p43d45b1276)" style="fill: none; stroke: #1f77b4; stroke-width: 1.5; stroke-linecap: square"/>
   </g>
   <g id="line2d_19">
    <path d="M 72.878182 264.185996 
L 73.799114 265.938924 
L 74.720047 268.069725 
L 76.561911 270.922594 
L 79.324709 274.315036 
L 82.087506 276.874404 
L 83.008438 277.676547 
L 85.771235 279.459203 
L 87.6131 280.176115 
L 90.375897 280.723937 
L 101.427086 282.023039 
L 107.873613 282.310113 
L 110.63641 282.304648 
L 112.478275 282.152433 
L 114.32014 281.856355 
L 118.003869 280.806076 
L 118.924802 280.404145 
L 120.766667 279.786728 
L 122.608531 279.064661 
L 123.529464 278.375759 
L 126.292261 277.287676 
L 127.213193 276.697066 
L 129.055058 275.720592 
L 129.975991 275.22286 
L 131.817855 274.664728 
L 132.738788 274.321394 
L 134.580653 272.757489 
L 137.34345 272.943762 
L 139.185315 271.778007 
L 140.106247 272.232693 
L 141.027179 271.461137 
L 141.948112 270.965038 
L 142.869044 269.788114 
L 143.789977 269.660953 
L 144.710909 270.287134 
L 145.631841 269.499081 
L 146.552774 269.655798 
L 148.394639 268.275932 
L 149.315571 268.214643 
L 150.236503 267.863519 
L 151.157436 267.342274 
L 152.078368 266.14513 
L 152.999301 266.500837 
L 153.920233 265.588945 
L 154.841166 265.255005 
L 155.762098 263.857955 
L 156.68303 262.845825 
L 157.603963 261.41183 
L 158.524895 260.388529 
L 159.445828 260.090103 
L 160.36676 257.350419 
L 161.287692 255.004819 
L 162.208625 252.250242 
L 163.129557 250.810233 
L 164.05049 248.615851 
L 164.971422 247.327059 
L 165.892354 245.249528 
L 167.734219 235.337864 
L 168.655152 232.609063 
L 169.576084 224.982856 
L 170.497016 220.149029 
L 171.417949 214.068798 
L 172.338881 205.481725 
L 173.259814 201.575829 
L 174.180746 191.216524 
L 175.101678 192.415959 
L 176.943543 181.449778 
L 177.864476 179.230766 
L 178.785408 171.953391 
L 179.70634 171.123982 
L 180.627273 168.375706 
L 181.548205 173.257648 
L 182.469138 173.487912 
L 183.39007 174.920475 
L 184.311002 180.738938 
L 187.0738 193.859406 
L 187.994732 203.532214 
L 188.915664 207.20441 
L 189.836597 208.098544 
L 190.757529 212.940963 
L 192.599394 219.968598 
L 193.520326 221.177771 
L 194.441259 222.10971 
L 195.362191 227.306117 
L 196.283124 227.554137 
L 197.204056 229.195771 
L 198.124988 229.021068 
L 199.045921 230.83225 
L 199.966853 230.466233 
L 200.887786 229.921504 
L 201.808718 230.928479 
L 202.72965 231.707768 
L 204.571515 231.581467 
L 205.492448 231.880466 
L 206.41338 229.764558 
L 207.334312 232.490494 
L 208.255245 233.389211 
L 209.176177 233.423579 
L 211.018042 231.505858 
L 213.780839 229.06861 
L 214.701772 229.71186 
L 215.622704 227.153466 
L 216.543636 228.905936 
L 218.385501 226.579811 
L 220.227366 227.087881 
L 221.148298 226.249308 
L 222.069231 226.361862 
L 222.990163 225.101424 
L 223.911096 226.483009 
L 224.832028 223.87965 
L 225.75296 224.147719 
L 226.673893 225.453694 
L 227.594825 226.271647 
L 228.515758 225.386677 
L 229.43669 224.08242 
L 230.357622 224.766339 
L 231.278555 223.702656 
L 232.199487 221.25739 
L 233.12042 224.580753 
L 234.041352 222.501503 
L 234.962284 221.814147 
L 235.883217 222.563365 
L 236.804149 220.381012 
L 237.725082 219.54072 
L 238.646014 221.680113 
L 239.566946 220.710942 
L 240.487879 220.228075 
L 241.408811 218.23904 
L 242.329744 217.604096 
L 243.250676 218.648876 
L 244.171608 219.320766 
L 245.092541 219.748645 
L 246.013473 217.547389 
L 246.934406 218.717612 
L 247.855338 218.349877 
L 248.77627 219.539001 
L 249.697203 217.282757 
L 250.618135 218.245055 
L 251.539068 218.518279 
L 253.380932 217.411636 
L 254.301865 217.136694 
L 255.222797 215.145082 
L 256.14373 215.971627 
L 257.064662 217.040465 
L 258.906527 215.402268 
L 259.827459 215.060881 
L 260.748392 214.937157 
L 261.669324 213.081298 
L 262.590256 212.589839 
L 263.511189 215.077034 
L 264.432121 212.491031 
L 265.353054 212.053702 
L 266.273986 210.065183 
L 267.194918 209.988199 
L 268.115851 211.294174 
L 269.036783 211.019232 
L 269.957716 211.637852 
L 270.878648 210.955651 
L 271.79958 210.479658 
L 272.720513 210.328153 
L 273.641445 210.40233 
L 274.562378 208.476017 
L 275.48331 211.549526 
L 277.325175 209.850728 
L 278.246107 207.512001 
L 279.16704 207.439829 
L 280.087972 209.194017 
L 281.008904 208.88843 
L 281.929837 205.971752 
L 282.850769 208.682224 
L 283.771702 209.232108 
L 284.692634 204.668068 
L 285.613566 205.724877 
L 286.534499 207.430091 
L 287.455431 202.839703 
L 288.376364 205.107976 
L 289.297296 202.553592 
L 290.218228 200.715775 
L 291.139161 199.746604 
L 292.060093 202.702232 
L 292.981026 198.612468 
L 293.901958 201.507952 
L 294.82289 198.279101 
L 295.743823 200.839499 
L 296.664755 196.928447 
L 297.585688 197.763584 
L 298.50662 197.134654 
L 299.427552 196.756608 
L 300.348485 201.525136 
L 301.269417 196.034885 
L 302.19035 196.603099 
L 303.111282 194.316497 
L 304.032214 195.210059 
L 304.953147 194.11029 
L 305.874079 191.209651 
L 306.795012 189.690596 
L 307.715944 192.73558 
L 308.636876 188.56677 
L 309.557809 191.360869 
L 310.478741 189.763913 
L 311.399674 190.284585 
L 312.320606 189.642481 
L 313.241538 190.810985 
L 314.162471 189.527349 
L 315.083403 190.587594 
L 316.004336 186.886758 
L 317.8462 184.41858 
L 318.767133 185.862026 
L 319.688065 189.950645 
L 320.608998 187.235019 
L 321.52993 183.79996 
L 322.450862 185.174671 
L 323.371795 184.279963 
L 324.292727 182.95795 
L 325.21366 186.618117 
L 326.134592 186.343175 
L 327.055524 187.786621 
L 327.976457 189.651073 
L 328.897389 184.624787 
L 329.818322 183.396139 
L 330.739254 184.41858 
L 331.660186 185.808756 
L 332.581119 185.511819 
L 333.502051 187.642277 
L 334.422984 185.276629 
L 335.343916 185.449613 
L 336.264848 186.951484 
L 337.185781 192.592953 
L 338.106713 189.41909 
L 339.027646 191.154662 
L 339.948578 195.622472 
L 340.86951 194.041555 
L 341.790443 198.480725 
L 342.711375 191.494903 
L 343.632308 189.779952 
L 344.55324 193.560406 
L 345.474172 194.847479 
L 346.395105 194.869818 
L 347.316037 193.213292 
L 348.23697 197.684538 
L 349.157902 197.203389 
L 350.078834 196.172356 
L 350.999767 197.493797 
L 351.920699 196.369971 
L 352.841632 198.234422 
L 353.762564 198.854761 
L 354.683497 201.052579 
L 355.604429 199.193283 
L 356.525361 200.296488 
L 357.446294 197.478332 
L 358.367226 204.558092 
L 359.288159 200.021546 
L 360.209091 200.541645 
L 361.130023 204.626827 
L 362.050956 204.421308 
L 362.971888 202.081321 
L 363.892821 206.994766 
L 364.813753 201.746808 
L 365.734685 207.51372 
L 366.655618 205.085064 
L 367.57655 206.653953 
L 368.497483 206.826364 
L 369.418415 206.549704 
L 370.339347 205.437906 
L 371.26028 206.297101 
L 372.181212 207.51372 
L 373.102145 206.884789 
L 374.023077 206.552568 
L 374.944009 204.900624 
L 375.864942 208.135776 
L 376.785874 209.402228 
L 377.706807 208.88843 
L 378.627739 209.850728 
L 379.548671 208.88843 
L 380.469604 210.821617 
L 381.390536 209.089482 
L 382.311469 208.953729 
L 383.232401 208.697116 
L 384.153333 206.345215 
L 385.074266 207.209565 
L 385.995198 210.355361 
L 387.837063 214.043595 
L 388.757995 209.232108 
L 389.678928 212.668885 
L 390.59986 210.1503 
L 391.520793 213.287504 
L 392.441725 211.622386 
L 393.362657 207.099588 
L 394.28359 210.813025 
L 395.204522 212.990796 
L 396.125455 210.679564 
L 397.046387 211.8853 
L 397.967319 213.631182 
L 398.888252 213.847699 
L 399.809184 212.852752 
L 400.730117 213.43815 
L 401.651049 216.653827 
L 402.571981 219.404967 
L 403.492914 218.722767 
L 404.413846 215.693248 
L 405.334779 216.37373 
L 406.255711 218.511405 
L 407.176643 218.50625 
L 408.097576 219.281529 
L 409.018508 218.921527 
L 409.939441 220.023587 
L 410.860373 218.967637 
L 411.781305 220.992185 
L 412.702238 220.920586 
L 413.62317 218.376225 
L 414.544103 222.294151 
L 415.465035 220.510463 
L 416.385967 222.434486 
L 417.3069 223.96557 
L 418.227832 222.255773 
L 419.148765 221.827207 
L 420.069697 225.237177 
L 420.990629 223.376162 
L 421.911562 225.230304 
L 422.832494 225.384958 
L 423.753427 222.587422 
L 424.674359 223.202605 
L 425.595291 225.453694 
L 426.516224 225.429637 
L 428.358089 223.386473 
L 429.279021 226.126157 
L 430.199953 226.499333 
L 431.120886 226.002433 
L 432.041818 223.353823 
L 432.041818 223.353823 
" clip-path="url(#p43d45b1276)" style="fill: none; stroke: #ff7f0e; stroke-width: 1.5; stroke-linecap: square"/>
   </g>
   <g id="line2d_20">
    <path d="M 72.878182 256.45342 
L 74.720047 260.715023 
L 76.561911 263.876858 
L 82.087506 271.437766 
L 84.850303 275.63029 
L 85.771235 276.737276 
L 87.6131 278.415626 
L 89.454965 279.3561 
L 94.059627 280.256535 
L 97.743357 280.80642 
L 99.585221 280.826697 
L 101.427086 280.576499 
L 103.268951 279.913889 
L 105.110816 278.725108 
L 107.873613 275.992183 
L 108.794545 274.174815 
L 109.715478 272.783093 
L 110.63641 270.729275 
L 111.557343 269.14515 
L 112.478275 266.584179 
L 115.241072 260.04657 
L 116.162005 258.939928 
L 117.082937 257.237578 
L 118.003869 256.104587 
L 118.924802 254.58725 
L 119.845734 254.729876 
L 120.766667 254.716129 
L 121.687599 253.847198 
L 122.608531 253.392111 
L 123.529464 250.517419 
L 124.450396 251.578925 
L 125.371329 252.249669 
L 126.292261 252.196399 
L 127.213193 251.018158 
L 129.055058 249.596478 
L 129.975991 249.354185 
L 130.896923 249.863401 
L 131.817855 249.809558 
L 132.738788 249.535188 
L 134.580653 246.454118 
L 135.501585 246.936985 
L 137.34345 249.431226 
L 138.264382 248.474943 
L 139.185315 247.153502 
L 140.106247 249.200103 
L 141.027179 247.49718 
L 141.948112 246.71474 
L 142.869044 243.936679 
L 143.789977 243.771141 
L 144.710909 246.243902 
L 145.631841 244.886948 
L 146.552774 245.558838 
L 148.394639 242.962926 
L 149.315571 243.476151 
L 150.236503 242.945169 
L 151.157436 242.081393 
L 152.078368 239.719754 
L 152.999301 241.164919 
L 153.920233 239.636126 
L 154.841166 239.409012 
L 155.762098 236.842599 
L 156.68303 235.357625 
L 157.603963 232.81527 
L 158.524895 231.331728 
L 159.445828 231.469485 
L 160.36676 226.991079 
L 162.208625 219.186732 
L 163.129557 217.489823 
L 164.05049 214.742979 
L 164.971422 213.819632 
L 165.892354 211.368924 
L 167.734219 198.741347 
L 168.655152 196.468328 
L 169.576084 187.221271 
L 170.497016 182.647494 
L 171.417949 176.947027 
L 172.338881 167.723864 
L 173.259814 165.921848 
L 174.180746 156.325222 
L 175.101678 159.850782 
L 176.943543 152.265243 
L 177.864476 152.799661 
L 178.785408 146.570504 
L 179.70634 146.590552 
L 180.627273 144.596075 
L 181.548205 151.850538 
L 182.469138 152.41016 
L 183.39007 153.690932 
L 184.311002 159.837321 
L 186.152867 168.211314 
L 187.0738 171.44028 
L 187.994732 181.316889 
L 188.915664 184.265643 
L 189.836597 183.948314 
L 190.757529 188.321613 
L 192.599394 195.039938 
L 193.520326 195.637365 
L 194.441259 195.931553 
L 195.362191 202.403233 
L 196.283124 202.029769 
L 197.204056 203.830354 
L 198.124988 203.075122 
L 199.045921 205.360579 
L 200.887786 203.110636 
L 201.808718 204.22902 
L 202.72965 205.095947 
L 203.650583 204.495886 
L 204.571515 204.087253 
L 205.492448 204.216132 
L 206.41338 200.70031 
L 207.334312 204.515705 
L 208.255245 205.54731 
L 209.176177 205.223108 
L 211.938974 199.895531 
L 213.780839 196.809306 
L 214.701772 197.616948 
L 215.622704 193.402314 
L 216.543636 195.987916 
L 218.385501 191.988081 
L 219.306434 192.403358 
L 220.227366 192.657679 
L 221.148298 191.346263 
L 222.069231 191.611181 
L 222.990163 189.613268 
L 223.911096 191.952567 
L 224.832028 187.988102 
L 225.75296 188.542712 
L 226.673893 190.830345 
L 227.594825 192.17023 
L 228.515758 191.057287 
L 229.43669 189.293648 
L 230.357622 190.697571 
L 231.278555 189.325724 
L 232.199487 185.900404 
L 233.12042 191.390654 
L 234.041352 188.611448 
L 234.962284 187.941276 
L 235.883217 189.50501 
L 236.804149 186.685134 
L 237.725082 185.722837 
L 238.646014 189.360665 
L 239.566946 188.336505 
L 240.487879 188.130299 
L 241.408811 185.5278 
L 242.329744 185.10479 
L 243.250676 187.102989 
L 244.171608 188.564707 
L 245.092541 189.642481 
L 246.013473 186.824324 
L 246.934406 189.037952 
L 247.855338 188.805625 
L 248.77627 190.943873 
L 249.697203 188.05469 
L 250.618135 189.72439 
L 251.539068 190.340719 
L 253.380932 189.023861 
L 254.301865 188.633214 
L 255.222797 185.761787 
L 256.14373 186.810577 
L 257.064662 188.135454 
L 258.906527 185.243406 
L 259.827459 184.415143 
L 260.748392 183.980391 
L 261.669324 180.913068 
L 262.590256 179.741127 
L 263.511189 183.069072 
L 264.432121 178.855584 
L 265.353054 177.934528 
L 266.273986 174.659853 
L 267.194918 174.176985 
L 268.115851 175.618713 
L 269.036783 174.933076 
L 269.957716 175.482961 
L 270.878648 174.182713 
L 271.79958 173.273686 
L 272.720513 172.758456 
L 273.641445 172.802275 
L 274.562378 169.780775 
L 275.48331 174.274934 
L 277.325175 171.552147 
L 278.246107 167.990787 
L 279.16704 167.922052 
L 280.087972 170.597582 
L 281.008904 170.121589 
L 281.929837 165.653779 
L 282.850769 169.776193 
L 283.771702 170.602738 
L 284.692634 163.727466 
L 285.613566 165.43772 
L 286.534499 168.08759 
L 287.455431 161.306257 
L 288.376364 164.822079 
L 289.297296 161.048498 
L 290.218228 158.595556 
L 291.139161 157.405515 
L 292.060093 162.151704 
L 292.981026 156.377346 
L 293.901958 160.979763 
L 294.82289 156.511953 
L 295.743823 160.754654 
L 296.664755 155.616673 
L 297.585688 157.33678 
L 298.50662 156.924366 
L 299.427552 156.759401 
L 300.348485 164.17081 
L 301.269417 156.998944 
L 302.19035 158.478362 
L 303.111282 156.073764 
L 304.032214 157.815637 
L 304.953147 156.896872 
L 305.874079 153.477279 
L 306.795012 152.09054 
L 307.715944 156.975918 
L 308.636876 152.157843 
L 309.557809 156.616775 
L 310.478741 155.005786 
L 311.399674 156.657157 
L 312.320606 156.246462 
L 313.241538 158.526477 
L 314.162471 157.355682 
L 315.083403 159.268248 
L 316.004336 154.793565 
L 316.925268 153.486444 
L 317.8462 152.387821 
L 318.767133 154.498002 
L 319.688065 160.190163 
L 320.608998 156.651143 
L 321.52993 152.404146 
L 322.450862 154.251127 
L 323.371795 153.087491 
L 324.292727 151.226191 
L 325.21366 155.977534 
L 326.134592 155.391564 
L 327.055524 157.118544 
L 327.976457 159.256219 
L 328.897389 152.210827 
L 329.818322 150.231244 
L 330.739254 151.035449 
L 331.660186 152.348585 
L 332.581119 151.357934 
L 333.502051 153.833558 
L 334.422984 150.049094 
L 335.343916 149.639087 
L 336.264848 151.01311 
L 337.185781 158.07225 
L 338.106713 152.946297 
L 339.027646 154.709364 
L 339.948578 160.429879 
L 340.86951 157.585946 
L 341.790443 163.041829 
L 342.711375 152.581426 
L 343.632308 149.325653 
L 344.55324 154.106209 
L 345.474172 155.231181 
L 346.395105 154.573611 
L 347.316037 151.627434 
L 348.23697 157.657545 
L 349.157902 156.142843 
L 350.078834 153.846733 
L 350.999767 155.334857 
L 351.920699 152.827156 
L 352.841632 155.056478 
L 353.762564 155.553092 
L 354.683497 158.398171 
L 355.604429 155.128364 
L 356.525361 155.82918 
L 357.446294 151.117932 
L 358.367226 161.333751 
L 359.288159 153.838141 
L 360.209091 154.114801 
L 361.130023 160.026057 
L 362.050956 159.287723 
L 362.971888 154.994616 
L 363.892821 162.325261 
L 364.813753 153.771696 
L 365.734685 162.579869 
L 366.655618 158.330695 
L 367.57655 160.52038 
L 368.497483 160.565631 
L 369.418415 159.841617 
L 370.339347 157.841699 
L 371.26028 159.065478 
L 372.181212 160.849165 
L 373.102145 159.699907 
L 374.023077 159.090681 
L 374.944009 156.305746 
L 375.864942 161.393894 
L 376.785874 163.383788 
L 377.706807 162.505692 
L 378.627739 164.094628 
L 379.548671 162.45414 
L 380.469604 165.629722 
L 381.390536 162.772901 
L 382.311469 162.631134 
L 383.232401 162.320679 
L 384.153333 158.583184 
L 385.074266 160.086201 
L 385.995198 165.167475 
L 387.837063 171.286656 
L 388.757995 163.681069 
L 389.678928 169.433546 
L 390.59986 165.564423 
L 391.520793 170.669755 
L 392.441725 168.074988 
L 393.362657 161.09604 
L 394.28359 167.128156 
L 395.204522 170.870806 
L 396.125455 167.392444 
L 397.046387 169.448553 
L 397.967319 172.396735 
L 398.888252 172.862418 
L 399.809184 171.475679 
L 400.730117 172.782513 
L 401.651049 177.897296 
L 402.571981 182.295225 
L 403.492914 181.437749 
L 404.413846 176.82823 
L 405.334779 178.10694 
L 406.255711 181.537988 
L 407.176643 181.728729 
L 408.097576 183.136662 
L 409.018508 182.672697 
L 409.939441 184.550037 
L 410.860373 183.16072 
L 411.781305 186.570575 
L 412.702238 186.624991 
L 413.62317 182.832508 
L 414.544103 189.061665 
L 415.465035 186.515014 
L 416.385967 189.670834 
L 417.3069 192.285362 
L 418.227832 189.970693 
L 419.148765 189.302813 
L 420.069697 194.714304 
L 420.990629 191.912472 
L 421.911562 194.845761 
L 422.832494 195.210059 
L 423.753427 190.916494 
L 424.674359 191.948558 
L 425.595291 195.253305 
L 426.516224 195.225524 
L 428.358089 191.905025 
L 429.279021 196.024575 
L 430.199953 196.328157 
L 431.120886 195.510777 
L 432.041818 191.142634 
L 432.041818 191.142634 
" clip-path="url(#p43d45b1276)" style="fill: none; stroke: #2ca02c; stroke-width: 1.5; stroke-linecap: square"/>
   </g>
   <g id="line2d_21">
    <path d="M 72.878182 248.480098 
L 74.720047 252.329288 
L 76.561911 254.941238 
L 78.403776 256.950607 
L 80.245641 259.68399 
L 81.166573 261.543286 
L 83.008438 266.213866 
L 83.929371 268.413403 
L 84.850303 271.129831 
L 85.771235 273.197396 
L 87.6131 276.201139 
L 88.534033 277.005345 
L 89.454965 277.611592 
L 90.375897 277.73102 
L 94.059627 277.376517 
L 95.901492 276.813057 
L 96.822424 276.385522 
L 99.585221 274.016896 
L 100.506154 272.74924 
L 101.427086 271.714771 
L 103.268951 268.520516 
L 104.189883 265.99964 
L 105.110816 264.220535 
L 106.031748 261.349395 
L 106.952681 259.752726 
L 107.873613 256.478623 
L 108.794545 252.142556 
L 109.715478 249.795238 
L 110.63641 244.921316 
L 111.557343 242.512937 
L 113.399207 233.607447 
L 115.241072 227.120531 
L 118.924802 221.371662 
L 119.845734 223.134443 
L 120.766667 223.967288 
L 121.687599 223.004991 
L 122.608531 222.991816 
L 123.529464 217.818895 
L 124.450396 221.320397 
L 125.371329 223.764518 
L 126.292261 224.443282 
L 127.213193 222.927663 
L 129.055058 221.635435 
L 129.975991 222.168135 
L 130.896923 223.9123 
L 131.817855 224.368532 
L 132.738788 224.668963 
L 133.65972 222.801075 
L 134.580653 220.497862 
L 135.501585 222.073968 
L 137.34345 227.339912 
L 138.264382 226.422292 
L 139.185315 224.771494 
L 140.106247 228.309083 
L 141.027179 226.064295 
L 141.948112 225.286438 
L 142.869044 221.465028 
L 143.789977 221.744266 
L 144.710909 225.955463 
L 145.631841 224.016549 
L 146.552774 225.612645 
L 148.394639 222.524701 
L 149.315571 223.43917 
L 150.236503 222.922508 
L 151.157436 221.91496 
L 152.078368 219.005155 
L 152.999301 221.590757 
L 153.920233 219.690792 
L 154.841166 219.752368 
L 155.762098 216.466523 
L 156.68303 214.960642 
L 157.603963 211.8853 
L 158.524895 210.535505 
L 159.445828 211.363769 
L 160.36676 206.226647 
L 162.208625 198.010459 
L 163.129557 196.724818 
L 164.05049 194.429624 
L 164.971422 194.3775 
L 165.892354 192.367845 
L 166.813287 186.805078 
L 167.734219 180.318505 
L 168.655152 178.979308 
L 169.576084 169.516143 
L 170.497016 165.607955 
L 171.417949 160.497468 
L 172.338881 150.801749 
L 173.259814 149.828568 
L 174.180746 139.750793 
L 175.101678 144.169342 
L 176.022611 140.294663 
L 176.943543 135.89473 
L 177.864476 136.28194 
L 178.785408 128.471292 
L 179.70634 127.971814 
L 180.627273 124.473175 
L 181.548205 131.741385 
L 182.469138 130.740137 
L 183.39007 130.210301 
L 184.311002 134.909234 
L 186.152867 141.116053 
L 187.0738 142.733342 
L 187.994732 152.581999 
L 188.915664 154.575329 
L 189.836597 152.233084 
L 190.757529 155.667652 
L 191.678462 158.370104 
L 192.599394 161.520769 
L 194.441259 160.173266 
L 195.362191 167.946682 
L 196.283124 166.741233 
L 197.204056 168.66726 
L 198.124988 167.155078 
L 199.045921 169.994428 
L 200.887786 166.230585 
L 201.808718 167.733602 
L 202.72965 168.954803 
L 203.650583 168.124822 
L 204.571515 167.616751 
L 205.492448 167.877374 
L 206.41338 163.033237 
L 207.334312 168.802439 
L 208.255245 170.673192 
L 209.176177 170.592427 
L 211.018042 166.021514 
L 212.859907 162.300631 
L 213.780839 160.713413 
L 214.701772 162.354474 
L 215.622704 157.044367 
L 216.543636 161.031773 
L 218.385501 156.647706 
L 219.306434 158.020412 
L 220.227366 158.825477 
L 221.148298 157.661555 
L 222.069231 158.599509 
L 222.990163 156.538302 
L 223.911096 160.381878 
L 224.832028 155.828035 
L 225.75296 157.112816 
L 226.673893 160.847447 
L 227.594825 162.930936 
L 228.515758 162.073231 
L 229.43669 160.307873 
L 230.357622 162.631134 
L 231.278555 161.263297 
L 232.199487 157.132291 
L 233.12042 164.690336 
L 234.041352 161.388052 
L 234.962284 160.914464 
L 235.883217 163.1793 
L 236.804149 159.804385 
L 237.725082 158.776789 
L 238.646014 163.522978 
L 239.566946 162.35791 
L 240.487879 162.182635 
L 241.408811 158.917697 
L 242.329744 158.387288 
L 243.250676 160.979763 
L 244.171608 162.768605 
L 245.092541 164.098638 
L 246.013473 160.429879 
L 246.934406 163.110564 
L 247.855338 162.67123 
L 248.77627 165.264278 
L 249.697203 161.32344 
L 250.618135 163.248035 
L 251.539068 163.728497 
L 253.380932 161.254705 
L 254.301865 160.299281 
L 255.222797 155.963214 
L 256.14373 156.497633 
L 257.064662 157.853155 
L 257.985594 155.398437 
L 258.906527 152.486628 
L 259.827459 150.577499 
L 260.748392 149.351429 
L 261.669324 144.607531 
L 262.590256 142.182313 
L 263.511189 146.156945 
L 264.432121 139.810937 
L 265.353054 138.013502 
L 266.273986 133.080869 
L 267.194918 132.034084 
L 268.115851 133.52679 
L 269.036783 132.382344 
L 269.957716 132.86292 
L 270.878648 131.014507 
L 271.79958 129.712255 
L 272.720513 129.159793 
L 273.641445 129.361417 
L 274.562378 125.485306 
L 275.48331 131.904632 
L 277.325175 129.2944 
L 278.246107 125.062009 
L 279.16704 125.512227 
L 280.087972 129.84142 
L 281.008904 129.842566 
L 281.929837 124.771029 
L 282.850769 130.875317 
L 283.771702 132.885832 
L 284.692634 124.493223 
L 285.613566 127.661931 
L 286.534499 131.90635 
L 287.455431 124.006346 
L 288.376364 129.514124 
L 289.297296 125.297429 
L 290.218228 123.225625 
L 291.139161 122.515931 
L 292.060093 129.437026 
L 292.981026 123.118512 
L 293.901958 129.483423 
L 294.82289 124.6095 
L 295.743823 130.647917 
L 296.664755 124.960624 
L 297.585688 127.702599 
L 298.50662 127.649902 
L 299.427552 127.850954 
L 300.348485 137.251397 
L 301.269417 128.698119 
L 302.19035 130.709779 
L 303.111282 127.915107 
L 304.032214 130.045336 
L 304.953147 128.816688 
L 305.874079 124.628976 
L 306.795012 122.738176 
L 307.715944 128.373344 
L 308.636876 121.929387 
L 309.557809 127.206558 
L 310.478741 124.823726 
L 311.399674 126.090178 
L 312.320606 125.142774 
L 313.241538 127.16188 
L 314.162471 124.886734 
L 315.083403 126.630898 
L 316.004336 120.183505 
L 317.8462 115.431015 
L 318.767133 117.497091 
L 319.688065 124.070213 
L 320.608998 118.661586 
L 321.52993 111.963881 
L 322.450862 113.562554 
L 323.371795 111.204353 
L 324.292727 107.536167 
L 325.21366 113.154724 
L 326.134592 111.485023 
L 327.055524 112.926751 
L 327.976457 115.060989 
L 328.897389 104.823404 
L 329.818322 101.498895 
L 330.739254 101.863767 
L 331.660186 102.825949 
L 332.581119 100.650298 
L 333.502051 103.668647 
L 334.422984 97.661734 
L 335.343916 96.626119 
L 336.264848 98.065212 
L 337.185781 107.328242 
L 338.106713 99.698884 
L 339.027646 101.581378 
L 339.948578 109.398899 
L 340.86951 104.88412 
L 341.790443 112.2056 
L 342.711375 97.096957 
L 343.632308 91.998499 
L 344.55324 98.289691 
L 345.474172 99.56399 
L 346.395105 98.273022 
L 347.316037 93.840611 
L 348.23697 102.255559 
L 349.157902 99.700888 
L 350.078834 95.941169 
L 350.999767 97.774346 
L 351.920699 93.727484 
L 352.841632 96.587741 
L 353.762564 97.239011 
L 354.683497 101.272068 
L 355.604429 96.095137 
L 356.525361 96.571703 
L 357.446294 89.529748 
L 358.367226 104.070177 
L 359.288159 92.823325 
L 360.209091 93.101704 
L 361.130023 101.612882 
L 362.050956 100.296596 
L 362.971888 93.627818 
L 363.892821 104.285549 
L 364.813753 91.542553 
L 365.734685 104.451087 
L 366.655618 98.17095 
L 367.57655 101.18844 
L 368.497483 101.303572 
L 369.418415 100.088671 
L 370.339347 97.114141 
L 371.26028 98.983175 
L 372.181212 101.709112 
L 373.102145 100.070342 
L 374.023077 99.054202 
L 374.944009 95.045774 
L 375.864942 102.570024 
L 376.785874 105.550282 
L 377.706807 104.351993 
L 378.627739 106.810434 
L 379.548671 104.37353 
L 380.469604 109.173791 
L 381.390536 104.969696 
L 383.232401 104.442495 
L 384.153333 99.10829 
L 385.074266 101.530399 
L 385.995198 108.920042 
L 387.837063 118.18416 
L 388.757995 107.136355 
L 389.678928 115.659561 
L 390.59986 110.271841 
L 391.520793 117.901485 
L 392.441725 114.347285 
L 393.362657 104.129462 
L 394.28359 113.287612 
L 395.204522 119.07944 
L 396.125455 114.302034 
L 397.046387 117.310646 
L 397.967319 121.865152 
L 398.888252 122.896267 
L 399.809184 121.117163 
L 400.730117 123.416366 
L 401.651049 131.107987 
L 402.571981 137.776365 
L 403.492914 137.101611 
L 404.413846 130.739565 
L 405.334779 133.189986 
L 406.255711 138.701889 
L 407.176643 139.330934 
L 408.097576 141.741832 
L 409.018508 141.582309 
L 409.939441 144.770778 
L 410.860373 143.247141 
L 411.781305 148.46474 
L 412.702238 149.052429 
L 413.62317 144.247243 
L 414.544103 153.035653 
L 415.465035 149.897304 
L 416.385967 154.771226 
L 417.3069 158.64791 
L 418.227832 155.377817 
L 419.148765 154.729412 
L 420.069697 162.198959 
L 420.990629 158.621561 
L 421.911562 162.764596 
L 422.832494 163.235694 
L 423.753427 157.374298 
L 424.674359 158.4881 
L 425.595291 163.001733 
L 426.516224 162.755717 
L 428.358089 157.698099 
L 429.279021 162.936434 
L 430.199953 162.921885 
L 431.120886 161.698622 
L 432.041818 155.415621 
L 432.041818 155.415621 
" clip-path="url(#p43d45b1276)" style="fill: none; stroke: #d62728; stroke-width: 1.5; stroke-linecap: square"/>
   </g>
   <g id="line2d_22">
    <path d="M 72.878182 239.819421 
L 73.799114 240.919189 
L 74.720047 241.537809 
L 75.640979 241.881487 
L 76.561911 242.018958 
L 78.403776 242.637578 
L 79.324709 243.462404 
L 80.245641 244.913869 
L 81.166573 247.311594 
L 83.008438 254.185147 
L 83.929371 257.553189 
L 84.850303 261.702237 
L 85.771235 264.839155 
L 86.692168 266.969957 
L 87.6131 268.413403 
L 88.534033 268.961569 
L 89.454965 268.795458 
L 90.375897 267.987815 
L 91.29683 266.387423 
L 92.217762 265.508467 
L 94.059627 263.270267 
L 96.822424 259.871294 
L 97.743357 257.623642 
L 99.585221 253.625812 
L 100.506154 251.159065 
L 101.427086 249.427617 
L 103.268951 243.999687 
L 104.189883 239.347437 
L 105.110816 237.241265 
L 106.031748 232.425196 
L 106.952681 231.278343 
L 107.873613 225.805391 
L 108.794545 219.65442 
L 109.715478 218.469018 
L 110.63641 212.226686 
L 111.557343 210.841665 
L 112.478275 205.617764 
L 113.399207 201.051434 
L 114.32014 198.376189 
L 115.241072 196.504005 
L 116.162005 196.434697 
L 117.082937 196.250199 
L 118.003869 196.357942 
L 118.924802 195.640802 
L 119.845734 199.614861 
L 120.766667 201.737643 
L 121.687599 201.136208 
L 122.608531 201.672631 
L 123.529464 195.163662 
L 124.450396 200.534199 
L 125.371329 204.527161 
L 126.292261 205.823398 
L 127.213193 204.10501 
L 129.055058 202.931351 
L 129.975991 204.054291 
L 130.896923 206.676864 
L 131.817855 207.453576 
L 132.738788 208.028549 
L 133.65972 205.728543 
L 134.580653 202.881804 
L 135.501585 204.930753 
L 137.34345 211.776182 
L 138.264382 210.771898 
L 139.185315 208.659598 
L 140.106247 213.156621 
L 141.027179 210.362521 
L 141.948112 209.379603 
L 142.869044 204.699687 
L 143.789977 205.078763 
L 144.710909 210.433834 
L 145.631841 208.18538 
L 146.552774 210.263141 
L 148.394639 206.582926 
L 149.315571 207.729664 
L 150.236503 207.129946 
L 151.157436 206.004402 
L 152.078368 202.602566 
L 152.999301 206.014712 
L 153.920233 203.779547 
L 154.841166 204.0947 
L 155.762098 200.241844 
L 156.68303 198.600439 
L 157.603963 195.124139 
L 158.524895 193.95048 
L 159.445828 195.199176 
L 160.36676 189.521048 
L 161.287692 184.867538 
L 162.208625 181.050539 
L 163.129557 179.987429 
L 164.05049 178.034767 
L 164.971422 178.549711 
L 165.892354 176.712181 
L 166.813287 171.173128 
L 167.734219 164.414535 
L 168.655152 163.484142 
L 169.576084 153.321192 
L 170.497016 149.443878 
L 171.417949 144.034735 
L 172.338881 133.057957 
L 173.259814 132.192175 
L 174.180746 120.462457 
L 175.101678 125.331453 
L 176.022611 120.552099 
L 176.943543 114.834735 
L 177.864476 114.441797 
L 178.785408 104.024411 
L 179.70634 102.673127 
L 180.627273 97.21438 
L 181.548205 104.558772 
L 183.39007 99.468677 
L 184.311002 103.031125 
L 186.152867 107.623804 
L 187.0738 107.994117 
L 187.994732 118.724593 
L 188.915664 120.023122 
L 189.836597 116.025578 
L 190.757529 119.245838 
L 191.678462 121.950008 
L 192.599394 125.319195 
L 194.441259 122.766815 
L 195.362191 132.633228 
L 196.283124 130.990678 
L 197.204056 133.54111 
L 198.124988 131.751982 
L 199.045921 135.749239 
L 200.887786 131.600477 
L 201.808718 133.970135 
L 202.72965 135.963847 
L 203.650583 135.450813 
L 204.571515 135.206229 
L 205.492448 135.986377 
L 206.41338 130.267581 
L 207.334312 138.198229 
L 208.255245 140.953092 
L 209.176177 141.309944 
L 211.018042 136.339219 
L 211.938974 134.256246 
L 213.780839 130.867298 
L 214.701772 133.216908 
L 215.622704 126.844551 
L 216.543636 132.034084 
L 218.385501 126.942785 
L 219.306434 128.74738 
L 220.227366 129.855454 
L 221.148298 128.39912 
L 222.069231 129.500607 
L 222.990163 126.870613 
L 223.911096 131.492219 
L 224.832028 125.718434 
L 225.75296 127.008943 
L 226.673893 131.43007 
L 227.594825 133.783117 
L 228.515758 132.31189 
L 229.43669 129.690202 
L 230.357622 132.097091 
L 231.278555 130.027464 
L 232.199487 124.2621 
L 233.12042 133.2255 
L 234.041352 128.41974 
L 234.962284 127.163598 
L 235.883217 129.360844 
L 236.804149 124.525013 
L 237.725082 122.623616 
L 238.646014 128.199615 
L 239.566946 126.067839 
L 240.487879 125.179547 
L 241.408811 120.618257 
L 242.329744 119.383963 
L 243.250676 122.342373 
L 244.171608 124.295837 
L 245.092541 125.728744 
L 246.013473 120.659097 
L 246.934406 123.996609 
L 247.855338 123.46219 
L 248.77627 126.776961 
L 249.697203 121.527285 
L 250.618135 124.068781 
L 251.539068 124.831173 
L 253.380932 121.937979 
L 254.301865 120.783337 
L 255.222797 115.408104 
L 256.14373 116.259565 
L 257.064662 118.225401 
L 258.906527 111.681778 
L 259.827459 109.696181 
L 260.748392 108.384478 
L 261.669324 102.635896 
L 262.590256 100.041702 
L 263.511189 105.779401 
L 264.432121 98.410379 
L 265.353054 96.771323 
L 266.273986 91.558019 
L 267.194918 90.927943 
L 268.115851 94.299707 
L 269.036783 93.625813 
L 269.957716 95.502293 
L 270.878648 94.352977 
L 271.79958 93.68166 
L 272.720513 94.590401 
L 273.641445 95.660671 
L 274.562378 92.294921 
L 275.48331 100.86796 
L 276.404242 100.923694 
L 277.325175 100.43865 
L 278.246107 96.580868 
L 279.16704 98.078615 
L 280.087972 103.953613 
L 281.008904 104.736339 
L 281.929837 99.77077 
L 282.850769 107.445665 
L 283.771702 110.272414 
L 284.692634 100.935837 
L 285.613566 104.956866 
L 286.534499 110.140384 
L 287.455431 101.17412 
L 288.376364 107.364671 
L 289.297296 102.474654 
L 290.218228 99.868718 
L 291.139161 98.681311 
L 292.060093 106.335013 
L 292.981026 98.417416 
L 293.901958 105.242118 
L 294.82289 99.049046 
L 295.743823 105.160208 
L 296.664755 97.803215 
L 297.585688 100.022227 
L 298.50662 99.132675 
L 299.427552 98.631478 
L 300.348485 108.871354 
L 301.269417 97.277674 
L 302.19035 98.768376 
L 303.111282 94.228967 
L 304.032214 96.060769 
L 304.953147 93.754692 
L 305.874079 87.22052 
L 306.795012 83.717299 
L 307.715944 89.777768 
L 308.636876 80.392504 
L 309.557809 86.205354 
L 310.478741 82.410751 
L 311.399674 82.761016 
L 312.320606 80.597221 
L 313.241538 82.39729 
L 314.162471 78.626001 
L 315.083403 80.275997 
L 316.004336 71.89851 
L 316.925268 67.774378 
L 317.8462 64.337602 
L 318.767133 66.399668 
L 319.688065 74.647932 
L 320.608998 67.087023 
L 321.52993 58.151404 
L 322.450862 59.526114 
L 323.371795 56.089337 
L 324.292727 51.27785 
L 325.21366 58.151404 
L 326.134592 55.771436 
L 327.055524 57.464048 
L 327.976457 60.21347 
L 328.897389 46.466363 
L 329.818322 42.342231 
L 330.739254 42.514069 
L 331.660186 43.716941 
L 332.581119 40.96752 
L 333.502051 45.091652 
L 334.422984 36.843388 
L 335.343916 35.468677 
L 336.264848 36.843388 
L 337.185781 49.903139 
L 338.106713 38.905454 
L 339.027646 41.654875 
L 339.948578 51.965205 
L 340.86951 45.091652 
L 341.790443 54.714627 
L 342.711375 34.764138 
L 343.632308 27.220413 
L 344.55324 35.468677 
L 345.474172 36.843388 
L 346.395105 34.781322 
L 347.316037 28.595124 
L 348.23697 39.592809 
L 349.157902 36.156033 
L 350.078834 30.65719 
L 350.999767 33.406611 
L 351.920699 27.907768 
L 352.841632 32.0319 
L 353.762564 32.719256 
L 354.683497 38.218099 
L 355.604429 32.0319 
L 356.525361 32.719256 
L 357.446294 23.783636 
L 358.367226 43.716941 
L 359.288159 29.282479 
L 360.209091 30.050026 
L 361.130023 41.689243 
L 362.050956 40.280165 
L 362.971888 32.0319 
L 363.892821 47.153718 
L 364.813753 30.65719 
L 365.734685 48.528429 
L 366.655618 40.360356 
L 367.57655 45.091652 
L 368.497483 45.572801 
L 369.418415 44.147684 
L 370.339347 40.835777 
L 371.26028 43.482095 
L 372.181212 47.291189 
L 373.102145 45.515521 
L 374.023077 44.679239 
L 374.944009 39.266315 
L 375.864942 49.364711 
L 376.785874 53.443019 
L 377.706807 51.965205 
L 378.627739 55.401982 
L 379.548671 52.466975 
L 380.469604 58.563817 
L 381.390536 53.10507 
L 382.311469 53.13371 
L 383.232401 52.8244 
L 384.153333 46.466363 
L 385.074266 49.81722 
L 385.995198 59.526114 
L 387.837063 71.777078 
L 388.757995 58.082668 
L 389.678928 69.698973 
L 390.59986 62.962891 
L 391.520793 72.585866 
L 392.441725 68.899923 
L 393.362657 56.776693 
L 394.28359 68.461734 
L 395.204522 76.709998 
L 396.125455 71.211155 
L 397.046387 75.335287 
L 397.967319 80.91203 
L 398.888252 82.701159 
L 399.809184 81.464206 
L 400.730117 85.557979 
L 401.651049 95.539525 
L 402.571981 104.285835 
L 403.492914 104.126884 
L 404.413846 96.92741 
L 405.334779 100.64056 
L 406.255711 108.529395 
L 407.176643 109.412933 
L 408.097576 113.118637 
L 409.018508 113.363221 
L 409.939441 117.557235 
L 410.860373 116.180233 
L 411.781305 122.652256 
L 412.702238 123.622573 
L 413.62317 118.000407 
L 414.544103 128.500161 
L 415.465035 124.564822 
L 416.385967 129.821487 
L 417.3069 134.346175 
L 418.227832 130.170778 
L 419.148765 128.7617 
L 420.069697 136.940541 
L 420.990629 131.82129 
L 421.911562 136.111819 
L 422.832494 136.09349 
L 423.753427 127.670809 
L 424.674359 128.007327 
L 425.595291 132.93681 
L 426.516224 131.660048 
L 428.358089 124.738952 
L 429.279021 130.810018 
L 430.199953 130.354646 
L 431.120886 128.614491 
L 432.041818 120.824464 
L 432.041818 120.824464 
" clip-path="url(#p43d45b1276)" style="fill: none; stroke: #9467bd; stroke-width: 1.5; stroke-linecap: square"/>
   </g>
   <g id="patch_3">
    <path d="M 54.92 296.44 
L 54.92 10.8 
" style="fill: none; stroke: #000000; stroke-width: 0.8; stroke-linejoin: miter; stroke-linecap: square"/>
   </g>
   <g id="patch_4">
    <path d="M 450 296.44 
L 450 10.8 
" style="fill: none; stroke: #000000; stroke-width: 0.8; stroke-linejoin: miter; stroke-linecap: square"/>
   </g>
   <g id="patch_5">
    <path d="M 54.92 296.44 
L 450 296.44 
" style="fill: none; stroke: #000000; stroke-width: 0.8; stroke-linejoin: miter; stroke-linecap: square"/>
   </g>
   <g id="patch_6">
    <path d="M 54.92 10.8 
L 450 10.8 
" style="fill: none; stroke: #000000; stroke-width: 0.8; stroke-linejoin: miter; stroke-linecap: square"/>
   </g>
   <g id="legend_1">
    <g id="patch_7">
     <path d="M 61.92 92.190625 
L 113.0075 92.190625 
Q 115.0075 92.190625 115.0075 90.190625 
L 115.0075 17.8 
Q 115.0075 15.8 113.0075 15.8 
L 61.92 15.8 
Q 59.92 15.8 59.92 17.8 
L 59.92 90.190625 
Q 59.92 92.190625 61.92 92.190625 
z
" style="fill: #ffffff; opacity: 0.8; stroke: #cccccc; stroke-linejoin: miter"/>
    </g>
    <g id="line2d_23">
     <path d="M 63.92 23.898438 
L 73.92 23.898438 
L 83.92 23.898438 
" style="fill: none; stroke: #1f77b4; stroke-width: 1.5; stroke-linecap: square"/>
    </g>
    <g id="text_20">
     <!-- 20 -->
     <g transform="translate(91.92 27.398438) scale(0.1 -0.1)">
      <use xlink:href="#DejaVuSans-32"/>
      <use xlink:href="#DejaVuSans-30" x="63.623047"/>
     </g>
    </g>
    <g id="line2d_24">
     <path d="M 63.92 38.576563 
L 73.92 38.576563 
L 83.92 38.576563 
" style="fill: none; stroke: #ff7f0e; stroke-width: 1.5; stroke-linecap: square"/>
    </g>
    <g id="text_21">
     <!-- 40 -->
     <g transform="translate(91.92 42.076563) scale(0.1 -0.1)">
      <use xlink:href="#DejaVuSans-34"/>
      <use xlink:href="#DejaVuSans-30" x="63.623047"/>
     </g>
    </g>
    <g id="line2d_25">
     <path d="M 63.92 53.254687 
L 73.92 53.254687 
L 83.92 53.254687 
" style="fill: none; stroke: #2ca02c; stroke-width: 1.5; stroke-linecap: square"/>
    </g>
    <g id="text_22">
     <!-- 60 -->
     <g transform="translate(91.92 56.754687) scale(0.1 -0.1)">
      <use xlink:href="#DejaVuSans-36"/>
      <use xlink:href="#DejaVuSans-30" x="63.623047"/>
     </g>
    </g>
    <g id="line2d_26">
     <path d="M 63.92 67.932813 
L 73.92 67.932813 
L 83.92 67.932813 
" style="fill: none; stroke: #d62728; stroke-width: 1.5; stroke-linecap: square"/>
    </g>
    <g id="text_23">
     <!-- 80 -->
     <g transform="translate(91.92 71.432813) scale(0.1 -0.1)">
      <use xlink:href="#DejaVuSans-38"/>
      <use xlink:href="#DejaVuSans-30" x="63.623047"/>
     </g>
    </g>
    <g id="line2d_27">
     <path d="M 63.92 82.610938 
L 73.92 82.610938 
L 83.92 82.610938 
" style="fill: none; stroke: #9467bd; stroke-width: 1.5; stroke-linecap: square"/>
    </g>
    <g id="text_24">
     <!-- 100 -->
     <g transform="translate(91.92 86.110938) scale(0.1 -0.1)">
      <use xlink:href="#DejaVuSans-31"/>
      <use xlink:href="#DejaVuSans-30" x="63.623047"/>
      <use xlink:href="#DejaVuSans-30" x="127.246094"/>
     </g>
    </g>
   </g>
  </g>
 </g>
 <defs>
  <clipPath id="p43d45b1276">
   <rect x="54.92" y="10.8" width="395.08" height="285.64"/>
  </clipPath>
 </defs>
</svg>
