<?xml version="1.0" encoding="utf-8" standalone="no"?>
<!DOCTYPE svg PUBLIC "-//W3C//DTD SVG 1.1//EN"
  "http://www.w3.org/Graphics/SVG/1.1/DTD/svg11.dtd">
<svg xmlns:xlink="http://www.w3.org/1999/xlink" width="468pt" height="324pt" viewBox="0 0 468 324" xmlns="http://www.w3.org/2000/svg" version="1.1">
 <metadata>
  <rdf:RDF xmlns:dc="http://purl.org/dc/elements/1.1/" xmlns:cc="http://creativecommons.org/ns#" xmlns:rdf="http://www.w3.org/1999/02/22-rdf-syntax-ns#">
   <cc:Work>
    <dc:type rdf:resource="http://purl.org/dc/dcmitype/StillImage"/>
    <dc:date>2022-06-30T10:47:59.646371</dc:date>
    <dc:format>image/svg+xml</dc:format>
    <dc:creator>
     <cc:Agent>
      <dc:title>Matplotlib v3.5.0, https://matplotlib.org/</dc:title>
     </cc:Agent>
    </dc:creator>
   </cc:Work>
  </rdf:RDF>
 </metadata>
 <defs>
  <style type="text/css">*{stroke-linejoin: round; stroke-linecap: butt}</style>
 </defs>
 <g id="figure_1">
  <g id="patch_1">
   <path d="M 0 324 
L 468 324 
L 468 0 
L 0 0 
z
" style="fill: #ffffff"/>
  </g>
  <g id="axes_1">
   <g id="patch_2">
    <path d="M 81.54 264.42 
L 442.276364 264.42 
L 442.276364 19.350745 
L 81.54 19.350745 
z
" style="fill: #ffffff"/>
   </g>
   <g id="matplotlib.axis_1">
    <g id="xtick_1">
     <g id="line2d_1">
      <defs>
       <path id="mf916b36960" d="M 0 0 
L 0 6 
" style="stroke: #000000; stroke-width: 1.5"/>
      </defs>
      <g>
       <use xlink:href="#mf916b36960" x="97.937107" y="264.42" style="stroke: #000000; stroke-width: 1.5"/>
      </g>
     </g>
     <g id="text_1">
      <text style="font: 14px 'sans-serif'; text-anchor: middle" x="97.937107" y="284.557813" transform="rotate(-0, 97.937107, 284.557813)">0mW</text>
     </g>
    </g>
    <g id="xtick_2">
     <g id="line2d_2">
      <g>
       <use xlink:href="#mf916b36960" x="152.594132" y="264.42" style="stroke: #000000; stroke-width: 1.5"/>
      </g>
     </g>
     <g id="text_2">
      <text style="font: 14px 'sans-serif'; text-anchor: middle" x="152.594132" y="284.557813" transform="rotate(-0, 152.594132, 284.557813)">50mW</text>
     </g>
    </g>
    <g id="xtick_3">
     <g id="line2d_3">
      <g>
       <use xlink:href="#mf916b36960" x="207.251157" y="264.42" style="stroke: #000000; stroke-width: 1.5"/>
      </g>
     </g>
     <g id="text_3">
      <text style="font: 14px 'sans-serif'; text-anchor: middle" x="207.251157" y="284.557813" transform="rotate(-0, 207.251157, 284.557813)">100mW</text>
     </g>
    </g>
    <g id="xtick_4">
     <g id="line2d_4">
      <g>
       <use xlink:href="#mf916b36960" x="261.908182" y="264.42" style="stroke: #000000; stroke-width: 1.5"/>
      </g>
     </g>
     <g id="text_4">
      <text style="font: 14px 'sans-serif'; text-anchor: middle" x="261.908182" y="284.557813" transform="rotate(-0, 261.908182, 284.557813)">150mW</text>
     </g>
    </g>
    <g id="xtick_5">
     <g id="line2d_5">
      <g>
       <use xlink:href="#mf916b36960" x="316.565207" y="264.42" style="stroke: #000000; stroke-width: 1.5"/>
      </g>
     </g>
     <g id="text_5">
      <text style="font: 14px 'sans-serif'; text-anchor: middle" x="316.565207" y="284.557813" transform="rotate(-0, 316.565207, 284.557813)">200mW</text>
     </g>
    </g>
    <g id="xtick_6">
     <g id="line2d_6">
      <g>
       <use xlink:href="#mf916b36960" x="371.222231" y="264.42" style="stroke: #000000; stroke-width: 1.5"/>
      </g>
     </g>
     <g id="text_6">
      <text style="font: 14px 'sans-serif'; text-anchor: middle" x="371.222231" y="284.557813" transform="rotate(-0, 371.222231, 284.557813)">250mW</text>
     </g>
    </g>
    <g id="xtick_7">
     <g id="line2d_7">
      <g>
       <use xlink:href="#mf916b36960" x="425.879256" y="264.42" style="stroke: #000000; stroke-width: 1.5"/>
      </g>
     </g>
     <g id="text_7">
      <text style="font: 14px 'sans-serif'; text-anchor: middle" x="425.879256" y="284.557813" transform="rotate(-0, 425.879256, 284.557813)">300mW</text>
     </g>
    </g>
    <g id="text_8">
     <text style="font: 18px 'sans-serif'; text-anchor: middle" x="261.908182" y="305.146563" transform="rotate(-0, 261.908182, 305.146563)">power [mW]</text>
    </g>
   </g>
   <g id="matplotlib.axis_2">
    <g id="ytick_1">
     <g id="line2d_8">
      <defs>
       <path id="m1e139542db" d="M 0 0 
L -6 0 
" style="stroke: #000000; stroke-width: 1.5"/>
      </defs>
      <g>
       <use xlink:href="#m1e139542db" x="81.54" y="253.280488" style="stroke: #000000; stroke-width: 1.5"/>
      </g>
     </g>
     <g id="text_9">
      <text style="font: 14px 'sans-serif'; text-anchor: end" x="72.04" y="258.599395" transform="rotate(-0, 72.04, 258.599395)">0</text>
     </g>
    </g>
    <g id="ytick_2">
     <g id="line2d_9">
      <g>
       <use xlink:href="#m1e139542db" x="81.54" y="195.085198" style="stroke: #000000; stroke-width: 1.5"/>
      </g>
     </g>
     <g id="text_10">
      <text style="font: 14px 'sans-serif'; text-anchor: end" x="72.04" y="200.404105" transform="rotate(-0, 72.04, 200.404105)">2000</text>
     </g>
    </g>
    <g id="ytick_3">
     <g id="line2d_10">
      <g>
       <use xlink:href="#m1e139542db" x="81.54" y="136.889908" style="stroke: #000000; stroke-width: 1.5"/>
      </g>
     </g>
     <g id="text_11">
      <text style="font: 14px 'sans-serif'; text-anchor: end" x="72.04" y="142.208814" transform="rotate(-0, 72.04, 142.208814)">4000</text>
     </g>
    </g>
    <g id="ytick_4">
     <g id="line2d_11">
      <g>
       <use xlink:href="#m1e139542db" x="81.54" y="78.694618" style="stroke: #000000; stroke-width: 1.5"/>
      </g>
     </g>
     <g id="text_12">
      <text style="font: 14px 'sans-serif'; text-anchor: end" x="72.04" y="84.013524" transform="rotate(-0, 72.04, 84.013524)">6000</text>
     </g>
    </g>
    <g id="ytick_5">
     <g id="line2d_12">
      <g>
       <use xlink:href="#m1e139542db" x="81.54" y="20.499328" style="stroke: #000000; stroke-width: 1.5"/>
      </g>
     </g>
     <g id="text_13">
      <text style="font: 14px 'sans-serif'; text-anchor: end" x="72.04" y="25.818234" transform="rotate(-0, 72.04, 25.818234)">8000</text>
     </g>
    </g>
    <g id="text_14">
     <text style="font: 18px 'sans-serif'; text-anchor: middle" x="28.666563" y="141.885373" transform="rotate(-90, 28.666563, 141.885373)">Conc (ppm)</text>
    </g>
   </g>
   <g id="LineCollection_1">
    <path d="M 97.937107 253.280488 
L 97.937107 253.280488 
" clip-path="url(#pd1c5087acc)" style="fill: none; stroke: #1f77b4; stroke-width: 1.5"/>
    <path d="M 152.594132 253.280488 
L 152.594132 253.280488 
" clip-path="url(#pd1c5087acc)" style="fill: none; stroke: #1f77b4; stroke-width: 1.5"/>
    <path d="M 207.251157 253.280488 
L 207.251157 253.280488 
" clip-path="url(#pd1c5087acc)" style="fill: none; stroke: #1f77b4; stroke-width: 1.5"/>
    <path d="M 261.908182 253.280488 
L 261.908182 253.280488 
" clip-path="url(#pd1c5087acc)" style="fill: none; stroke: #1f77b4; stroke-width: 1.5"/>
    <path d="M 316.565207 253.280488 
L 316.565207 253.280488 
" clip-path="url(#pd1c5087acc)" style="fill: none; stroke: #1f77b4; stroke-width: 1.5"/>
    <path d="M 371.222231 253.280488 
L 371.222231 253.280488 
" clip-path="url(#pd1c5087acc)" style="fill: none; stroke: #1f77b4; stroke-width: 1.5"/>
    <path d="M 425.879256 253.280488 
L 425.879256 253.280488 
" clip-path="url(#pd1c5087acc)" style="fill: none; stroke: #1f77b4; stroke-width: 1.5"/>
   </g>
   <g id="LineCollection_2">
    <path d="M 97.937107 238.948428 
L 97.937107 238.80588 
" clip-path="url(#pd1c5087acc)" style="fill: none; stroke: #ff7f0e; stroke-width: 1.5"/>
    <path d="M 152.594132 241.234547 
L 152.594132 241.015347 
" clip-path="url(#pd1c5087acc)" style="fill: none; stroke: #ff7f0e; stroke-width: 1.5"/>
    <path d="M 207.251157 241.012612 
L 207.251157 240.917209 
" clip-path="url(#pd1c5087acc)" style="fill: none; stroke: #ff7f0e; stroke-width: 1.5"/>
    <path d="M 261.908182 242.664454 
L 261.908182 242.567949 
" clip-path="url(#pd1c5087acc)" style="fill: none; stroke: #ff7f0e; stroke-width: 1.5"/>
    <path d="M 316.565207 242.414821 
L 316.565207 242.366568 
" clip-path="url(#pd1c5087acc)" style="fill: none; stroke: #ff7f0e; stroke-width: 1.5"/>
    <path d="M 371.222231 242.743382 
L 371.222231 242.634509 
" clip-path="url(#pd1c5087acc)" style="fill: none; stroke: #ff7f0e; stroke-width: 1.5"/>
    <path d="M 425.879256 242.516663 
L 425.879256 242.46841 
" clip-path="url(#pd1c5087acc)" style="fill: none; stroke: #ff7f0e; stroke-width: 1.5"/>
   </g>
   <g id="LineCollection_3">
    <path d="M 97.937107 163.812331 
L 97.937107 163.507152 
" clip-path="url(#pd1c5087acc)" style="fill: none; stroke: #2ca02c; stroke-width: 1.5"/>
    <path d="M 152.594132 158.900167 
L 152.594132 157.798676 
" clip-path="url(#pd1c5087acc)" style="fill: none; stroke: #2ca02c; stroke-width: 1.5"/>
    <path d="M 207.251157 159.578726 
L 207.251157 158.836878 
" clip-path="url(#pd1c5087acc)" style="fill: none; stroke: #2ca02c; stroke-width: 1.5"/>
    <path d="M 261.908182 154.619282 
L 261.908182 153.743085 
" clip-path="url(#pd1c5087acc)" style="fill: none; stroke: #2ca02c; stroke-width: 1.5"/>
    <path d="M 316.565207 155.087959 
L 316.565207 154.336473 
" clip-path="url(#pd1c5087acc)" style="fill: none; stroke: #2ca02c; stroke-width: 1.5"/>
    <path d="M 371.222231 152.964897 
L 371.222231 152.531352 
" clip-path="url(#pd1c5087acc)" style="fill: none; stroke: #2ca02c; stroke-width: 1.5"/>
    <path d="M 425.879256 153.732394 
L 425.879256 153.087798 
" clip-path="url(#pd1c5087acc)" style="fill: none; stroke: #2ca02c; stroke-width: 1.5"/>
   </g>
   <g id="LineCollection_4">
    <path d="M 97.937107 45.680054 
L 97.937107 44.784599 
" clip-path="url(#pd1c5087acc)" style="fill: none; stroke: #d62728; stroke-width: 1.5"/>
    <path d="M 152.594132 40.427963 
L 152.594132 37.786581 
" clip-path="url(#pd1c5087acc)" style="fill: none; stroke: #d62728; stroke-width: 1.5"/>
    <path d="M 207.251157 41.341209 
L 207.251157 39.666709 
" clip-path="url(#pd1c5087acc)" style="fill: none; stroke: #d62728; stroke-width: 1.5"/>
    <path d="M 261.908182 34.726008 
L 261.908182 32.780602 
" clip-path="url(#pd1c5087acc)" style="fill: none; stroke: #d62728; stroke-width: 1.5"/>
    <path d="M 316.565207 35.164094 
L 316.565207 33.564617 
" clip-path="url(#pd1c5087acc)" style="fill: none; stroke: #d62728; stroke-width: 1.5"/>
    <path d="M 371.222231 31.575094 
L 371.222231 30.490257 
" clip-path="url(#pd1c5087acc)" style="fill: none; stroke: #d62728; stroke-width: 1.5"/>
    <path d="M 425.879256 32.65665 
L 425.879256 31.27095 
" clip-path="url(#pd1c5087acc)" style="fill: none; stroke: #d62728; stroke-width: 1.5"/>
   </g>
   <g id="line2d_13">
    <path d="M 97.937107 253.280488 
L 152.594132 253.280488 
L 207.251157 253.280488 
L 261.908182 253.280488 
L 316.565207 253.280488 
L 371.222231 253.280488 
L 425.879256 253.280488 
" clip-path="url(#pd1c5087acc)" style="fill: none; stroke: #1f77b4; stroke-width: 1.5; stroke-linecap: square"/>
    <defs>
     <path id="m0a66706d3e" d="M 0 3 
C 0.795609 3 1.55874 2.683901 2.12132 2.12132 
C 2.683901 1.55874 3 0.795609 3 0 
C 3 -0.795609 2.683901 -1.55874 2.12132 -2.12132 
C 1.55874 -2.683901 0.795609 -3 0 -3 
C -0.795609 -3 -1.55874 -2.683901 -2.12132 -2.12132 
C -2.683901 -1.55874 -3 -0.795609 -3 0 
C -3 0.795609 -2.683901 1.55874 -2.12132 2.12132 
C -1.55874 2.683901 -0.795609 3 0 3 
z
" style="stroke: #1f77b4"/>
    </defs>
    <g clip-path="url(#pd1c5087acc)">
     <use xlink:href="#m0a66706d3e" x="97.937107" y="253.280488" style="fill: #1f77b4; stroke: #1f77b4"/>
     <use xlink:href="#m0a66706d3e" x="152.594132" y="253.280488" style="fill: #1f77b4; stroke: #1f77b4"/>
     <use xlink:href="#m0a66706d3e" x="207.251157" y="253.280488" style="fill: #1f77b4; stroke: #1f77b4"/>
     <use xlink:href="#m0a66706d3e" x="261.908182" y="253.280488" style="fill: #1f77b4; stroke: #1f77b4"/>
     <use xlink:href="#m0a66706d3e" x="316.565207" y="253.280488" style="fill: #1f77b4; stroke: #1f77b4"/>
     <use xlink:href="#m0a66706d3e" x="371.222231" y="253.280488" style="fill: #1f77b4; stroke: #1f77b4"/>
     <use xlink:href="#m0a66706d3e" x="425.879256" y="253.280488" style="fill: #1f77b4; stroke: #1f77b4"/>
    </g>
   </g>
   <g id="line2d_14">
    <path d="M 97.937107 238.877154 
L 152.594132 241.124947 
L 207.251157 240.96491 
L 261.908182 242.616202 
L 316.565207 242.390695 
L 371.222231 242.688946 
L 425.879256 242.492537 
" clip-path="url(#pd1c5087acc)" style="fill: none; stroke: #ff7f0e; stroke-width: 1.5; stroke-linecap: square"/>
    <defs>
     <path id="mfb75409f9f" d="M 0 3 
C 0.795609 3 1.55874 2.683901 2.12132 2.12132 
C 2.683901 1.55874 3 0.795609 3 0 
C 3 -0.795609 2.683901 -1.55874 2.12132 -2.12132 
C 1.55874 -2.683901 0.795609 -3 0 -3 
C -0.795609 -3 -1.55874 -2.683901 -2.12132 -2.12132 
C -2.683901 -1.55874 -3 -0.795609 -3 0 
C -3 0.795609 -2.683901 1.55874 -2.12132 2.12132 
C -1.55874 2.683901 -0.795609 3 0 3 
z
" style="stroke: #ff7f0e"/>
    </defs>
    <g clip-path="url(#pd1c5087acc)">
     <use xlink:href="#mfb75409f9f" x="97.937107" y="238.877154" style="fill: #ff7f0e; stroke: #ff7f0e"/>
     <use xlink:href="#mfb75409f9f" x="152.594132" y="241.124947" style="fill: #ff7f0e; stroke: #ff7f0e"/>
     <use xlink:href="#mfb75409f9f" x="207.251157" y="240.96491" style="fill: #ff7f0e; stroke: #ff7f0e"/>
     <use xlink:href="#mfb75409f9f" x="261.908182" y="242.616202" style="fill: #ff7f0e; stroke: #ff7f0e"/>
     <use xlink:href="#mfb75409f9f" x="316.565207" y="242.390695" style="fill: #ff7f0e; stroke: #ff7f0e"/>
     <use xlink:href="#mfb75409f9f" x="371.222231" y="242.688946" style="fill: #ff7f0e; stroke: #ff7f0e"/>
     <use xlink:href="#mfb75409f9f" x="425.879256" y="242.492537" style="fill: #ff7f0e; stroke: #ff7f0e"/>
    </g>
   </g>
   <g id="line2d_15">
    <path d="M 97.937107 163.659742 
L 152.594132 158.349421 
L 207.251157 159.207802 
L 261.908182 154.181184 
L 316.565207 154.712216 
L 371.222231 152.748125 
L 425.879256 153.410096 
" clip-path="url(#pd1c5087acc)" style="fill: none; stroke: #2ca02c; stroke-width: 1.5; stroke-linecap: square"/>
    <defs>
     <path id="me61655bcc5" d="M 0 3 
C 0.795609 3 1.55874 2.683901 2.12132 2.12132 
C 2.683901 1.55874 3 0.795609 3 0 
C 3 -0.795609 2.683901 -1.55874 2.12132 -2.12132 
C 1.55874 -2.683901 0.795609 -3 0 -3 
C -0.795609 -3 -1.55874 -2.683901 -2.12132 -2.12132 
C -2.683901 -1.55874 -3 -0.795609 -3 0 
C -3 0.795609 -2.683901 1.55874 -2.12132 2.12132 
C -1.55874 2.683901 -0.795609 3 0 3 
z
" style="stroke: #2ca02c"/>
    </defs>
    <g clip-path="url(#pd1c5087acc)">
     <use xlink:href="#me61655bcc5" x="97.937107" y="163.659742" style="fill: #2ca02c; stroke: #2ca02c"/>
     <use xlink:href="#me61655bcc5" x="152.594132" y="158.349421" style="fill: #2ca02c; stroke: #2ca02c"/>
     <use xlink:href="#me61655bcc5" x="207.251157" y="159.207802" style="fill: #2ca02c; stroke: #2ca02c"/>
     <use xlink:href="#me61655bcc5" x="261.908182" y="154.181184" style="fill: #2ca02c; stroke: #2ca02c"/>
     <use xlink:href="#me61655bcc5" x="316.565207" y="154.712216" style="fill: #2ca02c; stroke: #2ca02c"/>
     <use xlink:href="#me61655bcc5" x="371.222231" y="152.748125" style="fill: #2ca02c; stroke: #2ca02c"/>
     <use xlink:href="#me61655bcc5" x="425.879256" y="153.410096" style="fill: #2ca02c; stroke: #2ca02c"/>
    </g>
   </g>
   <g id="line2d_16">
    <path d="M 97.937107 45.232326 
L 152.594132 39.107272 
L 207.251157 40.503959 
L 261.908182 33.753305 
L 316.565207 34.364356 
L 371.222231 31.032675 
L 425.879256 31.9638 
" clip-path="url(#pd1c5087acc)" style="fill: none; stroke: #d62728; stroke-width: 1.5; stroke-linecap: square"/>
    <defs>
     <path id="m28a0e1b743" d="M 0 3 
C 0.795609 3 1.55874 2.683901 2.12132 2.12132 
C 2.683901 1.55874 3 0.795609 3 0 
C 3 -0.795609 2.683901 -1.55874 2.12132 -2.12132 
C 1.55874 -2.683901 0.795609 -3 0 -3 
C -0.795609 -3 -1.55874 -2.683901 -2.12132 -2.12132 
C -2.683901 -1.55874 -3 -0.795609 -3 0 
C -3 0.795609 -2.683901 1.55874 -2.12132 2.12132 
C -1.55874 2.683901 -0.795609 3 0 3 
z
" style="stroke: #d62728"/>
    </defs>
    <g clip-path="url(#pd1c5087acc)">
     <use xlink:href="#m28a0e1b743" x="97.937107" y="45.232326" style="fill: #d62728; stroke: #d62728"/>
     <use xlink:href="#m28a0e1b743" x="152.594132" y="39.107272" style="fill: #d62728; stroke: #d62728"/>
     <use xlink:href="#m28a0e1b743" x="207.251157" y="40.503959" style="fill: #d62728; stroke: #d62728"/>
     <use xlink:href="#m28a0e1b743" x="261.908182" y="33.753305" style="fill: #d62728; stroke: #d62728"/>
     <use xlink:href="#m28a0e1b743" x="316.565207" y="34.364356" style="fill: #d62728; stroke: #d62728"/>
     <use xlink:href="#m28a0e1b743" x="371.222231" y="31.032675" style="fill: #d62728; stroke: #d62728"/>
     <use xlink:href="#m28a0e1b743" x="425.879256" y="31.9638" style="fill: #d62728; stroke: #d62728"/>
    </g>
   </g>
   <g id="patch_3">
    <path d="M 81.54 264.42 
L 81.54 19.350745 
" style="fill: none; stroke: #000000; stroke-width: 2; stroke-linejoin: miter; stroke-linecap: square"/>
   </g>
   <g id="patch_4">
    <path d="M 442.276364 264.42 
L 442.276364 19.350745 
" style="fill: none; stroke: #000000; stroke-width: 2; stroke-linejoin: miter; stroke-linecap: square"/>
   </g>
   <g id="patch_5">
    <path d="M 81.54 264.42 
L 442.276364 264.42 
" style="fill: none; stroke: #000000; stroke-width: 2; stroke-linejoin: miter; stroke-linecap: square"/>
   </g>
   <g id="patch_6">
    <path d="M 81.54 19.350745 
L 442.276364 19.350745 
" style="fill: none; stroke: #000000; stroke-width: 2; stroke-linejoin: miter; stroke-linecap: square"/>
   </g>
   <g id="legend_1">
    <g id="patch_7">
     <path d="M 222.315526 92.19887 
L 301.500838 92.19887 
Q 304.300838 92.19887 304.300838 89.39887 
L 304.300838 29.150745 
Q 304.300838 26.350745 301.500838 26.350745 
L 222.315526 26.350745 
Q 219.515526 26.350745 219.515526 29.150745 
L 219.515526 89.39887 
Q 219.515526 92.19887 222.315526 92.19887 
z
" style="fill: #ffffff; opacity: 0.8; stroke: #cccccc; stroke-linejoin: miter"/>
    </g>
    <g id="line2d_17">
     <path d="M 225.115526 37.688558 
L 239.115526 37.688558 
L 253.115526 37.688558 
" style="fill: none; stroke: #1f77b4; stroke-width: 1.5; stroke-linecap: square"/>
     <g>
      <use xlink:href="#m0a66706d3e" x="239.115526" y="37.688558" style="fill: #1f77b4; stroke: #1f77b4"/>
     </g>
    </g>
    <g id="text_15">
     <text style="font: 14px 'sans-serif'; text-anchor: start" x="264.315526" y="42.588558" transform="rotate(-0, 264.315526, 42.588558)">c2h2</text>
    </g>
    <g id="line2d_18">
     <path d="M 225.115526 58.237933 
L 239.115526 58.237933 
L 253.115526 58.237933 
" style="fill: none; stroke: #ff7f0e; stroke-width: 1.5; stroke-linecap: square"/>
     <g>
      <use xlink:href="#mfb75409f9f" x="239.115526" y="58.237933" style="fill: #ff7f0e; stroke: #ff7f0e"/>
     </g>
    </g>
    <g id="text_16">
     <text style="font: 14px 'sans-serif'; text-anchor: start" x="264.315526" y="63.137933" transform="rotate(-0, 264.315526, 63.137933)">c2h4</text>
    </g>
    <g id="line2d_19">
     <path d="M 225.115526 78.787308 
L 239.115526 78.787308 
L 253.115526 78.787308 
" style="fill: none; stroke: #2ca02c; stroke-width: 1.5; stroke-linecap: square"/>
     <g>
      <use xlink:href="#me61655bcc5" x="239.115526" y="78.787308" style="fill: #2ca02c; stroke: #2ca02c"/>
     </g>
    </g>
    <g id="text_17">
     <text style="font: 14px 'sans-serif'; text-anchor: start" x="264.315526" y="83.687308" transform="rotate(-0, 264.315526, 83.687308)">c2h6</text>
    </g>
   </g>
  </g>
 </g>
 <defs>
  <clipPath id="pd1c5087acc">
   <rect x="81.54" y="19.350745" width="360.736364" height="245.069255"/>
  </clipPath>
 </defs>
</svg>
