<?xml version="1.0" encoding="UTF-8" standalone="no"?>
<svg
   xmlns:dc="http://purl.org/dc/elements/1.1/"
   xmlns:cc="http://creativecommons.org/ns#"
   xmlns:rdf="http://www.w3.org/1999/02/22-rdf-syntax-ns#"
   xmlns:svg="http://www.w3.org/2000/svg"
   xmlns="http://www.w3.org/2000/svg"
   xmlns:sodipodi="http://sodipodi.sourceforge.net/DTD/sodipodi-0.dtd"
   xmlns:inkscape="http://www.inkscape.org/namespaces/inkscape"
   width="122.41374mm"
   height="44.615433mm"
   viewBox="0 0 122.41374 44.615433"
   version="1.1"
   id="svg8"
   inkscape:version="1.0.1 (3bc2e813f5, 2020-09-07)"
   sodipodi:docname="drawing.svg">
  <defs
     id="defs2">
    <clipPath
       clipPathUnits="userSpaceOnUse"
       id="clipPath849">
      <path
         d="M 0,126.47 H 347 V 0 H 0 Z"
         id="path847" />
    </clipPath>
  </defs>
  <sodipodi:namedview
     id="base"
     pagecolor="#ffffff"
     bordercolor="#666666"
     borderopacity="1.0"
     inkscape:pageopacity="0.0"
     inkscape:pageshadow="2"
     inkscape:zoom="0.33609813"
     inkscape:cx="241.83041"
     inkscape:cy="203.48019"
     inkscape:document-units="mm"
     inkscape:current-layer="layer1"
     inkscape:document-rotation="0"
     showgrid="false"
     inkscape:window-width="1920"
     inkscape:window-height="986"
     inkscape:window-x="2869"
     inkscape:window-y="454"
     inkscape:window-maximized="1" />
  <metadata
     id="metadata5">
    <rdf:RDF>
      <cc:Work
         rdf:about="">
        <dc:format>image/svg+xml</dc:format>
        <dc:type
           rdf:resource="http://purl.org/dc/dcmitype/StillImage" />
        <dc:title></dc:title>
      </cc:Work>
    </rdf:RDF>
  </metadata>
  <g
     inkscape:label="Layer 1"
     inkscape:groupmode="layer"
     id="layer1"
     transform="translate(-41.849036,-94.329201)">
    <g
       id="g845"
       clip-path="url(#clipPath849)"
       transform="matrix(0.35277777,0,0,-0.35277777,41.848895,138.94488)">
      <g
         id="g851"
         transform="translate(78.0004,39.389)">
        <path
           d="m 0,0 c 0,-21.539 -17.461,-39 -39,-39 -21.539,0 -39,17.461 -39,39 0,14.163 7.549,26.562 18.842,33.394 C -53.275,36.952 -46.377,39 -39,39 -17.461,39 0,21.539 0,0"
           style="fill:#000000;fill-opacity:1;fill-rule:nonzero;stroke:none"
           id="path853" />
      </g>
      <path
         d="M 78,38.389 H 49 v 75 h 29 z"
         style="fill:#000000;fill-opacity:1;fill-rule:nonzero;stroke:none"
         id="path855" />
      <g
         id="g857"
         transform="translate(85.14,36.1478)">
        <path
           d="M 0,0 V 8.367 L 35.859,7.156 V 1.18 Z"
           style="fill:#000000;fill-opacity:1;fill-rule:nonzero;stroke:none"
           id="path859" />
      </g>
      <g
         id="g861"
         transform="translate(46.0004,42.8763)">
        <path
           d="m 0,0 v -1.959 -1.776 -1.959 l 36.999,0.984 v 0.932 1.863 0.932 z"
           style="fill:#ffffff;fill-opacity:1;fill-rule:nonzero;stroke:none"
           id="path863" />
      </g>
      <g
         id="g865"
         transform="translate(49.2601,40.0296)">
        <path
           d="m 0,0 c 0,-5.667 -4.594,-10.261 -10.26,-10.261 -5.667,0 -10.261,4.594 -10.261,10.261 0,5.666 4.594,10.26 10.261,10.26 C -4.594,10.26 0,5.666 0,0"
           style="fill:#ffffff;fill-opacity:1;fill-rule:nonzero;stroke:none"
           id="path867" />
      </g>
      <path
         d="m 40.5,49.272 h -3 v 15.722 h 3 z"
         style="fill:#ffffff;fill-opacity:1;fill-rule:nonzero;stroke:none"
         id="path869" />
      <path
         d="M 30,38.53 H 14.271 v 3 H 30 Z"
         style="fill:#ffffff;fill-opacity:1;fill-rule:nonzero;stroke:none"
         id="path871" />
      <path
         d="m 40.5,15.3 h -3 v 16.972 h 3 z"
         style="fill:#ffffff;fill-opacity:1;fill-rule:nonzero;stroke:none"
         id="path873" />
      <g
         id="g875"
         transform="translate(33.8412,47.6751)">
        <path
           d="m 0,0 -2.121,-2.121 -11.314,11.313 2.122,2.122 z"
           style="fill:#ffffff;fill-opacity:1;fill-rule:nonzero;stroke:none"
           id="path877" />
      </g>
      <g
         id="g879"
         transform="translate(44.7826,47.6751)">
        <path
           d="m 0,0 2.121,-2.121 10.771,10.77 -2.121,2.122 z"
           style="fill:#ffffff;fill-opacity:1;fill-rule:nonzero;stroke:none"
           id="path881" />
      </g>
      <g
         id="g883"
         transform="translate(20.4379,23.8343)">
        <path
           d="M 0,0 2.121,-2.121 13.373,9.13 11.252,11.252 Z"
           style="fill:#ffffff;fill-opacity:1;fill-rule:nonzero;stroke:none"
           id="path885" />
      </g>
      <g
         id="g887"
         transform="translate(57.5609,23.8323)">
        <path
           d="m 0,0 -2.121,-2.121 -11.657,11.656 2.121,2.122 z"
           style="fill:#ffffff;fill-opacity:1;fill-rule:nonzero;stroke:none"
           id="path889" />
      </g>
      <g
         id="g891"
         transform="translate(40.7191,41.0091)">
        <path
           d="m 0,0 -2.771,-1.148 -6.049,14.603 2.771,1.149 z"
           style="fill:#ffffff;fill-opacity:1;fill-rule:nonzero;stroke:none"
           id="path893" />
      </g>
      <g
         id="g895"
         transform="translate(38.3675,41.4544)">
        <path
           d="M 0,0 2.771,-1.147 8.541,12.78 5.769,13.929 Z"
           style="fill:#ffffff;fill-opacity:1;fill-rule:nonzero;stroke:none"
           id="path897" />
      </g>
      <g
         id="g899"
         transform="translate(31.3089,25.8948)">
        <path
           d="M 0,0 2.771,-1.147 8.628,12.989 5.855,14.137 Z"
           style="fill:#ffffff;fill-opacity:1;fill-rule:nonzero;stroke:none"
           id="path901" />
      </g>
      <g
         id="g903"
         transform="translate(46.7269,25.9866)">
        <path
           d="m 0,0 -2.771,-1.147 -5.83,14.071 2.773,1.147 z"
           style="fill:#ffffff;fill-opacity:1;fill-rule:nonzero;stroke:none"
           id="path905" />
      </g>
      <g
         id="g907"
         transform="translate(38.6957,42.137)">
        <path
           d="m 0,0 -1.051,-2.81 -14.432,5.397 1.05,2.809 z"
           style="fill:#ffffff;fill-opacity:1;fill-rule:nonzero;stroke:none"
           id="path909" />
      </g>
      <g
         id="g911"
         transform="translate(39.4652,38.5452)">
        <path
           d="m 0,0 -1.051,2.81 -14.805,-5.536 1.05,-2.81 z"
           style="fill:#ffffff;fill-opacity:1;fill-rule:nonzero;stroke:none"
           id="path913" />
      </g>
      <g
         id="g915"
         transform="translate(54.4837,34.8538)">
        <path
           d="m 0,0 -1.051,-2.81 -14.432,5.396 1.049,2.81 z"
           style="fill:#ffffff;fill-opacity:1;fill-rule:nonzero;stroke:none"
           id="path917" />
      </g>
      <g
         id="g919"
         transform="translate(54.4837,45.1234)">
        <path
           d="m 0,0 -1.051,2.811 -14.432,-5.397 1.049,-2.81 z"
           style="fill:#ffffff;fill-opacity:1;fill-rule:nonzero;stroke:none"
           id="path921" />
      </g>
      <g
         id="g923"
         transform="translate(219.3949,30.8597)">
        <path
           d="m 0,0 v -30.234 c -2.396,-0.416 -4.585,-0.625 -6.563,-0.625 -11.719,0 -21.485,3.853 -29.297,11.562 -7.813,7.707 -11.719,17.369 -11.719,28.985 0,11.3 3.945,20.884 11.836,28.75 7.89,7.863 17.486,11.796 28.789,11.796 12.604,0 22.54,-3.685 29.806,-11.054 C 30.117,31.809 33.75,21.744 33.75,8.984 V -29.219 H 4.531 V 6.875 c 0,4.113 -1.004,7.395 -3.008,9.844 -2.005,2.447 -4.701,3.672 -8.086,3.672 -3.074,0 -5.73,-1.121 -7.969,-3.36 -2.24,-2.24 -3.36,-4.896 -3.36,-7.968 0,-3.231 1.016,-5.887 3.047,-7.969 2.032,-2.084 4.61,-3.125 7.735,-3.125 2.551,0 4.922,0.676 7.11,2.031"
           style="fill:#000000;fill-opacity:1;fill-rule:nonzero;stroke:none"
           id="path925" />
      </g>
      <g
         id="g927"
         transform="translate(269.0004,39.389)">
        <path
           d="M 0,0 C 0,-21.539 17.461,-39 39,-39 60.539,-39 78,-21.539 78,0 78,21.539 60.539,39 39,39 17.461,39 0,21.539 0,0"
           style="fill:#000000;fill-opacity:1;fill-rule:nonzero;stroke:none"
           id="path929" />
      </g>
      <path
         d="m 269,37.389 h 29 v 75 h -29 z"
         style="fill:#000000;fill-opacity:1;fill-rule:nonzero;stroke:none"
         id="path931" />
      <g
         id="g933"
         transform="translate(191.0004,41.512)">
        <path
           d="M 0,0 C 0,-11.874 9.626,-21.5 21.5,-21.5 33.374,-21.5 43,-11.874 43,0 43,11.874 33.374,21.5 21.5,21.5 9.626,21.5 0,11.874 0,0"
           style="fill:#ffffff;fill-opacity:1;fill-rule:nonzero;stroke:none"
           id="path935" />
      </g>
      <path
         d="m 204.216,61.012 h 14.567 v 22 h -14.567 z"
         style="fill:#ffffff;fill-opacity:1;fill-rule:nonzero;stroke:none"
         id="path937" />
      <g
         id="g939"
         transform="translate(193.2445,41.595)">
        <path
           d="M 0,0 C 7.202,-4.057 13.607,-3.243 20.086,0.85 25.109,4.023 30.571,3.859 35.932,1.227 37.074,0.665 37.526,0.051 37.357,-1.369 36.243,-10.766 28.666,-18.047 19.648,-18.226 9.643,-18.424 1.846,-11.891 0.381,-2.084 0.301,-1.549 0.187,-1.018 0,0"
           style="fill:#000000;fill-opacity:1;fill-rule:nonzero;stroke:none"
           id="path941" />
      </g>
      <g
         id="g943"
         transform="translate(218.3265,91.0706)">
        <path
           d="m 0,0 c -0.091,-3.031 -2.765,-5.615 -5.765,-5.57 -3.101,0.046 -5.904,2.866 -5.824,5.86 0.08,2.992 3.029,5.817 6.001,5.747 C -2.506,5.965 0.095,3.155 0,0"
           style="fill:#000000;fill-opacity:1;fill-rule:nonzero;stroke:none"
           id="path945" />
      </g>
      <g
         id="g947"
         transform="translate(205.888,107.014)">
        <path
           d="m 0,0 c 0.037,-2.641 -1.836,-4.633 -4.374,-4.655 -2.421,-0.022 -4.406,1.9 -4.475,4.331 -0.073,2.609 1.804,4.735 4.276,4.843 C -2.123,4.627 -0.035,2.563 0,0"
           style="fill:#000000;fill-opacity:1;fill-rule:nonzero;stroke:none"
           id="path949" />
      </g>
      <g
         id="g951"
         transform="translate(212.1507,122.9432)">
        <path
           d="m 0,0 c -0.026,-2.049 -1.496,-3.488 -3.502,-3.431 -1.964,0.056 -3.451,1.615 -3.417,3.583 0.036,2.088 1.382,3.346 3.568,3.334 C -1.187,3.474 0.029,2.21 0,0"
           style="fill:#000000;fill-opacity:1;fill-rule:nonzero;stroke:none"
           id="path953" />
      </g>
      <g
         id="g955"
         transform="translate(293.0004,39.389)">
        <path
           d="m 0,0 c 0,-8.284 6.716,-15 15,-15 8.284,0 15,6.716 15,15 C 30,8.284 23.284,15 15,15 6.716,15 0,8.284 0,0"
           style="fill:#ffffff;fill-opacity:1;fill-rule:nonzero;stroke:none"
           id="path957" />
      </g>
      <path
         d="m 308.911,37.018 h -38.152 v 4.743 h 38.152 z"
         style="fill:#000000;fill-opacity:1;fill-rule:nonzero;stroke:none"
         id="path959" />
      <g
         id="g961"
         transform="translate(301.0258,39.389)">
        <path
           d="m 0,0 c 0,-2.658 2.882,-4.813 6.437,-4.813 3.554,0 6.436,2.155 6.436,4.813 0,2.659 -2.882,4.814 -6.436,4.814 C 2.882,4.814 0,2.659 0,0"
           style="fill:#000000;fill-opacity:1;fill-rule:nonzero;stroke:none"
           id="path963" />
      </g>
      <g
         id="g965"
         transform="translate(317.2533,39.389)">
        <path
           d="M 0,0 -5.552,-2.877 V 2.878 Z"
           style="fill:#000000;fill-opacity:1;fill-rule:nonzero;stroke:none"
           id="path967" />
      </g>
      <g
         id="g969"
         transform="translate(307.4623,62.7181)">
        <path
           d="M 0,0 C 0.8,0 1.449,1.621 1.449,3.62 1.449,5.619 0.8,7.24 0,7.24 -0.801,7.24 -1.449,5.619 -1.449,3.62 -1.449,1.621 -0.801,0 0,0"
           style="fill:#ffffff;fill-opacity:1;fill-rule:nonzero;stroke:none"
           id="path971" />
      </g>
      <g
         id="g973"
         transform="translate(307.4623,8.8206)">
        <path
           d="M 0,0 C 0.8,0 1.449,1.62 1.449,3.62 1.449,5.619 0.8,7.24 0,7.24 -0.801,7.24 -1.449,5.619 -1.449,3.62 -1.449,1.62 -0.801,0 0,0"
           style="fill:#ffffff;fill-opacity:1;fill-rule:nonzero;stroke:none"
           id="path975" />
      </g>
      <g
         id="g977"
         transform="translate(327.5541,50.9378)">
        <path
           d="M 0,0 C 0.399,-0.693 2.128,-0.444 3.859,0.555 5.591,1.555 6.67,2.927 6.27,3.62 5.869,4.313 4.142,4.065 2.41,3.065 0.679,2.065 -0.4,0.693 0,0"
           style="fill:#ffffff;fill-opacity:1;fill-rule:nonzero;stroke:none"
           id="path979" />
      </g>
      <g
         id="g981"
         transform="translate(280.9135,24.0101)">
        <path
           d="M 0,0 C 0.399,-0.693 2.128,-0.444 3.859,0.555 5.591,1.555 6.67,2.927 6.27,3.62 5.869,4.313 4.142,4.064 2.41,3.065 0.679,2.065 -0.4,0.693 0,0"
           style="fill:#ffffff;fill-opacity:1;fill-rule:nonzero;stroke:none"
           id="path983" />
      </g>
      <g
         id="g985"
         transform="translate(287.2543,50.9378)">
        <path
           d="m 0,0 c -0.399,-0.693 -2.128,-0.444 -3.859,0.555 -1.732,1 -2.811,2.372 -2.411,3.065 0.401,0.693 2.128,0.445 3.86,-0.555 C -0.679,2.065 0.4,0.693 0,0"
           style="fill:#ffffff;fill-opacity:1;fill-rule:nonzero;stroke:none"
           id="path987" />
      </g>
      <g
         id="g989"
         transform="translate(333.8236,24.0511)">
        <path
           d="m 0,0 c -0.4,-0.693 -2.128,-0.444 -3.859,0.555 -1.732,1 -2.811,2.372 -2.411,3.065 0.4,0.693 2.128,0.445 3.86,-0.555 C -0.679,2.065 0.4,0.693 0,0"
           style="fill:#ffffff;fill-opacity:1;fill-rule:nonzero;stroke:none"
           id="path991" />
      </g>
      <path
         d="m 156.003,0.898 h -29.219 v 85.285 h 29.219 z"
         style="fill:#000000;fill-opacity:1;fill-rule:nonzero;stroke:none"
         id="path993" />
      <g
         id="g995"
         transform="translate(133.1605,96.4437)">
        <path
           d="M 0,0 C 3.603,-2.303 8.296,-1.288 10.677,2.308 13.143,6.03 12.01,11.409 8.229,13.937 4.76,16.256 -0.153,15.299 -2.548,11.839 -5.067,8.198 -3.83,2.448 0,0 m 11.897,-8.269 c 1.828,-1.213 4.187,-0.663 5.403,1.262 1.212,1.918 0.758,4.296 -1.048,5.484 -1.83,1.205 -4.264,0.661 -5.44,-1.215 -1.163,-1.853 -0.669,-4.366 1.085,-5.531 M -16.882,2.232 c 2.24,0.565 4.456,1.228 6.543,1.81 0.42,2.335 -0.483,3.307 -2.457,3.673 -1.166,0.217 -2.369,0.651 -3.351,1.298 -0.59,0.387 -1.232,1.52 -1.053,2.05 0.24,0.717 1.166,1.419 1.946,1.677 0.754,0.249 1.711,-0.201 2.554,-0.113 1.075,0.113 2.445,0.125 3.12,0.772 1.396,1.341 0.309,2.651 -0.704,3.784 -1.441,1.612 -2.859,3.245 -4.332,4.827 -1.098,1.178 -2.397,2.416 -0.884,3.972 1.319,1.356 2.687,0.455 3.903,-0.517 2.028,-1.618 4.014,-3.303 6.153,-4.761 0.692,-0.472 0.926,-0.636 1.69,-0.348 0.525,0.197 0.942,1.425 0.92,2.177 -0.049,1.633 -0.627,3.267 -0.552,4.88 0.037,0.791 0.913,1.887 1.668,2.181 0.524,0.203 1.819,-0.541 2.188,-1.192 0.801,-1.41 1.264,-3.019 1.802,-4.569 1.247,-3.581 3.018,-3.906 5.74,-1.18 2.346,2.349 4.774,4.642 7.435,6.629 0.978,0.731 2.079,1.178 3.159,0.103 1.489,-1.481 0.249,-2.804 -0.775,-4.048 -1.54,-1.871 -3.058,-3.764 -4.486,-5.719 -0.65,-0.889 -1.758,-1.733 -0.401,-3.108 1.247,-1.264 2.291,-1.183 3.605,-0.289 0.928,0.632 1.889,1.378 2.926,1.631 1.305,0.317 2.673,0.208 3.211,-0.11 0.251,-0.149 0.5,-0.285 0.465,-0.575 -0.118,-1.023 -0.439,-2.14 -1.041,-2.844 -1.21,-1.414 -2.841,-2.468 -4.392,-3.753 0.479,-0.967 0.89,-1.798 1.359,-2.745 1.633,0.291 3.168,0.817 4.677,0.753 1.181,-0.05 2.933,-0.52 3.362,-1.354 0.802,-1.558 -0.68,-2.402 -2.067,-2.918 -1.287,-0.479 -2.277,-0.855 -3.72,-1.399 0.261,-1.094 0.569,-2.107 0.733,-3.12 1.066,-6.576 0.775,-8.699 0.775,-15.835 H 22.38 -6.392 c 0.01,5.924 0.21,9.313 -1.505,14.371 -2.706,-0.224 -5.453,-0.479 -8.206,-0.67 -1.636,-0.113 -3.639,-0.419 -3.917,1.846 -0.248,2.028 1.583,2.341 3.138,2.733"
           style="fill:#000000;fill-opacity:1;fill-rule:nonzero;stroke:none"
           id="path997" />
      </g>
      <g
         id="g999"
         transform="translate(141.1234,9.9642)">
        <path
           d="m 0,0 c 0,-2.845 -2.152,-5.15 -4.808,-5.15 -2.655,0 -4.807,2.305 -4.807,5.15 0,2.844 2.152,5.149 4.807,5.149 C -2.152,5.149 0,2.844 0,0"
           style="fill:#ffffff;fill-opacity:1;fill-rule:nonzero;stroke:none"
           id="path1001" />
      </g>
      <g
         id="g1003"
         transform="translate(139.4388,24.0618)">
        <path
           d="m 0,0 c 0,-1.696 -1.229,-3.071 -2.744,-3.071 -1.517,0 -2.745,1.375 -2.745,3.071 0,1.696 1.228,3.071 2.745,3.071 C -1.229,3.071 0,1.696 0,0"
           style="fill:#ffffff;fill-opacity:1;fill-rule:nonzero;stroke:none"
           id="path1005" />
      </g>
      <g
         id="g1007"
         transform="translate(147.6439,16.3099)">
        <path
           d="m 0,0 c 0,-1.038 -0.725,-1.88 -1.618,-1.88 -0.893,0 -1.617,0.842 -1.617,1.88 0,1.038 0.724,1.88 1.617,1.88 C -0.725,1.88 0,1.038 0,0"
           style="fill:#ffffff;fill-opacity:1;fill-rule:nonzero;stroke:none"
           id="path1009" />
      </g>
      <g
         id="g1011"
         transform="translate(143.2357,104.9319)">
        <path
           d="m 0,0 c -0.026,-2.049 -1.496,-3.487 -3.502,-3.431 -1.964,0.056 -3.451,1.616 -3.417,3.583 0.036,2.088 1.382,3.346 3.568,3.334 C -1.187,3.475 0.029,2.21 0,0"
           style="fill:#000000;fill-opacity:1;fill-rule:nonzero;stroke:none"
           id="path1013" />
      </g>
    </g>
  </g>
</svg>
