<?xml version="1.0" encoding="utf-8" standalone="no"?>
<!DOCTYPE svg PUBLIC "-//W3C//DTD SVG 1.1//EN"
  "http://www.w3.org/Graphics/SVG/1.1/DTD/svg11.dtd">
<svg xmlns:xlink="http://www.w3.org/1999/xlink" width="313.2pt" height="234pt" viewBox="0 0 313.2 234" xmlns="http://www.w3.org/2000/svg" version="1.1">
 <metadata>
  <rdf:RDF xmlns:dc="http://purl.org/dc/elements/1.1/" xmlns:cc="http://creativecommons.org/ns#" xmlns:rdf="http://www.w3.org/1999/02/22-rdf-syntax-ns#">
   <cc:Work>
    <dc:type rdf:resource="http://purl.org/dc/dcmitype/StillImage"/>
    <dc:date>2023-03-02T19:31:00.421829</dc:date>
    <dc:format>image/svg+xml</dc:format>
    <dc:creator>
     <cc:Agent>
      <dc:title>Matplotlib v3.7.0, https://matplotlib.org/</dc:title>
     </cc:Agent>
    </dc:creator>
   </cc:Work>
  </rdf:RDF>
 </metadata>
 <defs>
  <style type="text/css">*{stroke-linejoin: round; stroke-linecap: butt}</style>
 </defs>
 <g id="figure_1">
  <g id="patch_1">
   <path d="M 0 234 
L 313.2 234 
L 313.2 0 
L 0 0 
z
" style="fill: #ffffff"/>
  </g>
  <g id="axes_1">
   <g id="patch_2">
    <path d="M 70.83 187.02 
L 301.32 187.02 
L 301.32 11.88 
L 70.83 11.88 
z
" style="fill: #ffffff"/>
   </g>
   <g id="matplotlib.axis_1">
    <g id="xtick_1">
     <g id="line2d_1">
      <defs>
       <path id="m7f8e736ed9" d="M 0 0 
L 0 6 
" style="stroke: #000000; stroke-width: 1.5"/>
      </defs>
      <g>
       <use xlink:href="#m7f8e736ed9" x="81.306818" y="187.02" style="stroke: #000000; stroke-width: 1.5"/>
      </g>
     </g>
     <g id="text_1">
      <text style="font: 11px 'DejaVu Sans', 'Bitstream Vera Sans', 'Computer Modern Sans Serif', 'Lucida Grande', 'Verdana', 'Geneva', 'Lucid', 'Arial', 'Helvetica', 'Avant Garde', sans-serif; text-anchor: middle" x="81.306818" y="204.878281" transform="rotate(-0 81.306818 204.878281)">300</text>
     </g>
    </g>
    <g id="xtick_2">
     <g id="line2d_2">
      <g>
       <use xlink:href="#m7f8e736ed9" x="139.511364" y="187.02" style="stroke: #000000; stroke-width: 1.5"/>
      </g>
     </g>
     <g id="text_2">
      <text style="font: 11px 'DejaVu Sans', 'Bitstream Vera Sans', 'Computer Modern Sans Serif', 'Lucida Grande', 'Verdana', 'Geneva', 'Lucid', 'Arial', 'Helvetica', 'Avant Garde', sans-serif; text-anchor: middle" x="139.511364" y="204.878281" transform="rotate(-0 139.511364 204.878281)">350</text>
     </g>
    </g>
    <g id="xtick_3">
     <g id="line2d_3">
      <g>
       <use xlink:href="#m7f8e736ed9" x="197.715909" y="187.02" style="stroke: #000000; stroke-width: 1.5"/>
      </g>
     </g>
     <g id="text_3">
      <text style="font: 11px 'DejaVu Sans', 'Bitstream Vera Sans', 'Computer Modern Sans Serif', 'Lucida Grande', 'Verdana', 'Geneva', 'Lucid', 'Arial', 'Helvetica', 'Avant Garde', sans-serif; text-anchor: middle" x="197.715909" y="204.878281" transform="rotate(-0 197.715909 204.878281)">400</text>
     </g>
    </g>
    <g id="xtick_4">
     <g id="line2d_4">
      <g>
       <use xlink:href="#m7f8e736ed9" x="255.920455" y="187.02" style="stroke: #000000; stroke-width: 1.5"/>
      </g>
     </g>
     <g id="text_4">
      <text style="font: 11px 'DejaVu Sans', 'Bitstream Vera Sans', 'Computer Modern Sans Serif', 'Lucida Grande', 'Verdana', 'Geneva', 'Lucid', 'Arial', 'Helvetica', 'Avant Garde', sans-serif; text-anchor: middle" x="255.920455" y="204.878281" transform="rotate(-0 255.920455 204.878281)">450</text>
     </g>
    </g>
    <g id="text_5">
     <text style="font: 11px 'DejaVu Sans', 'Bitstream Vera Sans', 'Computer Modern Sans Serif', 'Lucida Grande', 'Verdana', 'Geneva', 'Lucid', 'Arial', 'Helvetica', 'Avant Garde', sans-serif; text-anchor: middle" x="186.075" y="219.524219" transform="rotate(-0 186.075 219.524219)">temp [K]</text>
    </g>
   </g>
   <g id="matplotlib.axis_2">
    <g id="ytick_1">
     <g id="line2d_5">
      <defs>
       <path id="ma5dcb08b42" d="M 0 0 
L -6 0 
" style="stroke: #000000; stroke-width: 1.5"/>
      </defs>
      <g>
       <use xlink:href="#ma5dcb08b42" x="70.83" y="179.059091" style="stroke: #000000; stroke-width: 1.5"/>
      </g>
     </g>
     <g id="text_6">
      <text style="font: 11px 'DejaVu Sans', 'Bitstream Vera Sans', 'Computer Modern Sans Serif', 'Lucida Grande', 'Verdana', 'Geneva', 'Lucid', 'Arial', 'Helvetica', 'Avant Garde', sans-serif; text-anchor: end" x="61.33" y="183.238232" transform="rotate(-0 61.33 183.238232)">0</text>
     </g>
    </g>
    <g id="ytick_2">
     <g id="line2d_6">
      <g>
       <use xlink:href="#ma5dcb08b42" x="70.83" y="130.765795" style="stroke: #000000; stroke-width: 1.5"/>
      </g>
     </g>
     <g id="text_7">
      <text style="font: 11px 'DejaVu Sans', 'Bitstream Vera Sans', 'Computer Modern Sans Serif', 'Lucida Grande', 'Verdana', 'Geneva', 'Lucid', 'Arial', 'Helvetica', 'Avant Garde', sans-serif; text-anchor: end" x="61.33" y="134.944935" transform="rotate(-0 61.33 134.944935)">5000</text>
     </g>
    </g>
    <g id="ytick_3">
     <g id="line2d_7">
      <g>
       <use xlink:href="#ma5dcb08b42" x="70.83" y="82.472498" style="stroke: #000000; stroke-width: 1.5"/>
      </g>
     </g>
     <g id="text_8">
      <text style="font: 11px 'DejaVu Sans', 'Bitstream Vera Sans', 'Computer Modern Sans Serif', 'Lucida Grande', 'Verdana', 'Geneva', 'Lucid', 'Arial', 'Helvetica', 'Avant Garde', sans-serif; text-anchor: end" x="61.33" y="86.651639" transform="rotate(-0 61.33 86.651639)">10000</text>
     </g>
    </g>
    <g id="ytick_4">
     <g id="line2d_8">
      <g>
       <use xlink:href="#ma5dcb08b42" x="70.83" y="34.179202" style="stroke: #000000; stroke-width: 1.5"/>
      </g>
     </g>
     <g id="text_9">
      <text style="font: 11px 'DejaVu Sans', 'Bitstream Vera Sans', 'Computer Modern Sans Serif', 'Lucida Grande', 'Verdana', 'Geneva', 'Lucid', 'Arial', 'Helvetica', 'Avant Garde', sans-serif; text-anchor: end" x="61.33" y="38.358343" transform="rotate(-0 61.33 38.358343)">15000</text>
     </g>
    </g>
    <g id="text_10">
     <text style="font: 11px 'DejaVu Sans', 'Bitstream Vera Sans', 'Computer Modern Sans Serif', 'Lucida Grande', 'Verdana', 'Geneva', 'Lucid', 'Arial', 'Helvetica', 'Avant Garde', sans-serif; text-anchor: middle" x="20.048594" y="99.45" transform="rotate(-90 20.048594 99.45)">Conc (ppm)</text>
    </g>
   </g>
   <g id="LineCollection_1">
    <path d="M 81.306818 101.98812 
L 81.306818 100.792763 
" clip-path="url(#p9034778d62)" style="fill: none; stroke: #1f77b4; stroke-width: 1.5"/>
    <path d="M 104.588636 102.051175 
L 104.588636 101.715827 
" clip-path="url(#p9034778d62)" style="fill: none; stroke: #1f77b4; stroke-width: 1.5"/>
    <path d="M 127.870455 107.265981 
L 127.870455 106.878755 
" clip-path="url(#p9034778d62)" style="fill: none; stroke: #1f77b4; stroke-width: 1.5"/>
    <path d="M 151.152273 156.453966 
L 151.152273 153.15652 
" clip-path="url(#p9034778d62)" style="fill: none; stroke: #1f77b4; stroke-width: 1.5"/>
    <path d="M 174.434091 162.881191 
L 174.434091 162.225457 
" clip-path="url(#p9034778d62)" style="fill: none; stroke: #1f77b4; stroke-width: 1.5"/>
    <path d="M 197.715909 166.730622 
L 197.715909 166.452814 
" clip-path="url(#p9034778d62)" style="fill: none; stroke: #1f77b4; stroke-width: 1.5"/>
    <path d="M 220.997727 169.607931 
L 220.997727 169.445263 
" clip-path="url(#p9034778d62)" style="fill: none; stroke: #1f77b4; stroke-width: 1.5"/>
    <path d="M 244.279545 171.656898 
L 244.279545 171.575564 
" clip-path="url(#p9034778d62)" style="fill: none; stroke: #1f77b4; stroke-width: 1.5"/>
    <path d="M 267.561364 173.048452 
L 267.561364 172.86062 
" clip-path="url(#p9034778d62)" style="fill: none; stroke: #1f77b4; stroke-width: 1.5"/>
    <path d="M 290.843182 173.807215 
L 290.843182 173.651473 
" clip-path="url(#p9034778d62)" style="fill: none; stroke: #1f77b4; stroke-width: 1.5"/>
   </g>
   <g id="LineCollection_2">
    <path d="M 81.306818 179.059091 
L 81.306818 179.059091 
" clip-path="url(#p9034778d62)" style="fill: none; stroke: #ff7f0e; stroke-width: 1.5"/>
    <path d="M 104.588636 179.059091 
L 104.588636 179.059091 
" clip-path="url(#p9034778d62)" style="fill: none; stroke: #ff7f0e; stroke-width: 1.5"/>
    <path d="M 127.870455 173.863927 
L 127.870455 173.782593 
" clip-path="url(#p9034778d62)" style="fill: none; stroke: #ff7f0e; stroke-width: 1.5"/>
    <path d="M 151.152273 132.463958 
L 151.152273 128.404054 
" clip-path="url(#p9034778d62)" style="fill: none; stroke: #ff7f0e; stroke-width: 1.5"/>
    <path d="M 174.434091 121.776476 
L 174.434091 120.355267 
" clip-path="url(#p9034778d62)" style="fill: none; stroke: #ff7f0e; stroke-width: 1.5"/>
    <path d="M 197.715909 115.977179 
L 197.715909 115.354209 
" clip-path="url(#p9034778d62)" style="fill: none; stroke: #ff7f0e; stroke-width: 1.5"/>
    <path d="M 220.997727 111.947096 
L 220.997727 111.213588 
" clip-path="url(#p9034778d62)" style="fill: none; stroke: #ff7f0e; stroke-width: 1.5"/>
    <path d="M 244.279545 109.305071 
L 244.279545 108.549352 
" clip-path="url(#p9034778d62)" style="fill: none; stroke: #ff7f0e; stroke-width: 1.5"/>
    <path d="M 267.561364 106.995305 
L 267.561364 106.585934 
" clip-path="url(#p9034778d62)" style="fill: none; stroke: #ff7f0e; stroke-width: 1.5"/>
    <path d="M 290.843182 105.436556 
L 290.843182 104.857618 
" clip-path="url(#p9034778d62)" style="fill: none; stroke: #ff7f0e; stroke-width: 1.5"/>
   </g>
   <g id="LineCollection_3">
    <path d="M 81.306818 24.91715 
L 81.306818 22.526435 
" clip-path="url(#p9034778d62)" style="fill: none; stroke: #2ca02c; stroke-width: 1.5"/>
    <path d="M 104.588636 25.043259 
L 104.588636 24.372564 
" clip-path="url(#p9034778d62)" style="fill: none; stroke: #2ca02c; stroke-width: 1.5"/>
    <path d="M 127.870455 25.082543 
L 127.870455 24.145423 
" clip-path="url(#p9034778d62)" style="fill: none; stroke: #2ca02c; stroke-width: 1.5"/>
    <path d="M 151.152273 40.658576 
L 151.152273 25.943875 
" clip-path="url(#p9034778d62)" style="fill: none; stroke: #2ca02c; stroke-width: 1.5"/>
    <path d="M 174.434091 32.138062 
L 174.434091 27.984176 
" clip-path="url(#p9034778d62)" style="fill: none; stroke: #2ca02c; stroke-width: 1.5"/>
    <path d="M 197.715909 28.238328 
L 197.715909 26.436774 
" clip-path="url(#p9034778d62)" style="fill: none; stroke: #2ca02c; stroke-width: 1.5"/>
    <path d="M 220.997727 25.932782 
L 220.997727 24.14043 
" clip-path="url(#p9034778d62)" style="fill: none; stroke: #2ca02c; stroke-width: 1.5"/>
    <path d="M 244.279545 24.746664 
L 244.279545 23.07256 
" clip-path="url(#p9034778d62)" style="fill: none; stroke: #2ca02c; stroke-width: 1.5"/>
    <path d="M 267.561364 22.910241 
L 267.561364 21.715835 
" clip-path="url(#p9034778d62)" style="fill: none; stroke: #2ca02c; stroke-width: 1.5"/>
    <path d="M 290.843182 21.31027 
L 290.843182 19.840909 
" clip-path="url(#p9034778d62)" style="fill: none; stroke: #2ca02c; stroke-width: 1.5"/>
   </g>
   <g id="line2d_9">
    <path d="M 81.306818 101.390442 
L 104.588636 101.883501 
L 127.870455 107.072368 
L 151.152273 154.805243 
L 174.434091 162.553324 
L 197.715909 166.591718 
L 220.997727 169.526597 
L 244.279545 171.616231 
L 267.561364 172.954536 
L 290.843182 173.729344 
" clip-path="url(#p9034778d62)" style="fill: none; stroke: #1f77b4; stroke-width: 1.5; stroke-linecap: square"/>
    <defs>
     <path id="m4300b1d522" d="M 0 3 
C 0.795609 3 1.55874 2.683901 2.12132 2.12132 
C 2.683901 1.55874 3 0.795609 3 0 
C 3 -0.795609 2.683901 -1.55874 2.12132 -2.12132 
C 1.55874 -2.683901 0.795609 -3 0 -3 
C -0.795609 -3 -1.55874 -2.683901 -2.12132 -2.12132 
C -2.683901 -1.55874 -3 -0.795609 -3 0 
C -3 0.795609 -2.683901 1.55874 -2.12132 2.12132 
C -1.55874 2.683901 -0.795609 3 0 3 
z
" style="stroke: #1f77b4"/>
    </defs>
    <g clip-path="url(#p9034778d62)">
     <use xlink:href="#m4300b1d522" x="81.306818" y="101.390442" style="fill: #1f77b4; stroke: #1f77b4"/>
     <use xlink:href="#m4300b1d522" x="104.588636" y="101.883501" style="fill: #1f77b4; stroke: #1f77b4"/>
     <use xlink:href="#m4300b1d522" x="127.870455" y="107.072368" style="fill: #1f77b4; stroke: #1f77b4"/>
     <use xlink:href="#m4300b1d522" x="151.152273" y="154.805243" style="fill: #1f77b4; stroke: #1f77b4"/>
     <use xlink:href="#m4300b1d522" x="174.434091" y="162.553324" style="fill: #1f77b4; stroke: #1f77b4"/>
     <use xlink:href="#m4300b1d522" x="197.715909" y="166.591718" style="fill: #1f77b4; stroke: #1f77b4"/>
     <use xlink:href="#m4300b1d522" x="220.997727" y="169.526597" style="fill: #1f77b4; stroke: #1f77b4"/>
     <use xlink:href="#m4300b1d522" x="244.279545" y="171.616231" style="fill: #1f77b4; stroke: #1f77b4"/>
     <use xlink:href="#m4300b1d522" x="267.561364" y="172.954536" style="fill: #1f77b4; stroke: #1f77b4"/>
     <use xlink:href="#m4300b1d522" x="290.843182" y="173.729344" style="fill: #1f77b4; stroke: #1f77b4"/>
    </g>
   </g>
   <g id="line2d_10">
    <path d="M 81.306818 179.059091 
L 104.588636 179.059091 
L 127.870455 173.82326 
L 151.152273 130.434006 
L 174.434091 121.065872 
L 197.715909 115.665694 
L 220.997727 111.580342 
L 244.279545 108.927211 
L 267.561364 106.790619 
L 290.843182 105.147087 
" clip-path="url(#p9034778d62)" style="fill: none; stroke: #ff7f0e; stroke-width: 1.5; stroke-linecap: square"/>
    <defs>
     <path id="md7130790df" d="M 0 3 
C 0.795609 3 1.55874 2.683901 2.12132 2.12132 
C 2.683901 1.55874 3 0.795609 3 0 
C 3 -0.795609 2.683901 -1.55874 2.12132 -2.12132 
C 1.55874 -2.683901 0.795609 -3 0 -3 
C -0.795609 -3 -1.55874 -2.683901 -2.12132 -2.12132 
C -2.683901 -1.55874 -3 -0.795609 -3 0 
C -3 0.795609 -2.683901 1.55874 -2.12132 2.12132 
C -1.55874 2.683901 -0.795609 3 0 3 
z
" style="stroke: #ff7f0e"/>
    </defs>
    <g clip-path="url(#p9034778d62)">
     <use xlink:href="#md7130790df" x="81.306818" y="179.059091" style="fill: #ff7f0e; stroke: #ff7f0e"/>
     <use xlink:href="#md7130790df" x="104.588636" y="179.059091" style="fill: #ff7f0e; stroke: #ff7f0e"/>
     <use xlink:href="#md7130790df" x="127.870455" y="173.82326" style="fill: #ff7f0e; stroke: #ff7f0e"/>
     <use xlink:href="#md7130790df" x="151.152273" y="130.434006" style="fill: #ff7f0e; stroke: #ff7f0e"/>
     <use xlink:href="#md7130790df" x="174.434091" y="121.065872" style="fill: #ff7f0e; stroke: #ff7f0e"/>
     <use xlink:href="#md7130790df" x="197.715909" y="115.665694" style="fill: #ff7f0e; stroke: #ff7f0e"/>
     <use xlink:href="#md7130790df" x="220.997727" y="111.580342" style="fill: #ff7f0e; stroke: #ff7f0e"/>
     <use xlink:href="#md7130790df" x="244.279545" y="108.927211" style="fill: #ff7f0e; stroke: #ff7f0e"/>
     <use xlink:href="#md7130790df" x="267.561364" y="106.790619" style="fill: #ff7f0e; stroke: #ff7f0e"/>
     <use xlink:href="#md7130790df" x="290.843182" y="105.147087" style="fill: #ff7f0e; stroke: #ff7f0e"/>
    </g>
   </g>
   <g id="line2d_11">
    <path d="M 81.306818 23.721792 
L 104.588636 24.707912 
L 127.870455 24.613983 
L 151.152273 33.301226 
L 174.434091 30.061119 
L 197.715909 27.337551 
L 220.997727 25.036606 
L 244.279545 23.909612 
L 267.561364 22.313038 
L 290.843182 20.575589 
" clip-path="url(#p9034778d62)" style="fill: none; stroke: #2ca02c; stroke-width: 1.5; stroke-linecap: square"/>
    <defs>
     <path id="md9dad32f75" d="M 0 3 
C 0.795609 3 1.55874 2.683901 2.12132 2.12132 
C 2.683901 1.55874 3 0.795609 3 0 
C 3 -0.795609 2.683901 -1.55874 2.12132 -2.12132 
C 1.55874 -2.683901 0.795609 -3 0 -3 
C -0.795609 -3 -1.55874 -2.683901 -2.12132 -2.12132 
C -2.683901 -1.55874 -3 -0.795609 -3 0 
C -3 0.795609 -2.683901 1.55874 -2.12132 2.12132 
C -1.55874 2.683901 -0.795609 3 0 3 
z
" style="stroke: #2ca02c"/>
    </defs>
    <g clip-path="url(#p9034778d62)">
     <use xlink:href="#md9dad32f75" x="81.306818" y="23.721792" style="fill: #2ca02c; stroke: #2ca02c"/>
     <use xlink:href="#md9dad32f75" x="104.588636" y="24.707912" style="fill: #2ca02c; stroke: #2ca02c"/>
     <use xlink:href="#md9dad32f75" x="127.870455" y="24.613983" style="fill: #2ca02c; stroke: #2ca02c"/>
     <use xlink:href="#md9dad32f75" x="151.152273" y="33.301226" style="fill: #2ca02c; stroke: #2ca02c"/>
     <use xlink:href="#md9dad32f75" x="174.434091" y="30.061119" style="fill: #2ca02c; stroke: #2ca02c"/>
     <use xlink:href="#md9dad32f75" x="197.715909" y="27.337551" style="fill: #2ca02c; stroke: #2ca02c"/>
     <use xlink:href="#md9dad32f75" x="220.997727" y="25.036606" style="fill: #2ca02c; stroke: #2ca02c"/>
     <use xlink:href="#md9dad32f75" x="244.279545" y="23.909612" style="fill: #2ca02c; stroke: #2ca02c"/>
     <use xlink:href="#md9dad32f75" x="267.561364" y="22.313038" style="fill: #2ca02c; stroke: #2ca02c"/>
     <use xlink:href="#md9dad32f75" x="290.843182" y="20.575589" style="fill: #2ca02c; stroke: #2ca02c"/>
    </g>
   </g>
   <g id="patch_3">
    <path d="M 70.83 187.02 
L 70.83 11.88 
" style="fill: none; stroke: #000000; stroke-width: 2; stroke-linejoin: miter; stroke-linecap: square"/>
   </g>
   <g id="patch_4">
    <path d="M 301.32 187.02 
L 301.32 11.88 
" style="fill: none; stroke: #000000; stroke-width: 2; stroke-linejoin: miter; stroke-linecap: square"/>
   </g>
   <g id="patch_5">
    <path d="M 70.83 187.02 
L 301.32 187.02 
" style="fill: none; stroke: #000000; stroke-width: 2; stroke-linejoin: miter; stroke-linecap: square"/>
   </g>
   <g id="patch_6">
    <path d="M 70.83 11.88 
L 301.32 11.88 
" style="fill: none; stroke: #000000; stroke-width: 2; stroke-linejoin: miter; stroke-linecap: square"/>
   </g>
   <g id="legend_1">
    <g id="patch_7">
     <path d="M 154.966484 117.245937 
L 217.183516 117.245937 
Q 219.383516 117.245937 219.383516 115.045937 
L 219.383516 83.854062 
Q 219.383516 81.654062 217.183516 81.654062 
L 154.966484 81.654062 
Q 152.766484 81.654062 152.766484 83.854062 
L 152.766484 115.045937 
Q 152.766484 117.245937 154.966484 117.245937 
z
" style="fill: #ffffff; opacity: 0.8; stroke: #cccccc; stroke-linejoin: miter"/>
    </g>
    <g id="line2d_12">
     <path d="M 157.166484 90.562344 
L 168.166484 90.562344 
L 179.166484 90.562344 
" style="fill: none; stroke: #1f77b4; stroke-width: 1.5; stroke-linecap: square"/>
     <g>
      <use xlink:href="#m4300b1d522" x="168.166484" y="90.562344" style="fill: #1f77b4; stroke: #1f77b4"/>
     </g>
    </g>
    <g id="text_11">
     <text style="font: 11px 'DejaVu Sans', 'Bitstream Vera Sans', 'Computer Modern Sans Serif', 'Lucida Grande', 'Verdana', 'Geneva', 'Lucid', 'Arial', 'Helvetica', 'Avant Garde', sans-serif; text-anchor: start" x="187.966484" y="94.412344" transform="rotate(-0 187.966484 94.412344)">c2h2</text>
    </g>
    <g id="line2d_13">
     <path d="M 157.166484 106.708281 
L 168.166484 106.708281 
L 179.166484 106.708281 
" style="fill: none; stroke: #ff7f0e; stroke-width: 1.5; stroke-linecap: square"/>
     <g>
      <use xlink:href="#md7130790df" x="168.166484" y="106.708281" style="fill: #ff7f0e; stroke: #ff7f0e"/>
     </g>
    </g>
    <g id="text_12">
     <text style="font: 11px 'DejaVu Sans', 'Bitstream Vera Sans', 'Computer Modern Sans Serif', 'Lucida Grande', 'Verdana', 'Geneva', 'Lucid', 'Arial', 'Helvetica', 'Avant Garde', sans-serif; text-anchor: start" x="187.966484" y="110.558281" transform="rotate(-0 187.966484 110.558281)">c2h4</text>
    </g>
   </g>
  </g>
 </g>
 <defs>
  <clipPath id="p9034778d62">
   <rect x="70.83" y="11.88" width="230.49" height="175.14"/>
  </clipPath>
 </defs>
</svg>
