<?xml version="1.0" encoding="utf-8" standalone="no"?>
<!DOCTYPE svg PUBLIC "-//W3C//DTD SVG 1.1//EN"
  "http://www.w3.org/Graphics/SVG/1.1/DTD/svg11.dtd">
<svg xmlns:xlink="http://www.w3.org/1999/xlink" width="468pt" height="324pt" viewBox="0 0 468 324" xmlns="http://www.w3.org/2000/svg" version="1.1">
 <metadata>
  <rdf:RDF xmlns:dc="http://purl.org/dc/elements/1.1/" xmlns:cc="http://creativecommons.org/ns#" xmlns:rdf="http://www.w3.org/1999/02/22-rdf-syntax-ns#">
   <cc:Work>
    <dc:type rdf:resource="http://purl.org/dc/dcmitype/StillImage"/>
    <dc:date>2022-06-30T10:47:59.567310</dc:date>
    <dc:format>image/svg+xml</dc:format>
    <dc:creator>
     <cc:Agent>
      <dc:title>Matplotlib v3.5.0, https://matplotlib.org/</dc:title>
     </cc:Agent>
    </dc:creator>
   </cc:Work>
  </rdf:RDF>
 </metadata>
 <defs>
  <style type="text/css">*{stroke-linejoin: round; stroke-linecap: butt}</style>
 </defs>
 <g id="figure_1">
  <g id="patch_1">
   <path d="M 0 324 
L 468 324 
L 468 0 
L 0 0 
z
" style="fill: #ffffff"/>
  </g>
  <g id="axes_1">
   <g id="patch_2">
    <path d="M 81.54 264.42 
L 452.88 264.42 
L 452.88 15.12 
L 81.54 15.12 
z
" style="fill: #ffffff"/>
   </g>
   <g id="matplotlib.axis_1">
    <g id="xtick_1">
     <g id="line2d_1">
      <defs>
       <path id="m26ef9a93dc" d="M 0 0 
L 0 6 
" style="stroke: #000000; stroke-width: 1.5"/>
      </defs>
      <g>
       <use xlink:href="#m26ef9a93dc" x="98.419091" y="264.42" style="stroke: #000000; stroke-width: 1.5"/>
      </g>
     </g>
     <g id="text_1">
      <text style="font: 14px 'sans-serif'; text-anchor: middle" x="98.419091" y="284.557813" transform="rotate(-0, 98.419091, 284.557813)">0</text>
     </g>
    </g>
    <g id="xtick_2">
     <g id="line2d_2">
      <g>
       <use xlink:href="#m26ef9a93dc" x="150.206475" y="264.42" style="stroke: #000000; stroke-width: 1.5"/>
      </g>
     </g>
     <g id="text_2">
      <text style="font: 14px 'sans-serif'; text-anchor: middle" x="150.206475" y="284.557813" transform="rotate(-0, 150.206475, 284.557813)">1</text>
     </g>
    </g>
    <g id="xtick_3">
     <g id="line2d_3">
      <g>
       <use xlink:href="#m26ef9a93dc" x="201.993859" y="264.42" style="stroke: #000000; stroke-width: 1.5"/>
      </g>
     </g>
     <g id="text_3">
      <text style="font: 14px 'sans-serif'; text-anchor: middle" x="201.993859" y="284.557813" transform="rotate(-0, 201.993859, 284.557813)">2</text>
     </g>
    </g>
    <g id="xtick_4">
     <g id="line2d_4">
      <g>
       <use xlink:href="#m26ef9a93dc" x="253.781244" y="264.42" style="stroke: #000000; stroke-width: 1.5"/>
      </g>
     </g>
     <g id="text_4">
      <text style="font: 14px 'sans-serif'; text-anchor: middle" x="253.781244" y="284.557813" transform="rotate(-0, 253.781244, 284.557813)">3</text>
     </g>
    </g>
    <g id="xtick_5">
     <g id="line2d_5">
      <g>
       <use xlink:href="#m26ef9a93dc" x="305.568628" y="264.42" style="stroke: #000000; stroke-width: 1.5"/>
      </g>
     </g>
     <g id="text_5">
      <text style="font: 14px 'sans-serif'; text-anchor: middle" x="305.568628" y="284.557813" transform="rotate(-0, 305.568628, 284.557813)">4</text>
     </g>
    </g>
    <g id="xtick_6">
     <g id="line2d_6">
      <g>
       <use xlink:href="#m26ef9a93dc" x="357.356012" y="264.42" style="stroke: #000000; stroke-width: 1.5"/>
      </g>
     </g>
     <g id="text_6">
      <text style="font: 14px 'sans-serif'; text-anchor: middle" x="357.356012" y="284.557813" transform="rotate(-0, 357.356012, 284.557813)">5</text>
     </g>
    </g>
    <g id="xtick_7">
     <g id="line2d_7">
      <g>
       <use xlink:href="#m26ef9a93dc" x="409.143396" y="264.42" style="stroke: #000000; stroke-width: 1.5"/>
      </g>
     </g>
     <g id="text_7">
      <text style="font: 14px 'sans-serif'; text-anchor: middle" x="409.143396" y="284.557813" transform="rotate(-0, 409.143396, 284.557813)">6</text>
     </g>
    </g>
    <g id="text_8">
     <text style="font: 18px 'sans-serif'; text-anchor: middle" x="267.21" y="305.146563" transform="rotate(-0, 267.21, 305.146563)">Time [hr]</text>
    </g>
   </g>
   <g id="matplotlib.axis_2">
    <g id="ytick_1">
     <g id="line2d_8">
      <defs>
       <path id="mbd1c45847d" d="M 0 0 
L -6 0 
" style="stroke: #000000; stroke-width: 1.5"/>
      </defs>
      <g>
       <use xlink:href="#mbd1c45847d" x="81.54" y="253.088182" style="stroke: #000000; stroke-width: 1.5"/>
      </g>
     </g>
     <g id="text_9">
      <text style="font: 14px 'sans-serif'; text-anchor: end" x="72.04" y="258.407088" transform="rotate(-0, 72.04, 258.407088)">0</text>
     </g>
    </g>
    <g id="ytick_2">
     <g id="line2d_9">
      <g>
       <use xlink:href="#mbd1c45847d" x="81.54" y="220.393957" style="stroke: #000000; stroke-width: 1.5"/>
      </g>
     </g>
     <g id="text_10">
      <text style="font: 14px 'sans-serif'; text-anchor: end" x="72.04" y="225.712864" transform="rotate(-0, 72.04, 225.712864)">500</text>
     </g>
    </g>
    <g id="ytick_3">
     <g id="line2d_10">
      <g>
       <use xlink:href="#mbd1c45847d" x="81.54" y="187.699733" style="stroke: #000000; stroke-width: 1.5"/>
      </g>
     </g>
     <g id="text_11">
      <text style="font: 14px 'sans-serif'; text-anchor: end" x="72.04" y="193.018639" transform="rotate(-0, 72.04, 193.018639)">1000</text>
     </g>
    </g>
    <g id="ytick_4">
     <g id="line2d_11">
      <g>
       <use xlink:href="#mbd1c45847d" x="81.54" y="155.005509" style="stroke: #000000; stroke-width: 1.5"/>
      </g>
     </g>
     <g id="text_12">
      <text style="font: 14px 'sans-serif'; text-anchor: end" x="72.04" y="160.324415" transform="rotate(-0, 72.04, 160.324415)">1500</text>
     </g>
    </g>
    <g id="ytick_5">
     <g id="line2d_12">
      <g>
       <use xlink:href="#mbd1c45847d" x="81.54" y="122.311284" style="stroke: #000000; stroke-width: 1.5"/>
      </g>
     </g>
     <g id="text_13">
      <text style="font: 14px 'sans-serif'; text-anchor: end" x="72.04" y="127.63019" transform="rotate(-0, 72.04, 127.63019)">2000</text>
     </g>
    </g>
    <g id="ytick_6">
     <g id="line2d_13">
      <g>
       <use xlink:href="#mbd1c45847d" x="81.54" y="89.61706" style="stroke: #000000; stroke-width: 1.5"/>
      </g>
     </g>
     <g id="text_14">
      <text style="font: 14px 'sans-serif'; text-anchor: end" x="72.04" y="94.935966" transform="rotate(-0, 72.04, 94.935966)">2500</text>
     </g>
    </g>
    <g id="ytick_7">
     <g id="line2d_14">
      <g>
       <use xlink:href="#mbd1c45847d" x="81.54" y="56.922835" style="stroke: #000000; stroke-width: 1.5"/>
      </g>
     </g>
     <g id="text_15">
      <text style="font: 14px 'sans-serif'; text-anchor: end" x="72.04" y="62.241742" transform="rotate(-0, 72.04, 62.241742)">3000</text>
     </g>
    </g>
    <g id="ytick_8">
     <g id="line2d_15">
      <g>
       <use xlink:href="#mbd1c45847d" x="81.54" y="24.228611" style="stroke: #000000; stroke-width: 1.5"/>
      </g>
     </g>
     <g id="text_16">
      <text style="font: 14px 'sans-serif'; text-anchor: end" x="72.04" y="29.547517" transform="rotate(-0, 72.04, 29.547517)">3500</text>
     </g>
    </g>
    <g id="text_17">
     <text style="font: 18px 'sans-serif'; text-anchor: middle" x="28.666563" y="139.77" transform="rotate(-90, 28.666563, 139.77)">Conc [ppm]</text>
    </g>
   </g>
   <g id="line2d_16">
    <defs>
     <path id="mb0c90dc407" d="M 0 3 
C 0.795609 3 1.55874 2.683901 2.12132 2.12132 
C 2.683901 1.55874 3 0.795609 3 0 
C 3 -0.795609 2.683901 -1.55874 2.12132 -2.12132 
C 1.55874 -2.683901 0.795609 -3 0 -3 
C -0.795609 -3 -1.55874 -2.683901 -2.12132 -2.12132 
C -2.683901 -1.55874 -3 -0.795609 -3 0 
C -3 0.795609 -2.683901 1.55874 -2.12132 2.12132 
C -1.55874 2.683901 -0.795609 3 0 3 
z
" style="stroke: #1f77b4"/>
    </defs>
    <g clip-path="url(#pc9a631e5fe)">
     <use xlink:href="#mb0c90dc407" x="98.419091" y="253.088182" style="fill: #1f77b4; stroke: #1f77b4"/>
     <use xlink:href="#mb0c90dc407" x="107.021551" y="253.088182" style="fill: #1f77b4; stroke: #1f77b4"/>
     <use xlink:href="#mb0c90dc407" x="115.652782" y="253.088182" style="fill: #1f77b4; stroke: #1f77b4"/>
     <use xlink:href="#mb0c90dc407" x="124.284012" y="253.088182" style="fill: #1f77b4; stroke: #1f77b4"/>
     <use xlink:href="#mb0c90dc407" x="150.479797" y="253.088182" style="fill: #1f77b4; stroke: #1f77b4"/>
     <use xlink:href="#mb0c90dc407" x="159.111028" y="253.088182" style="fill: #1f77b4; stroke: #1f77b4"/>
     <use xlink:href="#mb0c90dc407" x="167.742259" y="253.088182" style="fill: #1f77b4; stroke: #1f77b4"/>
     <use xlink:href="#mb0c90dc407" x="176.37349" y="253.088182" style="fill: #1f77b4; stroke: #1f77b4"/>
     <use xlink:href="#mb0c90dc407" x="202.367879" y="253.088182" style="fill: #1f77b4; stroke: #1f77b4"/>
     <use xlink:href="#mb0c90dc407" x="210.99911" y="253.088182" style="fill: #1f77b4; stroke: #1f77b4"/>
     <use xlink:href="#mb0c90dc407" x="219.630341" y="253.088182" style="fill: #1f77b4; stroke: #1f77b4"/>
     <use xlink:href="#mb0c90dc407" x="228.261571" y="253.088182" style="fill: #1f77b4; stroke: #1f77b4"/>
     <use xlink:href="#mb0c90dc407" x="254.356659" y="253.088182" style="fill: #1f77b4; stroke: #1f77b4"/>
     <use xlink:href="#mb0c90dc407" x="262.98789" y="253.088182" style="fill: #1f77b4; stroke: #1f77b4"/>
     <use xlink:href="#mb0c90dc407" x="271.61912" y="253.088182" style="fill: #1f77b4; stroke: #1f77b4"/>
     <use xlink:href="#mb0c90dc407" x="280.250351" y="253.088182" style="fill: #1f77b4; stroke: #1f77b4"/>
     <use xlink:href="#mb0c90dc407" x="306.244741" y="253.088182" style="fill: #1f77b4; stroke: #1f77b4"/>
     <use xlink:href="#mb0c90dc407" x="314.875972" y="253.088182" style="fill: #1f77b4; stroke: #1f77b4"/>
     <use xlink:href="#mb0c90dc407" x="323.507202" y="253.088182" style="fill: #1f77b4; stroke: #1f77b4"/>
     <use xlink:href="#mb0c90dc407" x="332.138433" y="253.088182" style="fill: #1f77b4; stroke: #1f77b4"/>
     <use xlink:href="#mb0c90dc407" x="358.219135" y="253.088182" style="fill: #1f77b4; stroke: #1f77b4"/>
     <use xlink:href="#mb0c90dc407" x="366.850366" y="253.088182" style="fill: #1f77b4; stroke: #1f77b4"/>
     <use xlink:href="#mb0c90dc407" x="375.481596" y="253.088182" style="fill: #1f77b4; stroke: #1f77b4"/>
     <use xlink:href="#mb0c90dc407" x="384.112827" y="253.088182" style="fill: #1f77b4; stroke: #1f77b4"/>
     <use xlink:href="#mb0c90dc407" x="410.107217" y="253.088182" style="fill: #1f77b4; stroke: #1f77b4"/>
     <use xlink:href="#mb0c90dc407" x="418.738448" y="253.088182" style="fill: #1f77b4; stroke: #1f77b4"/>
     <use xlink:href="#mb0c90dc407" x="427.369678" y="253.088182" style="fill: #1f77b4; stroke: #1f77b4"/>
     <use xlink:href="#mb0c90dc407" x="436.000909" y="253.088182" style="fill: #1f77b4; stroke: #1f77b4"/>
    </g>
   </g>
   <g id="line2d_17">
    <defs>
     <path id="m7033f831bc" d="M 0 3 
C 0.795609 3 1.55874 2.683901 2.12132 2.12132 
C 2.683901 1.55874 3 0.795609 3 0 
C 3 -0.795609 2.683901 -1.55874 2.12132 -2.12132 
C 1.55874 -2.683901 0.795609 -3 0 -3 
C -0.795609 -3 -1.55874 -2.683901 -2.12132 -2.12132 
C -2.683901 -1.55874 -3 -0.795609 -3 0 
C -3 0.795609 -2.683901 1.55874 -2.12132 2.12132 
C -1.55874 2.683901 -0.795609 3 0 3 
z
" style="stroke: #ff7f0e"/>
    </defs>
    <g clip-path="url(#pc9a631e5fe)">
     <use xlink:href="#m7033f831bc" x="98.419091" y="220.590123" style="fill: #ff7f0e; stroke: #ff7f0e"/>
     <use xlink:href="#m7033f831bc" x="107.021551" y="220.7209" style="fill: #ff7f0e; stroke: #ff7f0e"/>
     <use xlink:href="#m7033f831bc" x="115.652782" y="220.590123" style="fill: #ff7f0e; stroke: #ff7f0e"/>
     <use xlink:href="#m7033f831bc" x="124.284012" y="220.982453" style="fill: #ff7f0e; stroke: #ff7f0e"/>
     <use xlink:href="#m7033f831bc" x="150.479797" y="226.148141" style="fill: #ff7f0e; stroke: #ff7f0e"/>
     <use xlink:href="#m7033f831bc" x="159.111028" y="225.821199" style="fill: #ff7f0e; stroke: #ff7f0e"/>
     <use xlink:href="#m7033f831bc" x="167.742259" y="225.625033" style="fill: #ff7f0e; stroke: #ff7f0e"/>
     <use xlink:href="#m7033f831bc" x="176.37349" y="225.494256" style="fill: #ff7f0e; stroke: #ff7f0e"/>
     <use xlink:href="#m7033f831bc" x="202.367879" y="225.232703" style="fill: #ff7f0e; stroke: #ff7f0e"/>
     <use xlink:href="#m7033f831bc" x="210.99911" y="225.494256" style="fill: #ff7f0e; stroke: #ff7f0e"/>
     <use xlink:href="#m7033f831bc" x="219.630341" y="225.494256" style="fill: #ff7f0e; stroke: #ff7f0e"/>
     <use xlink:href="#m7033f831bc" x="228.261571" y="225.428868" style="fill: #ff7f0e; stroke: #ff7f0e"/>
     <use xlink:href="#m7033f831bc" x="254.356659" y="229.286786" style="fill: #ff7f0e; stroke: #ff7f0e"/>
     <use xlink:href="#m7033f831bc" x="262.98789" y="229.15601" style="fill: #ff7f0e; stroke: #ff7f0e"/>
     <use xlink:href="#m7033f831bc" x="271.61912" y="229.025233" style="fill: #ff7f0e; stroke: #ff7f0e"/>
     <use xlink:href="#m7033f831bc" x="280.250351" y="229.025233" style="fill: #ff7f0e; stroke: #ff7f0e"/>
     <use xlink:href="#m7033f831bc" x="306.244741" y="228.567514" style="fill: #ff7f0e; stroke: #ff7f0e"/>
     <use xlink:href="#m7033f831bc" x="314.875972" y="228.69829" style="fill: #ff7f0e; stroke: #ff7f0e"/>
     <use xlink:href="#m7033f831bc" x="323.507202" y="228.632902" style="fill: #ff7f0e; stroke: #ff7f0e"/>
     <use xlink:href="#m7033f831bc" x="332.138433" y="228.567514" style="fill: #ff7f0e; stroke: #ff7f0e"/>
     <use xlink:href="#m7033f831bc" x="358.219135" y="229.482952" style="fill: #ff7f0e; stroke: #ff7f0e"/>
     <use xlink:href="#m7033f831bc" x="366.850366" y="229.286786" style="fill: #ff7f0e; stroke: #ff7f0e"/>
     <use xlink:href="#m7033f831bc" x="375.481596" y="229.221398" style="fill: #ff7f0e; stroke: #ff7f0e"/>
     <use xlink:href="#m7033f831bc" x="384.112827" y="229.15601" style="fill: #ff7f0e; stroke: #ff7f0e"/>
     <use xlink:href="#m7033f831bc" x="410.107217" y="228.829067" style="fill: #ff7f0e; stroke: #ff7f0e"/>
     <use xlink:href="#m7033f831bc" x="418.738448" y="228.894456" style="fill: #ff7f0e; stroke: #ff7f0e"/>
     <use xlink:href="#m7033f831bc" x="427.369678" y="228.763679" style="fill: #ff7f0e; stroke: #ff7f0e"/>
     <use xlink:href="#m7033f831bc" x="436.000909" y="228.894456" style="fill: #ff7f0e; stroke: #ff7f0e"/>
    </g>
   </g>
   <g id="line2d_18">
    <defs>
     <path id="m9f3147b957" d="M 0 3 
C 0.795609 3 1.55874 2.683901 2.12132 2.12132 
C 2.683901 1.55874 3 0.795609 3 0 
C 3 -0.795609 2.683901 -1.55874 2.12132 -2.12132 
C 1.55874 -2.683901 0.795609 -3 0 -3 
C -0.795609 -3 -1.55874 -2.683901 -2.12132 -2.12132 
C -2.683901 -1.55874 -3 -0.795609 -3 0 
C -3 0.795609 -2.683901 1.55874 -2.12132 2.12132 
C -1.55874 2.683901 -0.795609 3 0 3 
z
" style="stroke: #2ca02c"/>
    </defs>
    <g clip-path="url(#pc9a631e5fe)">
     <use xlink:href="#m9f3147b957" x="98.419091" y="51.430206" style="fill: #2ca02c; stroke: #2ca02c"/>
     <use xlink:href="#m9f3147b957" x="107.021551" y="51.299429" style="fill: #2ca02c; stroke: #2ca02c"/>
     <use xlink:href="#m9f3147b957" x="115.652782" y="51.887925" style="fill: #2ca02c; stroke: #2ca02c"/>
     <use xlink:href="#m9f3147b957" x="124.284012" y="52.149479" style="fill: #2ca02c; stroke: #2ca02c"/>
     <use xlink:href="#m9f3147b957" x="150.479797" y="37.960185" style="fill: #2ca02c; stroke: #2ca02c"/>
     <use xlink:href="#m9f3147b957" x="159.111028" y="39.594896" style="fill: #2ca02c; stroke: #2ca02c"/>
     <use xlink:href="#m9f3147b957" x="167.742259" y="40.052616" style="fill: #2ca02c; stroke: #2ca02c"/>
     <use xlink:href="#m9f3147b957" x="176.37349" y="41.425773" style="fill: #2ca02c; stroke: #2ca02c"/>
     <use xlink:href="#m9f3147b957" x="202.367879" y="40.379558" style="fill: #2ca02c; stroke: #2ca02c"/>
     <use xlink:href="#m9f3147b957" x="210.99911" y="41.687327" style="fill: #2ca02c; stroke: #2ca02c"/>
     <use xlink:href="#m9f3147b957" x="219.630341" y="42.014269" style="fill: #2ca02c; stroke: #2ca02c"/>
     <use xlink:href="#m9f3147b957" x="228.261571" y="42.668153" style="fill: #2ca02c; stroke: #2ca02c"/>
     <use xlink:href="#m9f3147b957" x="254.356659" y="28.871191" style="fill: #2ca02c; stroke: #2ca02c"/>
     <use xlink:href="#m9f3147b957" x="262.98789" y="30.440514" style="fill: #2ca02c; stroke: #2ca02c"/>
     <use xlink:href="#m9f3147b957" x="271.61912" y="30.636679" style="fill: #2ca02c; stroke: #2ca02c"/>
     <use xlink:href="#m9f3147b957" x="280.250351" y="31.617506" style="fill: #2ca02c; stroke: #2ca02c"/>
     <use xlink:href="#m9f3147b957" x="306.244741" y="30.17896" style="fill: #2ca02c; stroke: #2ca02c"/>
     <use xlink:href="#m9f3147b957" x="314.875972" y="31.748283" style="fill: #2ca02c; stroke: #2ca02c"/>
     <use xlink:href="#m9f3147b957" x="323.507202" y="32.009836" style="fill: #2ca02c; stroke: #2ca02c"/>
     <use xlink:href="#m9f3147b957" x="332.138433" y="32.402167" style="fill: #2ca02c; stroke: #2ca02c"/>
     <use xlink:href="#m9f3147b957" x="358.219135" y="27.040314" style="fill: #2ca02c; stroke: #2ca02c"/>
     <use xlink:href="#m9f3147b957" x="366.850366" y="26.451818" style="fill: #2ca02c; stroke: #2ca02c"/>
     <use xlink:href="#m9f3147b957" x="375.481596" y="27.432645" style="fill: #2ca02c; stroke: #2ca02c"/>
     <use xlink:href="#m9f3147b957" x="384.112827" y="27.759587" style="fill: #2ca02c; stroke: #2ca02c"/>
     <use xlink:href="#m9f3147b957" x="410.107217" y="27.694199" style="fill: #2ca02c; stroke: #2ca02c"/>
     <use xlink:href="#m9f3147b957" x="418.738448" y="28.47886" style="fill: #2ca02c; stroke: #2ca02c"/>
     <use xlink:href="#m9f3147b957" x="427.369678" y="28.740414" style="fill: #2ca02c; stroke: #2ca02c"/>
     <use xlink:href="#m9f3147b957" x="436.000909" y="29.721241" style="fill: #2ca02c; stroke: #2ca02c"/>
    </g>
   </g>
   <g id="patch_3">
    <path d="M 81.54 264.42 
L 81.54 15.12 
" style="fill: none; stroke: #000000; stroke-width: 2; stroke-linejoin: miter; stroke-linecap: square"/>
   </g>
   <g id="patch_4">
    <path d="M 452.88 264.42 
L 452.88 15.12 
" style="fill: none; stroke: #000000; stroke-width: 2; stroke-linejoin: miter; stroke-linecap: square"/>
   </g>
   <g id="patch_5">
    <path d="M 81.54 264.42 
L 452.88 264.42 
" style="fill: none; stroke: #000000; stroke-width: 2; stroke-linejoin: miter; stroke-linecap: square"/>
   </g>
   <g id="patch_6">
    <path d="M 81.54 15.12 
L 452.88 15.12 
" style="fill: none; stroke: #000000; stroke-width: 2; stroke-linejoin: miter; stroke-linecap: square"/>
   </g>
   <g id="legend_1">
    <g id="patch_7">
     <path d="M 363.894688 172.694063 
L 443.08 172.694063 
Q 445.88 172.694063 445.88 169.894063 
L 445.88 109.645938 
Q 445.88 106.845938 443.08 106.845938 
L 363.894688 106.845938 
Q 361.094688 106.845938 361.094688 109.645938 
L 361.094688 169.894063 
Q 361.094688 172.694063 363.894688 172.694063 
z
" style="fill: #ffffff; opacity: 0.8; stroke: #cccccc; stroke-linejoin: miter"/>
    </g>
    <g id="line2d_19">
     <g>
      <use xlink:href="#mb0c90dc407" x="380.694688" y="118.18375" style="fill: #1f77b4; stroke: #1f77b4"/>
     </g>
    </g>
    <g id="text_18">
     <text style="font: 14px 'sans-serif'; text-anchor: start" x="405.894688" y="123.08375" transform="rotate(-0, 405.894688, 123.08375)">c2h2</text>
    </g>
    <g id="line2d_20">
     <g>
      <use xlink:href="#m7033f831bc" x="380.694688" y="138.733125" style="fill: #ff7f0e; stroke: #ff7f0e"/>
     </g>
    </g>
    <g id="text_19">
     <text style="font: 14px 'sans-serif'; text-anchor: start" x="405.894688" y="143.633125" transform="rotate(-0, 405.894688, 143.633125)">c2h4</text>
    </g>
    <g id="line2d_21">
     <g>
      <use xlink:href="#m9f3147b957" x="380.694688" y="159.2825" style="fill: #2ca02c; stroke: #2ca02c"/>
     </g>
    </g>
    <g id="text_20">
     <text style="font: 14px 'sans-serif'; text-anchor: start" x="405.894688" y="164.1825" transform="rotate(-0, 405.894688, 164.1825)">c2h6</text>
    </g>
   </g>
  </g>
 </g>
 <defs>
  <clipPath id="pc9a631e5fe">
   <rect x="81.54" y="15.12" width="371.34" height="249.3"/>
  </clipPath>
 </defs>
</svg>
