<?xml version="1.0" encoding="UTF-8" standalone="no"?>
<svg
   xmlns:dc="http://purl.org/dc/elements/1.1/"
   xmlns:cc="http://creativecommons.org/ns#"
   xmlns:rdf="http://www.w3.org/1999/02/22-rdf-syntax-ns#"
   xmlns:svg="http://www.w3.org/2000/svg"
   xmlns="http://www.w3.org/2000/svg"
   xmlns:sodipodi="http://sodipodi.sourceforge.net/DTD/sodipodi-0.dtd"
   xmlns:inkscape="http://www.inkscape.org/namespaces/inkscape"
   width="122.41374mm"
   height="44.615433mm"
   viewBox="0 0 122.41374 44.615433"
   version="1.1"
   id="svg8"
   inkscape:version="1.0.1 (3bc2e813f5, 2020-09-07)"
   sodipodi:docname="drawing.svg">
  <defs
     id="defs2">
    <clipPath
       clipPathUnits="userSpaceOnUse"
       id="clipPath849">
      <path
         d="M 0,126.47 H 347 V 0 H 0 Z"
         id="path847" />
    </clipPath>
  </defs>
  <sodipodi:namedview
     id="base"
     pagecolor="#ffffff"
     bordercolor="#666666"
     borderopacity="1.0"
     inkscape:pageopacity="0.0"
     inkscape:pageshadow="2"
     inkscape:zoom="2.4217912"
     inkscape:cx="342.55465"
     inkscape:cy="25.694784"
     inkscape:document-units="mm"
     inkscape:current-layer="layer1"
     inkscape:document-rotation="0"
     showgrid="false"
     inkscape:window-width="2880"
     inkscape:window-height="1706"
     inkscape:window-x="-11"
     inkscape:window-y="-11"
     inkscape:window-maximized="1" />
  <metadata
     id="metadata5">
    <rdf:RDF>
      <cc:Work
         rdf:about="">
        <dc:format>image/svg+xml</dc:format>
        <dc:type
           rdf:resource="http://purl.org/dc/dcmitype/StillImage" />
        <dc:title />
      </cc:Work>
    </rdf:RDF>
  </metadata>
  <g
     inkscape:label="Layer 1"
     inkscape:groupmode="layer"
     id="layer1"
     transform="translate(-41.849036,-94.329201)">
    <path
       id="path853"
       style="fill:#000000;fill-opacity:1;fill-rule:nonzero;stroke:none;stroke-width:1.33333"
       d="M 65.332031 17.441406 L 65.332031 65.839844 C 61.076442 64.714067 56.609531 64.107422 52 64.107422 C 42.163999 64.107422 32.967044 66.838044 25.123047 71.582031 C 10.065711 80.691373 0 97.22343 0 116.10742 C 0 144.82609 23.281335 168.10742 52 168.10742 C 80.111045 168.10742 102.98705 145.79407 103.94336 117.91602 L 65.160156 118.94727 C 65.125645 119.07044 65.1023 119.19857 65.064453 119.32031 L 72.644531 122.1543 L 71.242188 125.90039 L 63.316406 122.9375 C 63.251941 123.03226 63.17809 123.11986 63.111328 123.21289 L 76.748047 136.84961 L 73.919922 139.67773 L 60.330078 126.08789 C 60.00612 126.3374 59.672181 126.57278 59.326172 126.79297 L 62.302734 133.97656 L 58.607422 135.50586 L 55.671875 128.42188 C 55.127704 128.57339 54.569226 128.68783 54 128.77148 L 54 148.22656 L 50 148.22656 L 50 128.77148 C 49.461091 128.69233 48.932573 128.58539 48.416016 128.44531 L 45.439453 135.62891 L 41.744141 134.09961 L 44.75 126.8418 C 44.37595 126.6073 44.014605 126.35641 43.666016 126.08789 L 30.078125 139.67578 L 27.25 136.84766 L 40.884766 123.21094 C 40.58863 122.79811 40.310082 122.37311 40.060547 121.92773 L 32.878906 124.61328 L 31.478516 120.86719 L 38.642578 118.18945 C 38.575117 117.88137 38.526781 117.56743 38.480469 117.25195 L 19.027344 117.25195 L 19.027344 113.25195 L 38.480469 113.25195 C 38.547379 112.79693 38.635526 112.34945 38.746094 111.91016 L 30.949219 108.99414 L 32.349609 105.24805 L 40.283203 108.21484 C 40.573375 107.73306 40.890843 107.2708 41.236328 106.83008 L 27.207031 92.802734 L 30.037109 89.974609 L 44.134766 104.07227 C 44.577625 103.76024 45.034266 103.46567 45.513672 103.20703 L 42.53125 96.007812 L 46.226562 94.474609 L 49.279297 101.8457 C 49.515598 101.79802 49.759458 101.77166 50 101.73633 L 50 81.966797 L 54 81.966797 L 54 101.73633 C 54.615895 101.82684 55.220295 101.9533 55.806641 102.12305 L 58.847656 94.78125 L 62.544922 96.314453 L 59.447266 103.78906 C 59.754726 103.98922 60.050137 104.2042 60.339844 104.42773 L 74.070312 90.697266 L 76.898438 93.527344 L 63.119141 107.30469 C 63.203588 107.42259 63.294248 107.5356 63.375 107.65625 L 71.242188 104.71289 L 72.644531 108.46094 L 65.089844 111.28516 C 65.116989 111.3748 65.134812 111.46818 65.160156 111.55859 L 104 112.58984 L 104 17.441406 L 65.332031 17.441406 z "
       transform="matrix(0.26458333,0,0,0.26458333,41.849036,94.329201)" />
    <g
       id="g857"
       transform="matrix(0.35277777,0,0,-0.35277777,71.884394,126.19274)">
      <path
         d="M 0,0 V 8.367 L 35.859,7.156 V 1.18 Z"
         style="fill:#000000;fill-opacity:1;fill-rule:nonzero;stroke:none"
         id="path859" />
    </g>
    <path
       id="path925"
       style="fill:#000000;fill-opacity:1;fill-rule:nonzero;stroke:none;stroke-width:1.33333"
       d="M 291.71094 60.958984 L 291.71094 85.857422 C 303.45501 89.441587 312 100.36058 312 113.27734 C 312 123.51065 306.63412 132.4846 298.56641 137.55664 L 298.56641 166.43945 L 337.52539 166.43945 L 337.52539 115.50195 C 337.52539 98.488637 332.68276 85.068215 322.99609 75.240234 C 314.9968 67.127569 304.56284 62.373278 291.71094 60.958984 z M 272.28711 61.503906 C 261.87525 63.481575 252.73627 68.388319 244.86914 76.228516 C 234.34781 86.716516 229.08789 99.495829 229.08789 114.5625 C 229.08789 130.05051 234.29557 142.93298 244.71289 153.20898 C 255.12889 163.48767 268.15007 168.625 283.77539 168.625 C 286.41271 168.625 289.33071 168.3457 292.52539 167.79102 L 292.52539 140.42773 C 289.639 141.40461 286.5503 141.94336 283.33398 141.94336 C 267.502 141.94336 254.66602 129.10933 254.66602 113.27734 C 254.66602 101.36089 261.93946 91.143851 272.28711 86.818359 L 272.28711 61.503906 z "
       transform="matrix(0.26458333,0,0,0.26458333,41.849036,94.329201)" />
    <path
       id="path929"
       style="fill:#000000;fill-opacity:1;fill-rule:nonzero;stroke:none;stroke-width:1.33333"
       d="M 358.66602 18.773438 L 358.66602 116.10742 L 358.66602 118.77344 L 358.73438 118.77344 C 360.12217 146.2531 382.84154 168.10742 410.66602 168.10742 C 439.38468 168.10742 462.66602 144.82609 462.66602 116.10742 C 462.66602 87.388773 439.38468 64.107422 410.66602 64.107422 C 406.05526 64.107422 401.58864 64.713488 397.33203 65.839844 L 397.33203 18.773438 L 358.66602 18.773438 z M 409.94922 75.349609 C 411.01588 75.349609 411.88086 77.510458 411.88086 80.175781 C 411.88086 82.841142 411.01588 85.001953 409.94922 85.001953 C 408.88124 85.001953 408.01758 82.841142 408.01758 80.175781 C 408.01758 77.510458 408.88124 75.349609 409.94922 75.349609 z M 375.90039 95.359375 C 376.9085 95.347858 378.34766 95.789708 379.79102 96.623047 C 382.09898 97.956351 383.53919 99.785031 383.00586 100.70898 C 382.47385 101.63297 380.16731 101.30073 377.85938 99.96875 C 375.55005 98.635408 374.1112 96.806831 374.64453 95.882812 C 374.84504 95.536327 375.29552 95.366285 375.90039 95.359375 z M 443.84375 95.359375 C 444.44862 95.366285 444.89715 95.536325 445.09766 95.882812 C 445.63099 96.806831 444.19214 98.635408 441.88281 99.96875 C 439.57481 101.30073 437.27029 101.63297 436.73828 100.70898 C 436.20495 99.785023 437.6432 97.956351 439.95117 96.623047 C 441.39453 95.789708 442.83564 95.347858 443.84375 95.359375 z M 410.66602 96.107422 C 421.71134 96.107422 430.66602 105.06209 430.66602 116.10742 C 430.66602 127.15275 421.71134 136.10742 410.66602 136.10742 C 400.69723 136.10742 392.43454 128.81165 390.91797 119.26953 L 402.48633 119.26953 C 403.96179 121.21187 406.7483 122.52539 409.94922 122.52539 C 413.36897 122.52539 416.3144 121.02441 417.69336 118.85938 L 423.00391 116.10742 L 417.69336 113.35352 C 416.31419 111.18839 413.36857 109.68945 409.94922 109.68945 C 406.74777 109.68945 403.9616 111.00204 402.48633 112.94531 L 390.91797 112.94531 C 392.43454 103.4032 400.69723 96.107422 410.66602 96.107422 z M 437.99219 131.20703 C 439.00037 131.19551 440.44141 131.63736 441.88477 132.4707 C 444.19273 133.80401 445.63099 135.63461 445.09766 136.55859 C 444.56433 137.48257 442.26113 137.15034 439.95312 135.81836 C 437.64384 134.48502 436.20495 132.65449 436.73828 131.73047 C 436.93828 131.38398 437.38728 131.21394 437.99219 131.20703 z M 381.65625 131.26367 C 382.26112 131.27042 382.70965 131.43866 382.91016 131.78516 C 383.44349 132.70918 382.00464 134.53971 379.69531 135.87305 C 377.38731 137.20503 375.08279 137.53726 374.55078 136.61328 C 374.01745 135.6893 375.4557 133.85869 377.76367 132.52539 C 379.20703 131.69288 380.64814 131.25243 381.65625 131.26367 z M 409.94922 147.21289 C 411.01588 147.21289 411.88086 149.37374 411.88086 152.03906 C 411.88086 154.70575 411.01588 156.86523 409.94922 156.86523 C 408.88124 156.86523 408.01758 154.70575 408.01758 152.03906 C 408.01758 149.37374 408.88124 147.21289 409.94922 147.21289 z "
       transform="matrix(0.26458333,0,0,0.26458333,41.849036,94.329201)" />
    <g
       id="g939"
       transform="matrix(0.35277777,0,0,-0.35277777,110.02126,124.27109)">
      <path
         d="M 0,0 C 7.202,-4.057 13.607,-3.243 20.086,0.85 25.109,4.023 30.571,3.859 35.932,1.227 37.074,0.665 37.526,0.051 37.357,-1.369 36.243,-10.766 28.666,-18.047 19.648,-18.226 9.643,-18.424 1.846,-11.891 0.381,-2.084 0.301,-1.549 0.187,-1.018 0,0"
         style="fill:#000000;fill-opacity:1;fill-rule:nonzero;stroke:none"
         id="path941" />
    </g>
    <g
       id="g943"
       transform="matrix(0.35277777,0,0,-0.35277777,118.86963,106.8172)">
      <path
         d="m 0,0 c -0.091,-3.031 -2.765,-5.615 -5.765,-5.57 -3.101,0.046 -5.904,2.866 -5.824,5.86 0.08,2.992 3.029,5.817 6.001,5.747 C -2.506,5.965 0.095,3.155 0,0"
         style="fill:#000000;fill-opacity:1;fill-rule:nonzero;stroke:none"
         id="path945" />
    </g>
    <g
       id="g947"
       transform="matrix(0.35277777,0,0,-0.35277777,114.4816,101.19272)">
      <path
         d="m 0,0 c 0.037,-2.641 -1.836,-4.633 -4.374,-4.655 -2.421,-0.022 -4.406,1.9 -4.475,4.331 -0.073,2.609 1.804,4.735 4.276,4.843 C -2.123,4.627 -0.035,2.563 0,0"
         style="fill:#000000;fill-opacity:1;fill-rule:nonzero;stroke:none"
         id="path949" />
    </g>
    <g
       id="g951"
       transform="matrix(0.35277777,0,0,-0.35277777,116.69095,95.573252)">
      <path
         d="m 0,0 c -0.026,-2.049 -1.496,-3.488 -3.502,-3.431 -1.964,0.056 -3.451,1.615 -3.417,3.583 0.036,2.088 1.382,3.346 3.568,3.334 C -1.187,3.474 0.029,2.21 0,0"
         style="fill:#000000;fill-opacity:1;fill-rule:nonzero;stroke:none"
         id="path953" />
    </g>
    <path
       id="path993"
       style="fill:#000000;fill-opacity:1;fill-rule:nonzero;stroke:none;stroke-width:1.33333"
       d="M 169.04492 53.714844 L 169.04492 167.42969 L 208.00391 167.42969 L 208.00391 53.714844 L 169.04492 53.714844 z M 182.25977 132.44922 C 184.27976 132.44922 185.91797 134.28164 185.91797 136.54297 C 185.91797 138.8043 184.27976 140.63867 182.25977 140.63867 C 180.2371 140.63867 178.59961 138.8043 178.59961 136.54297 C 178.59961 134.28164 180.2371 132.44922 182.25977 132.44922 z M 194.70117 144.37305 C 195.89184 144.37305 196.85742 145.49492 196.85742 146.87891 C 196.85742 148.26289 195.89184 149.38672 194.70117 149.38672 C 193.5105 149.38672 192.54492 148.26289 192.54492 146.87891 C 192.54492 145.49492 193.5105 144.37305 194.70117 144.37305 z M 181.75391 148.47461 C 185.29524 148.47461 188.16406 151.54784 188.16406 155.33984 C 188.16406 159.13317 185.29524 162.20703 181.75391 162.20703 C 178.21391 162.20703 175.34375 159.13317 175.34375 155.33984 C 175.34375 151.54784 178.21391 148.47461 181.75391 148.47461 z "
       transform="matrix(0.26458333,0,0,0.26458333,41.849036,94.329201)" />
    <g
       id="g995"
       transform="matrix(0.35277777,0,0,-0.35277777,88.824959,104.92169)">
      <path
         d="M 0,0 C 3.603,-2.303 8.296,-1.288 10.677,2.308 13.143,6.03 12.01,11.409 8.229,13.937 4.76,16.256 -0.153,15.299 -2.548,11.839 -5.067,8.198 -3.83,2.448 0,0 m 11.897,-8.269 c 1.828,-1.213 4.187,-0.663 5.403,1.262 1.212,1.918 0.758,4.296 -1.048,5.484 -1.83,1.205 -4.264,0.661 -5.44,-1.215 -1.163,-1.853 -0.669,-4.366 1.085,-5.531 M -16.882,2.232 c 2.24,0.565 4.456,1.228 6.543,1.81 0.42,2.335 -0.483,3.307 -2.457,3.673 -1.166,0.217 -2.369,0.651 -3.351,1.298 -0.59,0.387 -1.232,1.52 -1.053,2.05 0.24,0.717 1.166,1.419 1.946,1.677 0.754,0.249 1.711,-0.201 2.554,-0.113 1.075,0.113 2.445,0.125 3.12,0.772 1.396,1.341 0.309,2.651 -0.704,3.784 -1.441,1.612 -2.859,3.245 -4.332,4.827 -1.098,1.178 -2.397,2.416 -0.884,3.972 1.319,1.356 2.687,0.455 3.903,-0.517 2.028,-1.618 4.014,-3.303 6.153,-4.761 0.692,-0.472 0.926,-0.636 1.69,-0.348 0.525,0.197 0.942,1.425 0.92,2.177 -0.049,1.633 -0.627,3.267 -0.552,4.88 0.037,0.791 0.913,1.887 1.668,2.181 0.524,0.203 1.819,-0.541 2.188,-1.192 0.801,-1.41 1.264,-3.019 1.802,-4.569 1.247,-3.581 3.018,-3.906 5.74,-1.18 2.346,2.349 4.774,4.642 7.435,6.629 0.978,0.731 2.079,1.178 3.159,0.103 1.489,-1.481 0.249,-2.804 -0.775,-4.048 -1.54,-1.871 -3.058,-3.764 -4.486,-5.719 -0.65,-0.889 -1.758,-1.733 -0.401,-3.108 1.247,-1.264 2.291,-1.183 3.605,-0.289 0.928,0.632 1.889,1.378 2.926,1.631 1.305,0.317 2.673,0.208 3.211,-0.11 0.251,-0.149 0.5,-0.285 0.465,-0.575 -0.118,-1.023 -0.439,-2.14 -1.041,-2.844 -1.21,-1.414 -2.841,-2.468 -4.392,-3.753 0.479,-0.967 0.89,-1.798 1.359,-2.745 1.633,0.291 3.168,0.817 4.677,0.753 1.181,-0.05 2.933,-0.52 3.362,-1.354 0.802,-1.558 -0.68,-2.402 -2.067,-2.918 -1.287,-0.479 -2.277,-0.855 -3.72,-1.399 0.261,-1.094 0.569,-2.107 0.733,-3.12 1.066,-6.576 0.775,-8.699 0.775,-15.835 H 22.38 -6.392 c 0.01,5.924 0.21,9.313 -1.505,14.371 -2.706,-0.224 -5.453,-0.479 -8.206,-0.67 -1.636,-0.113 -3.639,-0.419 -3.917,1.846 -0.248,2.028 1.583,2.341 3.138,2.733"
         style="fill:#000000;fill-opacity:1;fill-rule:nonzero;stroke:none"
         id="path997" />
    </g>
    <g
       id="g1011"
       transform="matrix(0.35277777,0,0,-0.35277777,92.379266,101.92724)">
      <path
         d="m 0,0 c -0.026,-2.049 -1.496,-3.487 -3.502,-3.431 -1.964,0.056 -3.451,1.616 -3.417,3.583 0.036,2.088 1.382,3.346 3.568,3.334 C -1.187,3.475 0.029,2.21 0,0"
         style="fill:#000000;fill-opacity:1;fill-rule:nonzero;stroke:none"
         id="path1013" />
    </g>
  </g>
</svg>
