<?xml version="1.0" encoding="utf-8" standalone="no"?>
<!DOCTYPE svg PUBLIC "-//W3C//DTD SVG 1.1//EN"
  "http://www.w3.org/Graphics/SVG/1.1/DTD/svg11.dtd">
<svg xmlns:xlink="http://www.w3.org/1999/xlink" width="313.2pt" height="234pt" viewBox="0 0 313.2 234" xmlns="http://www.w3.org/2000/svg" version="1.1">
 <metadata>
  <rdf:RDF xmlns:dc="http://purl.org/dc/elements/1.1/" xmlns:cc="http://creativecommons.org/ns#" xmlns:rdf="http://www.w3.org/1999/02/22-rdf-syntax-ns#">
   <cc:Work>
    <dc:type rdf:resource="http://purl.org/dc/dcmitype/StillImage"/>
    <dc:date>2023-03-02T19:31:04.058353</dc:date>
    <dc:format>image/svg+xml</dc:format>
    <dc:creator>
     <cc:Agent>
      <dc:title>Matplotlib v3.7.0, https://matplotlib.org/</dc:title>
     </cc:Agent>
    </dc:creator>
   </cc:Work>
  </rdf:RDF>
 </metadata>
 <defs>
  <style type="text/css">*{stroke-linejoin: round; stroke-linecap: butt}</style>
 </defs>
 <g id="figure_1">
  <g id="patch_1">
   <path d="M 0 234 
L 313.2 234 
L 313.2 0 
L 0 0 
z
" style="fill: #ffffff"/>
  </g>
  <g id="axes_1">
   <g id="patch_2">
    <path d="M 70.83 187.02 
L 301.32 187.02 
L 301.32 11.88 
L 70.83 11.88 
z
" style="fill: #ffffff"/>
   </g>
   <g id="matplotlib.axis_1">
    <g id="xtick_1">
     <g id="line2d_1">
      <defs>
       <path id="ma47af3589c" d="M 0 0 
L 0 6 
" style="stroke: #000000; stroke-width: 1.5"/>
      </defs>
      <g>
       <use xlink:href="#ma47af3589c" x="81.306818" y="187.02" style="stroke: #000000; stroke-width: 1.5"/>
      </g>
     </g>
     <g id="text_1">
      <text style="font: 11px 'DejaVu Sans', 'Bitstream Vera Sans', 'Computer Modern Sans Serif', 'Lucida Grande', 'Verdana', 'Geneva', 'Lucid', 'Arial', 'Helvetica', 'Avant Garde', sans-serif; text-anchor: middle" x="81.306818" y="204.878281" transform="rotate(-0 81.306818 204.878281)">0</text>
     </g>
    </g>
    <g id="xtick_2">
     <g id="line2d_2">
      <g>
       <use xlink:href="#ma47af3589c" x="151.152273" y="187.02" style="stroke: #000000; stroke-width: 1.5"/>
      </g>
     </g>
     <g id="text_2">
      <text style="font: 11px 'DejaVu Sans', 'Bitstream Vera Sans', 'Computer Modern Sans Serif', 'Lucida Grande', 'Verdana', 'Geneva', 'Lucid', 'Arial', 'Helvetica', 'Avant Garde', sans-serif; text-anchor: middle" x="151.152273" y="204.878281" transform="rotate(-0 151.152273 204.878281)">100</text>
     </g>
    </g>
    <g id="xtick_3">
     <g id="line2d_3">
      <g>
       <use xlink:href="#ma47af3589c" x="220.997727" y="187.02" style="stroke: #000000; stroke-width: 1.5"/>
      </g>
     </g>
     <g id="text_3">
      <text style="font: 11px 'DejaVu Sans', 'Bitstream Vera Sans', 'Computer Modern Sans Serif', 'Lucida Grande', 'Verdana', 'Geneva', 'Lucid', 'Arial', 'Helvetica', 'Avant Garde', sans-serif; text-anchor: middle" x="220.997727" y="204.878281" transform="rotate(-0 220.997727 204.878281)">200</text>
     </g>
    </g>
    <g id="xtick_4">
     <g id="line2d_4">
      <g>
       <use xlink:href="#ma47af3589c" x="290.843182" y="187.02" style="stroke: #000000; stroke-width: 1.5"/>
      </g>
     </g>
     <g id="text_4">
      <text style="font: 11px 'DejaVu Sans', 'Bitstream Vera Sans', 'Computer Modern Sans Serif', 'Lucida Grande', 'Verdana', 'Geneva', 'Lucid', 'Arial', 'Helvetica', 'Avant Garde', sans-serif; text-anchor: middle" x="290.843182" y="204.878281" transform="rotate(-0 290.843182 204.878281)">300</text>
     </g>
    </g>
    <g id="text_5">
     <text style="font: 11px 'DejaVu Sans', 'Bitstream Vera Sans', 'Computer Modern Sans Serif', 'Lucida Grande', 'Verdana', 'Geneva', 'Lucid', 'Arial', 'Helvetica', 'Avant Garde', sans-serif; text-anchor: middle" x="186.075" y="219.524219" transform="rotate(-0 186.075 219.524219)">power [mW]</text>
    </g>
   </g>
   <g id="matplotlib.axis_2">
    <g id="ytick_1">
     <g id="line2d_5">
      <defs>
       <path id="md3262de5bf" d="M 0 0 
L -6 0 
" style="stroke: #000000; stroke-width: 1.5"/>
      </defs>
      <g>
       <use xlink:href="#md3262de5bf" x="70.83" y="178.971155" style="stroke: #000000; stroke-width: 1.5"/>
      </g>
     </g>
     <g id="text_6">
      <text style="font: 11px 'DejaVu Sans', 'Bitstream Vera Sans', 'Computer Modern Sans Serif', 'Lucida Grande', 'Verdana', 'Geneva', 'Lucid', 'Arial', 'Helvetica', 'Avant Garde', sans-serif; text-anchor: end" x="61.33" y="183.150295" transform="rotate(-0 61.33 183.150295)">0</text>
     </g>
    </g>
    <g id="ytick_2">
     <g id="line2d_6">
      <g>
       <use xlink:href="#md3262de5bf" x="70.83" y="134.766528" style="stroke: #000000; stroke-width: 1.5"/>
      </g>
     </g>
     <g id="text_7">
      <text style="font: 11px 'DejaVu Sans', 'Bitstream Vera Sans', 'Computer Modern Sans Serif', 'Lucida Grande', 'Verdana', 'Geneva', 'Lucid', 'Arial', 'Helvetica', 'Avant Garde', sans-serif; text-anchor: end" x="61.33" y="138.945668" transform="rotate(-0 61.33 138.945668)">5000</text>
     </g>
    </g>
    <g id="ytick_3">
     <g id="line2d_7">
      <g>
       <use xlink:href="#md3262de5bf" x="70.83" y="90.561901" style="stroke: #000000; stroke-width: 1.5"/>
      </g>
     </g>
     <g id="text_8">
      <text style="font: 11px 'DejaVu Sans', 'Bitstream Vera Sans', 'Computer Modern Sans Serif', 'Lucida Grande', 'Verdana', 'Geneva', 'Lucid', 'Arial', 'Helvetica', 'Avant Garde', sans-serif; text-anchor: end" x="61.33" y="94.741041" transform="rotate(-0 61.33 94.741041)">10000</text>
     </g>
    </g>
    <g id="ytick_4">
     <g id="line2d_8">
      <g>
       <use xlink:href="#md3262de5bf" x="70.83" y="46.357274" style="stroke: #000000; stroke-width: 1.5"/>
      </g>
     </g>
     <g id="text_9">
      <text style="font: 11px 'DejaVu Sans', 'Bitstream Vera Sans', 'Computer Modern Sans Serif', 'Lucida Grande', 'Verdana', 'Geneva', 'Lucid', 'Arial', 'Helvetica', 'Avant Garde', sans-serif; text-anchor: end" x="61.33" y="50.536414" transform="rotate(-0 61.33 50.536414)">15000</text>
     </g>
    </g>
    <g id="text_10">
     <text style="font: 11px 'DejaVu Sans', 'Bitstream Vera Sans', 'Computer Modern Sans Serif', 'Lucida Grande', 'Verdana', 'Geneva', 'Lucid', 'Arial', 'Helvetica', 'Avant Garde', sans-serif; text-anchor: middle" x="20.048594" y="99.45" transform="rotate(-90 20.048594 99.45)">Conc (ppm)</text>
    </g>
   </g>
   <g id="LineCollection_1">
    <path d="M 81.306818 133.798642 
L 81.306818 120.21211 
" clip-path="url(#p5b1456587b)" style="fill: none; stroke: #1f77b4; stroke-width: 1.5"/>
    <path d="M 116.229545 145.056347 
L 116.229545 143.383341 
" clip-path="url(#p5b1456587b)" style="fill: none; stroke: #1f77b4; stroke-width: 1.5"/>
    <path d="M 151.152273 145.215138 
L 151.152273 142.794726 
" clip-path="url(#p5b1456587b)" style="fill: none; stroke: #1f77b4; stroke-width: 1.5"/>
    <path d="M 186.075 148.632349 
L 186.075 148.489793 
" clip-path="url(#p5b1456587b)" style="fill: none; stroke: #1f77b4; stroke-width: 1.5"/>
    <path d="M 220.997727 148.632349 
L 220.997727 148.489793 
" clip-path="url(#p5b1456587b)" style="fill: none; stroke: #1f77b4; stroke-width: 1.5"/>
    <path d="M 255.920455 150.278197 
L 255.920455 150.067627 
" clip-path="url(#p5b1456587b)" style="fill: none; stroke: #1f77b4; stroke-width: 1.5"/>
    <path d="M 290.843182 150.245099 
L 290.843182 150.057743 
" clip-path="url(#p5b1456587b)" style="fill: none; stroke: #1f77b4; stroke-width: 1.5"/>
   </g>
   <g id="LineCollection_2">
    <path d="M 81.306818 169.941648 
L 81.306818 167.626972 
" clip-path="url(#p5b1456587b)" style="fill: none; stroke: #ff7f0e; stroke-width: 1.5"/>
    <path d="M 116.229545 166.962093 
L 116.229545 166.652142 
" clip-path="url(#p5b1456587b)" style="fill: none; stroke: #ff7f0e; stroke-width: 1.5"/>
    <path d="M 151.152273 167.599598 
L 151.152273 166.745339 
" clip-path="url(#p5b1456587b)" style="fill: none; stroke: #ff7f0e; stroke-width: 1.5"/>
    <path d="M 186.075 165.834254 
L 186.075 165.759806 
" clip-path="url(#p5b1456587b)" style="fill: none; stroke: #ff7f0e; stroke-width: 1.5"/>
    <path d="M 220.997727 165.793343 
L 220.997727 165.67177 
" clip-path="url(#p5b1456587b)" style="fill: none; stroke: #ff7f0e; stroke-width: 1.5"/>
    <path d="M 255.920455 163.24638 
L 255.920455 163.103823 
" clip-path="url(#p5b1456587b)" style="fill: none; stroke: #ff7f0e; stroke-width: 1.5"/>
    <path d="M 290.843182 162.911448 
L 290.843182 162.837 
" clip-path="url(#p5b1456587b)" style="fill: none; stroke: #ff7f0e; stroke-width: 1.5"/>
   </g>
   <g id="LineCollection_3">
    <path d="M 81.306818 179.059091 
L 81.306818 169.509259 
" clip-path="url(#p5b1456587b)" style="fill: none; stroke: #2ca02c; stroke-width: 1.5"/>
    <path d="M 116.229545 161.860667 
L 116.229545 159.703809 
" clip-path="url(#p5b1456587b)" style="fill: none; stroke: #2ca02c; stroke-width: 1.5"/>
    <path d="M 151.152273 162.42302 
L 151.152273 159.012456 
" clip-path="url(#p5b1456587b)" style="fill: none; stroke: #2ca02c; stroke-width: 1.5"/>
    <path d="M 186.075 156.097635 
L 186.075 155.705888 
" clip-path="url(#p5b1456587b)" style="fill: none; stroke: #2ca02c; stroke-width: 1.5"/>
    <path d="M 220.997727 156.028589 
L 220.997727 155.817934 
" clip-path="url(#p5b1456587b)" style="fill: none; stroke: #2ca02c; stroke-width: 1.5"/>
    <path d="M 255.920455 156.084152 
L 255.920455 155.762371 
" clip-path="url(#p5b1456587b)" style="fill: none; stroke: #2ca02c; stroke-width: 1.5"/>
    <path d="M 290.843182 156.339476 
L 290.843182 156.152044 
" clip-path="url(#p5b1456587b)" style="fill: none; stroke: #2ca02c; stroke-width: 1.5"/>
   </g>
   <g id="LineCollection_4">
    <path d="M 81.306818 70.742987 
L 81.306818 19.840909 
" clip-path="url(#p5b1456587b)" style="fill: none; stroke: #d62728; stroke-width: 1.5"/>
    <path d="M 116.229545 52.90244 
L 116.229545 44.62281 
" clip-path="url(#p5b1456587b)" style="fill: none; stroke: #d62728; stroke-width: 1.5"/>
    <path d="M 151.152273 55.619738 
L 151.152273 42.249268 
" clip-path="url(#p5b1456587b)" style="fill: none; stroke: #d62728; stroke-width: 1.5"/>
    <path d="M 186.075 46.272702 
L 186.075 45.0552 
" clip-path="url(#p5b1456587b)" style="fill: none; stroke: #d62728; stroke-width: 1.5"/>
    <path d="M 220.997727 46.052788 
L 220.997727 45.103219 
" clip-path="url(#p5b1456587b)" style="fill: none; stroke: #d62728; stroke-width: 1.5"/>
    <path d="M 255.920455 44.361684 
L 255.920455 43.011868 
" clip-path="url(#p5b1456587b)" style="fill: none; stroke: #d62728; stroke-width: 1.5"/>
    <path d="M 290.843182 44.136272 
L 290.843182 43.237801 
" clip-path="url(#p5b1456587b)" style="fill: none; stroke: #d62728; stroke-width: 1.5"/>
   </g>
   <g id="line2d_9">
    <path d="M 81.306818 127.005376 
L 116.229545 144.219844 
L 151.152273 144.004932 
L 186.075 148.561071 
L 220.997727 148.561071 
L 255.920455 150.172912 
L 290.843182 150.151421 
" clip-path="url(#p5b1456587b)" style="fill: none; stroke: #1f77b4; stroke-width: 1.5; stroke-linecap: square"/>
    <defs>
     <path id="mb7b2675883" d="M 0 3 
C 0.795609 3 1.55874 2.683901 2.12132 2.12132 
C 2.683901 1.55874 3 0.795609 3 0 
C 3 -0.795609 2.683901 -1.55874 2.12132 -2.12132 
C 1.55874 -2.683901 0.795609 -3 0 -3 
C -0.795609 -3 -1.55874 -2.683901 -2.12132 -2.12132 
C -2.683901 -1.55874 -3 -0.795609 -3 0 
C -3 0.795609 -2.683901 1.55874 -2.12132 2.12132 
C -1.55874 2.683901 -0.795609 3 0 3 
z
" style="stroke: #1f77b4"/>
    </defs>
    <g clip-path="url(#p5b1456587b)">
     <use xlink:href="#mb7b2675883" x="81.306818" y="127.005376" style="fill: #1f77b4; stroke: #1f77b4"/>
     <use xlink:href="#mb7b2675883" x="116.229545" y="144.219844" style="fill: #1f77b4; stroke: #1f77b4"/>
     <use xlink:href="#mb7b2675883" x="151.152273" y="144.004932" style="fill: #1f77b4; stroke: #1f77b4"/>
     <use xlink:href="#mb7b2675883" x="186.075" y="148.561071" style="fill: #1f77b4; stroke: #1f77b4"/>
     <use xlink:href="#mb7b2675883" x="220.997727" y="148.561071" style="fill: #1f77b4; stroke: #1f77b4"/>
     <use xlink:href="#mb7b2675883" x="255.920455" y="150.172912" style="fill: #1f77b4; stroke: #1f77b4"/>
     <use xlink:href="#mb7b2675883" x="290.843182" y="150.151421" style="fill: #1f77b4; stroke: #1f77b4"/>
    </g>
   </g>
   <g id="line2d_10">
    <path d="M 81.306818 168.78431 
L 116.229545 166.807118 
L 151.152273 167.172469 
L 186.075 165.79703 
L 220.997727 165.732557 
L 255.920455 163.175101 
L 290.843182 162.874224 
" clip-path="url(#p5b1456587b)" style="fill: none; stroke: #ff7f0e; stroke-width: 1.5; stroke-linecap: square"/>
    <defs>
     <path id="m809db63659" d="M 0 3 
C 0.795609 3 1.55874 2.683901 2.12132 2.12132 
C 2.683901 1.55874 3 0.795609 3 0 
C 3 -0.795609 2.683901 -1.55874 2.12132 -2.12132 
C 1.55874 -2.683901 0.795609 -3 0 -3 
C -0.795609 -3 -1.55874 -2.683901 -2.12132 -2.12132 
C -2.683901 -1.55874 -3 -0.795609 -3 0 
C -3 0.795609 -2.683901 1.55874 -2.12132 2.12132 
C -1.55874 2.683901 -0.795609 3 0 3 
z
" style="stroke: #ff7f0e"/>
    </defs>
    <g clip-path="url(#p5b1456587b)">
     <use xlink:href="#m809db63659" x="81.306818" y="168.78431" style="fill: #ff7f0e; stroke: #ff7f0e"/>
     <use xlink:href="#m809db63659" x="116.229545" y="166.807118" style="fill: #ff7f0e; stroke: #ff7f0e"/>
     <use xlink:href="#m809db63659" x="151.152273" y="167.172469" style="fill: #ff7f0e; stroke: #ff7f0e"/>
     <use xlink:href="#m809db63659" x="186.075" y="165.79703" style="fill: #ff7f0e; stroke: #ff7f0e"/>
     <use xlink:href="#m809db63659" x="220.997727" y="165.732557" style="fill: #ff7f0e; stroke: #ff7f0e"/>
     <use xlink:href="#m809db63659" x="255.920455" y="163.175101" style="fill: #ff7f0e; stroke: #ff7f0e"/>
     <use xlink:href="#m809db63659" x="290.843182" y="162.874224" style="fill: #ff7f0e; stroke: #ff7f0e"/>
    </g>
   </g>
   <g id="line2d_11">
    <path d="M 81.306818 174.284175 
L 116.229545 160.782238 
L 151.152273 160.717738 
L 186.075 155.901761 
L 220.997727 155.923261 
L 255.920455 155.923261 
L 290.843182 156.24576 
" clip-path="url(#p5b1456587b)" style="fill: none; stroke: #2ca02c; stroke-width: 1.5; stroke-linecap: square"/>
    <defs>
     <path id="m500e7342ab" d="M 0 3 
C 0.795609 3 1.55874 2.683901 2.12132 2.12132 
C 2.683901 1.55874 3 0.795609 3 0 
C 3 -0.795609 2.683901 -1.55874 2.12132 -2.12132 
C 1.55874 -2.683901 0.795609 -3 0 -3 
C -0.795609 -3 -1.55874 -2.683901 -2.12132 -2.12132 
C -2.683901 -1.55874 -3 -0.795609 -3 0 
C -3 0.795609 -2.683901 1.55874 -2.12132 2.12132 
C -1.55874 2.683901 -0.795609 3 0 3 
z
" style="stroke: #2ca02c"/>
    </defs>
    <g clip-path="url(#p5b1456587b)">
     <use xlink:href="#m500e7342ab" x="81.306818" y="174.284175" style="fill: #2ca02c; stroke: #2ca02c"/>
     <use xlink:href="#m500e7342ab" x="116.229545" y="160.782238" style="fill: #2ca02c; stroke: #2ca02c"/>
     <use xlink:href="#m500e7342ab" x="151.152273" y="160.717738" style="fill: #2ca02c; stroke: #2ca02c"/>
     <use xlink:href="#m500e7342ab" x="186.075" y="155.901761" style="fill: #2ca02c; stroke: #2ca02c"/>
     <use xlink:href="#m500e7342ab" x="220.997727" y="155.923261" style="fill: #2ca02c; stroke: #2ca02c"/>
     <use xlink:href="#m500e7342ab" x="255.920455" y="155.923261" style="fill: #2ca02c; stroke: #2ca02c"/>
     <use xlink:href="#m500e7342ab" x="290.843182" y="156.24576" style="fill: #2ca02c; stroke: #2ca02c"/>
    </g>
   </g>
   <g id="line2d_12">
    <path d="M 81.306818 45.291948 
L 116.229545 48.762625 
L 151.152273 48.934503 
L 186.075 45.663951 
L 220.997727 45.578003 
L 255.920455 43.686776 
L 290.843182 43.687036 
" clip-path="url(#p5b1456587b)" style="fill: none; stroke: #d62728; stroke-width: 1.5; stroke-linecap: square"/>
    <defs>
     <path id="m0738455b7a" d="M 0 3 
C 0.795609 3 1.55874 2.683901 2.12132 2.12132 
C 2.683901 1.55874 3 0.795609 3 0 
C 3 -0.795609 2.683901 -1.55874 2.12132 -2.12132 
C 1.55874 -2.683901 0.795609 -3 0 -3 
C -0.795609 -3 -1.55874 -2.683901 -2.12132 -2.12132 
C -2.683901 -1.55874 -3 -0.795609 -3 0 
C -3 0.795609 -2.683901 1.55874 -2.12132 2.12132 
C -1.55874 2.683901 -0.795609 3 0 3 
z
" style="stroke: #d62728"/>
    </defs>
    <g clip-path="url(#p5b1456587b)">
     <use xlink:href="#m0738455b7a" x="81.306818" y="45.291948" style="fill: #d62728; stroke: #d62728"/>
     <use xlink:href="#m0738455b7a" x="116.229545" y="48.762625" style="fill: #d62728; stroke: #d62728"/>
     <use xlink:href="#m0738455b7a" x="151.152273" y="48.934503" style="fill: #d62728; stroke: #d62728"/>
     <use xlink:href="#m0738455b7a" x="186.075" y="45.663951" style="fill: #d62728; stroke: #d62728"/>
     <use xlink:href="#m0738455b7a" x="220.997727" y="45.578003" style="fill: #d62728; stroke: #d62728"/>
     <use xlink:href="#m0738455b7a" x="255.920455" y="43.686776" style="fill: #d62728; stroke: #d62728"/>
     <use xlink:href="#m0738455b7a" x="290.843182" y="43.687036" style="fill: #d62728; stroke: #d62728"/>
    </g>
   </g>
   <g id="patch_3">
    <path d="M 70.83 187.02 
L 70.83 11.88 
" style="fill: none; stroke: #000000; stroke-width: 2; stroke-linejoin: miter; stroke-linecap: square"/>
   </g>
   <g id="patch_4">
    <path d="M 301.32 187.02 
L 301.32 11.88 
" style="fill: none; stroke: #000000; stroke-width: 2; stroke-linejoin: miter; stroke-linecap: square"/>
   </g>
   <g id="patch_5">
    <path d="M 70.83 187.02 
L 301.32 187.02 
" style="fill: none; stroke: #000000; stroke-width: 2; stroke-linejoin: miter; stroke-linecap: square"/>
   </g>
   <g id="patch_6">
    <path d="M 70.83 11.88 
L 301.32 11.88 
" style="fill: none; stroke: #000000; stroke-width: 2; stroke-linejoin: miter; stroke-linecap: square"/>
   </g>
   <g id="legend_1">
    <g id="patch_7">
     <path d="M 231.402969 125.318906 
L 293.62 125.318906 
Q 295.82 125.318906 295.82 123.118906 
L 295.82 75.781094 
Q 295.82 73.581094 293.62 73.581094 
L 231.402969 73.581094 
Q 229.202969 73.581094 229.202969 75.781094 
L 229.202969 123.118906 
Q 229.202969 125.318906 231.402969 125.318906 
z
" style="fill: #ffffff; opacity: 0.8; stroke: #cccccc; stroke-linejoin: miter"/>
    </g>
    <g id="line2d_13">
     <path d="M 233.602969 82.489375 
L 244.602969 82.489375 
L 255.602969 82.489375 
" style="fill: none; stroke: #1f77b4; stroke-width: 1.5; stroke-linecap: square"/>
     <g>
      <use xlink:href="#mb7b2675883" x="244.602969" y="82.489375" style="fill: #1f77b4; stroke: #1f77b4"/>
     </g>
    </g>
    <g id="text_11">
     <text style="font: 11px 'DejaVu Sans', 'Bitstream Vera Sans', 'Computer Modern Sans Serif', 'Lucida Grande', 'Verdana', 'Geneva', 'Lucid', 'Arial', 'Helvetica', 'Avant Garde', sans-serif; text-anchor: start" x="264.402969" y="86.339375" transform="rotate(-0 264.402969 86.339375)">c2h2</text>
    </g>
    <g id="line2d_14">
     <path d="M 233.602969 98.635312 
L 244.602969 98.635312 
L 255.602969 98.635312 
" style="fill: none; stroke: #ff7f0e; stroke-width: 1.5; stroke-linecap: square"/>
     <g>
      <use xlink:href="#m809db63659" x="244.602969" y="98.635312" style="fill: #ff7f0e; stroke: #ff7f0e"/>
     </g>
    </g>
    <g id="text_12">
     <text style="font: 11px 'DejaVu Sans', 'Bitstream Vera Sans', 'Computer Modern Sans Serif', 'Lucida Grande', 'Verdana', 'Geneva', 'Lucid', 'Arial', 'Helvetica', 'Avant Garde', sans-serif; text-anchor: start" x="264.402969" y="102.485312" transform="rotate(-0 264.402969 102.485312)">c2h4</text>
    </g>
    <g id="line2d_15">
     <path d="M 233.602969 114.78125 
L 244.602969 114.78125 
L 255.602969 114.78125 
" style="fill: none; stroke: #2ca02c; stroke-width: 1.5; stroke-linecap: square"/>
     <g>
      <use xlink:href="#m500e7342ab" x="244.602969" y="114.78125" style="fill: #2ca02c; stroke: #2ca02c"/>
     </g>
    </g>
    <g id="text_13">
     <text style="font: 11px 'DejaVu Sans', 'Bitstream Vera Sans', 'Computer Modern Sans Serif', 'Lucida Grande', 'Verdana', 'Geneva', 'Lucid', 'Arial', 'Helvetica', 'Avant Garde', sans-serif; text-anchor: start" x="264.402969" y="118.63125" transform="rotate(-0 264.402969 118.63125)">c2h6</text>
    </g>
   </g>
  </g>
 </g>
 <defs>
  <clipPath id="p5b1456587b">
   <rect x="70.83" y="11.88" width="230.49" height="175.14"/>
  </clipPath>
 </defs>
</svg>
